<svg xmlns="http://www.w3.org/2000/svg" width="150" height="150" fill="none"><g clip-path="url(#a)"><path fill="#141414" d="m139.044 63.83.152-.029c.262.246.364.606.5.931l.797 1.966.784 1.803c.168.388.299.9.611 1.189l.092-.054c-.114-.555-.036-1.005-.05-1.557-.009-.348-.061-.702-.105-1.047.281-.373.369-.812.619-1.16.111-.155.165-.14.342-.163.113.071.225.132.288.258.126.253.121.64.151.918l.207 1.82c.021.245 0 .526.122.74l.507.098c.149.277.001.703.012 1.026l.136 1.81-.037 4.54c-.013.753.048 1.576-.054 2.317-.032.236-.105.545-.295.708-.269.23-.931.296-1.257.194-.264-.082-.257-.626-.291-.873-.198-1.428-.34-2.862-.628-4.278-.291-1.429-.719-2.81-1.232-4.175-.634-.176-1.6-.02-2.284-.038l.396 1.498c.479 1.725.931 3.443 1.248 5.207.15.837.314 1.687.335 2.538l-.144.112c-.212-.012-.316.035-.447-.158-.184-.272-.225-.712-.293-1.034l-.529-2.61c-.374-1.754-.973-3.44-1.388-5.179l-.15-.794-.055-.333c-.005-.03.011-.072-.014-.087-.012-.008-.268 0-.304 0-.512 0-1.292.115-1.681-.244l.027-.147c.53-.225 1.327-.138 1.904-.147-.406-1.15-.92-2.404-1.122-3.603.233-.182.441-.354.719-.463.73.268 1.74 3.357 2.2 4.178l.817-.009c-.702-1.566-1.121-3.438-1.248-5.147.131-.219.432-.374.642-.522"/><path fill="#fff" d="M142.605 70.13c.191-.032.102-.05.266.05.426 1.985.479 4.212.506 6.248l-.088-.073-.984-5.86c.079-.199.13-.23.3-.366m-3.351 53.028.2-.042.069.115c-.417 1.684-1.671 3.289-2.973 4.395l-.171.079c-.015-.202.355-.774.445-1.008.391-1.02.567-2.006.426-3.096a10.6 10.6 0 0 0 2.004-.443"/><path fill="#fff" d="M0 0h150v150H0z"/><path fill="#141414" d="M71.419 53.21c.31-.111 1.21.146 1.603.191l.07.139-.168.257c-.1.078-.183.143-.312.17-.265.057-.616-.05-.835-.202-.251-.175-.289-.275-.358-.554M36.527 15.185c1.033.16 1.978.505 2.968.822.665.212 1.423.378 1.962.839.069.21.049.21-.039.417-.173.108-.202.146-.411.12-.629-.08-1.328-.381-1.922-.601-.613-.227-1.328-.437-1.866-.822-.273-.195-.489-.51-.692-.775M82.098 7.36l.192-.038.144.098c.072.17.104.217.08.396-.156 1.168-.772 2.26-1.208 3.341-.266.661-.582 2.001-1.142 2.425l-.257.052c-.075-.049-.14-.058-.152-.156-.05-.416 2.008-5.566 2.343-6.117m8.125 11.719.08-.008c.215.006.333.125.48.26a.53.53 0 0 1-.004.399c-.179.502-.752.955-1.123 1.323L88.15 22.5c-.421.393-.782.772-1.31 1.02-.206.003-.328.038-.504-.076a.68.68 0 0 1 .047-.435c.475-1.144 1.528-2.109 2.435-2.912.442-.392.85-.79 1.405-1.017M60.17 5.097c.455.455.804.983 1.166 1.513.83 1.215 1.477 2.427 2.173 3.717.265.49.66 1.03.766 1.584.037.196-.019.2-.123.357l-.212.114a.56.56 0 0 1-.296-.108c-.46-.353-.803-1.064-1.092-1.558-.696-1.187-1.398-2.38-1.89-3.67a9.5 9.5 0 0 1-.493-1.949m-6.208 54.266.184.016c.444.535-.063 1.107.018 1.693.018.133.151.26.236.356.625.708 1.596 1.176 2.366 1.716.532.373 1.453 1.022 1.535 1.708.028.234-.107.517-.255.689l-.22-.079-1.856-1.002c-.96-.483-2.212-.909-2.62-1.997-.3-.793.244-2.354.612-3.1m59.583 14.764c.214-.01.574-.06.77.027.26.114.495.327.608.59.271.632.133 1.547-.116 2.168-.294.736-.672 1.177-1.404 1.49a1.9 1.9 0 0 1-.646-.034c-.294-.073-.608-.287-.741-.564-.278-.577-.078-1.808.156-2.366.285-.681.722-1.027 1.373-1.31"/><path fill="#fff" d="m113.63 75.183.189-.028c.147.105.212.233.258.404.126.467-.295 1.424-.515 1.85l-.146.004c-.201-.407-.433-1.153-.306-1.596.087-.3.262-.474.52-.634"/><path fill="#141414" d="M67.544 69.512c2.028.94 3.505 3.084 5.016 4.673 1.176 1.236 2.403 2.393 3.776 3.407 1.422 1.051 3.094 2.062 4.771 2.645l1.538.455c.4.1.847.158 1.196.385l-.162.111c-.477.126-.965.222-1.46.16-.966-.123-1.916-.52-2.795-.922-2.8-1.283-4.95-3.12-7.08-5.305-1.733-1.777-3.293-3.64-4.8-5.609M54.23 58.338c.338.005.707.248.995.409l1.538.873c1.773 1 3.455 1.798 5.46 2.236a13 13 0 0 0 1.86.248c.564.04 1.778-.15 2.23.133.129.08.156.241.176.385.181 1.268-.264 3.03-1.065 4.025-.814 1.012-1.734 1.379-2.992 1.526l-.542-.057c-.183-.05-.282-.126-.358-.294.228-.262.948-.327 1.273-.434a4.2 4.2 0 0 0 .933-.449c1.521-.973 1.317-2.34 1.663-3.888-1.835.026-3.427-.217-5.187-.747-1.63-.49-3.198-1.29-4.658-2.16-.554-.33-1.177-.635-1.492-1.22 0-.302-.043-.356.166-.587M5.123 50.918c.826.63 1.183 1.522 1.55 2.462l1.054 3.142 2.964 11.272 2.807 13.813c.579 2.325 1.14 4.774 2.443 6.82.606.952 1.439 2.006 2.465 2.53.364.187.794.276 1.113.537l-.042.168-.241.087c-.653.161-1.557-.151-2.087-.504-.478-.318-.887-.79-1.239-1.24-1.064-1.36-1.83-3.03-2.391-4.656-1.154-3.34-1.665-6.882-2.26-10.351l-1.856-9.244-2.494-9.199c-.578-1.852-1.441-3.734-1.786-5.637m122.599 70.275c2.052.616 4.028.82 6.161.842 1.168.012 2.342-.008 3.497-.195l1.414-.263c.355-.084 1.029-.368 1.368-.326.167.022.323.184.407.323.18.299.135.801.084 1.131l-.02.122c-.185 1.223-.696 2.24-1.364 3.27-2.01 3.096-5.753 4.46-9.205 5.17-.62.128-2.009.48-2.539.13-.01-.19.009-.22.1-.39.137-.082.242-.149.349-.27-.398-.882-.179-2.056-.136-3.016.086-1.149.278-2.459.651-3.551.178-.521.443-1.029.675-1.529l-.996-.36c.057.277.108.556.065.839-.101.658-.397 1.357-.574 2.004-.267.977-.416 1.965-.8 2.907-.113-.342-.246-.705-.285-1.066-.148-1.356.417-2.84.735-4.154-.496.445-.934 1.014-1.37 1.52-.46.532-.973 1.061-1.346 1.659-.063.101-.173.248-.213.358-.044.123-.012.43-.019.571-.042.813-.104 1.549.078 2.354l-.11.092-.175-.096c-.394-.639-.462-1.434-.464-2.168-.001-.365-.042-.797.093-1.14.285-.719 1.074-1.439 1.576-2.032.774-.915 1.519-1.885 2.363-2.736"/><path fill="#fff" d="m130.022 122.811.86.116c-.287.916-.473 1.86-.637 2.805l-.551 3.093c-.12.574-.183 1.228-.604 1.665l-.707.298c.166-1.481.299-2.985.605-4.445.255-1.216.624-2.363 1.034-3.532m1.718.22 1.341.08c-.132.697-.125 1.41-.182 2.114l-.275 3.425.091.087c.183-.034.393-.064.525-.208.306-.331.386-.987.455-1.425.205-1.321.269-2.586.264-3.922l1.387.005c-.068.409-.059.855-.078 1.27-.055 1.139-.159 2.227-.724 3.241-.659 1.18-2.112 1.874-3.36 2.228-.046-2.265.329-4.64.556-6.895"/><path fill="#141414" d="m117.465 123.23.076.008c.04.015.085.031.109.065.149.215.223 2.521.272 2.93.054.457.14.917.254 1.363.094.055.367.173.425.248.186.241.317.807.442 1.105.219.519.52 1.021.869 1.463.714.903 1.734 1.67 2.67 2.325.552.387 1.164.748 1.8.976 1.688.605 3.548.722 5.173 1.516.716.35 1.727.964 1.984 1.771.11.342.078.738-.095 1.056-.479.879-1.685 1.177-2.57 1.45l2.395.08c.356.012.813-.021 1.092.233l-.034.11c-.408.203-1.048.167-1.498.175l-3.167.006c-2.334-.069-4.63-.161-6.922-.656-.809-.175-1.663-.372-2.412-.729l-.096-.047-.622.211c-.322.084-.842.126-1.132-.039l-.001-.312c.24-.286.518-.247.878-.301-1.233-.496-2.273-1.042-3.244-1.968l.292 1.167a3.8 3.8 0 0 1-.951-.046c-.129-.101-.158-.1-.221-.265-.152-.395-.081-.968-.082-1.394-.003-1.572-.078-3.533.565-5 .535-1.221 2.584-2.359 3.761-2.843-.305-1.081-.366-2.314-.337-3.431.012-.469-.035-.886.327-1.227"/><path fill="#fff" d="M118.168 128.954c.3.449.499.969.782 1.432.622 1.014 1.475 1.815 2.325 2.633l-.01.099-.191-.02c-.398-.02-.76.244-1.077.456-.769.515-1.564 1.066-2.254 1.683.324.242.627.397.996.554.649-.283 1.176-.784 1.727-1.219l1.37-1.02 1.38.746c-.52.142-.982.357-1.433.651-.527.343-2.037 1.276-2.169 1.904l.243.22c.837.161 2.02-1.055 2.73-1.484.352-.213 1.009-.618 1.418-.655.341-.03 1.028.228 1.376.313-1.123.191-1.832.465-2.819 1.025-.377.201-.688.404-.971.728-.008.226-.035.26.101.436.529.151 1.149.111 1.696.115l4.168-.154c.506-.013 1.325-.122 1.695.232l-.015.158c-.26.218-.594.298-.916.385-1.096.294-2.298.344-3.429.368-2.392.051-5.062-.281-7.238-1.31-1.303-.617-2.527-1.546-3.568-2.539-.148-1.026-.007-2.422.179-3.443.057-.308 2.512-1.454 2.942-1.687.335-.181.649-.392.962-.607"/><path fill="#141414" d="M119.063 131.703c.204-.03.374-.024.578-.009.169.148.226.207.285.435-.227.405-3.191 1.579-3.733 1.761a.84.84 0 0 1-.47.002c-.157-.12-.225-.187-.299-.371.29-.532 3.049-1.616 3.639-1.818m-78.968-15.285c2.264-.2 4.619-.028 6.89.011l11.042.129 12.209-.107c2.185-.037 4.387-.168 6.572-.082.605.024 1.518.086 1.992.497.26.225.392.615.402.95.013.446-.156.788-.477 1.093-.591.562-1.68.722-2.468.828-.876.119-1.768.12-2.65.15l-4.378.087-9.816-.005L59.4 123c-.003.145-.067.77-.015.874s.53.366.641.448c.4.293.768.628 1.129.967l5.4 5.504 2.32 2.268c.582.551 1.365 1.14 1.788 1.817-.232.093-.812.213-1.05.137l-.117-.057c-.726-.336-1.336-.915-1.936-1.437-1.594-1.388-3.06-2.933-4.55-4.43-1.134-1.158-2.285-2.556-3.578-3.522l-.005 6.056c.005.678.137 1.61-.005 2.256-.041.187-.088.191-.243.281-.292.014-.569.06-.831-.092-.132-.387-.06-.972-.06-1.384l-.01-2.823-.126-4.743-4.21 3.787c-.994.904-5.82 5.628-6.557 5.79-.212.046-.57.023-.76-.092-.113-.069-.087-.086-.11-.205.334-.716 1.129-1.34 1.696-1.894l3.573-3.395c1.483-1.422 2.906-2.966 4.502-4.26a7.6 7.6 0 0 1 1.836-1.086l-.031-3.809-11.475.092c-2.347.004-4.825.135-7.155-.15-.84-.103-1.758-.261-2.455-.776-.389-.287-.67-.656-.73-1.141-.04-.312-.013-.638.208-.881.617-.679 2.694-.627 3.61-.682m17.558-89.953.685-.028.028.113c-.43.395-1.031.608-1.52.933-1.175.783-2.072 1.89-2.343 3.299l-.024.126c-.227 1.166-.031 2.574.456 3.652.091-.335.08-.709.105-1.055a6 6 0 0 1 .65-2.32c.653-1.295 1.83-2.113 3.188-2.544 1.973-.628 4.285-.216 6.092.722a4.3 4.3 0 0 1 .48-.503c.407-.341.915-.59 1.385-.831 2.218-1.139 4.956-1.633 7.44-1.43a6.97 6.97 0 0 1 4.767 2.484c1.016 1.216 1.544 2.933 1.406 4.51-.277 3.172-2.337 5.713-5.072 7.218-.875.482-1.937.811-2.701 1.454.408 1.133.72 2.625 1.517 3.537l2.031-.41c.277-.029.66-1.284 1.166-1.49.043.058.061.074.081.153.2.795-.563 3.638-1.072 4.3-.11.144-.236.119-.408.145l-.06.096c.08.106.152.206.211.327.1.203.12.465.14.688.007.075.047.29.027.359-.088.317-.665.705-.944.859-.13.072-.305.117-.36.257l.18.117c.422 1.496-.18 3.8-.923 5.13-.778 1.39-2.16 2.376-3.681 2.803-2.595.73-5.347.197-7.667-1.109-1.646-.926-3.176-2.299-4.168-3.914-.213-.346-.479-.765-.565-1.164-.063-.294-.01-.383.14-.617l.165-.013 1.404 1.898c1.946 2.343 4.578 3.994 7.655 4.27 1.94.175 3.615-.195 5.13-1.462 1.633-1.67 1.702-3.692 1.877-5.9-.67.128-1.385.214-2.066.12-.897-.122-1.564-.538-2.092-1.268-.586-.811-.462-1.844-.322-2.772-.74.224-1.47.395-2.25.38-1.7-.035-2.818-1.17-3.592-2.574-.24-.434-.409-.917-.761-1.273-.085-.086-.178-.166-.244-.269-.048-.076-.09-.127-.057-.22.104-.297.488-.592.718-.799.919-.827 2-1.714 3.16-2.175.34-.136 1.12-.186 1.357-.357.2-.144.288-.468.315-.697-.187-.174-.468-.196-.71-.253a15 15 0 0 1-1.542-.426c-.703-.246-1.36-.66-2.065-.873-1.017.294-1.93.756-2.649 1.551-2.76 3.06 1.594 5.553 1.67 8.633.012.454-.112.942-.454 1.261-.383.358-.904.446-1.406.4-2.024-.186-2.734-2.372-3.8-3.703-.338.08-.648.186-.947.368-.311.19-.754.55-.818.933-.123.734.352 1.72.803 2.294.435.554.95 1.002 1.636 1.212.736.226 1.688.154 2.464.24-.54.327-1.028.556-1.649.684-1.078.222-1.782-.141-2.665-.72l-.151.174c-.565.548-1.459.86-2.234.857-1.413-.003-2.71-.752-3.672-1.743-1.161-1.194-2.285-3.105-2.243-4.816.028-1.149.478-1.71 1.282-2.463-1.46.043-2.96-.362-4.112-1.283a5.42 5.42 0 0 1-2.04-3.72c-.146-1.487.366-3.047 1.327-4.187a5.95 5.95 0 0 1 4.075-2.102c1.85-.152 3.394.22 4.823 1.43-.216-1.361-.172-2.479.473-3.724.75-1.45 2.018-2.304 3.54-2.78"/><path fill="#fff" d="m76.256 46.106.083.082-.158 1.682-.719-.592-.672-.72c.505-.06.962-.118 1.395-.403zm-6.32-5.932c.511-.109 1.092-.021 1.613-.001l2.304.046c-.407.28-.743.592-1.091.941l-.478.633c-.5-.55-1-.92-1.715-1.142-.291-.09-.593-.124-.88-.232l-.008-.1zm4.639-12.482c.754.172 1.396.375 2.043.81 1.193.802 2.074 2.125 2.335 3.544.373 2.033-.244 3.806-1.371 5.473-.114.145-.183.249-.355.328.942-1.95 1.539-3.625.95-5.792-.563-2.07-1.79-3.312-3.602-4.363m-25.48 4.928c1.257-.23 2.814.287 3.855.955-1.185-.353-2.106-.603-3.365-.476-.417.042-.82.151-1.208.31-1.116.452-1.956 1.464-2.398 2.56-.513 1.27-.224 2.595.295 3.807.426.783.917 1.316 1.55 1.934-.557-.2-1.08-.414-1.557-.776-.976-.74-1.719-1.902-1.863-3.129-.139-1.182.295-2.413 1.02-3.34.971-1.244 2.148-1.66 3.67-1.844m18.685 8.491.461-.03c.333-.003.672.158.983.269.57.202 1.212.346 1.653.784 1.033 1.026 1.515 2.585 2.306 3.797.562.861 1.332 1.628 1.81 2.538.195.369.364.805.365 1.225-.066.08-.128.159-.212.22-.648.465-1.64.474-2.4.373-.43-.057-1.058-.236-1.317-.62-.53-.782.078-2.706.262-3.596.155-1.084-.074-2.142-.552-3.124-.156-.32-.379-.746-.747-.849-.149-.042-.145-.012-.272.052-.103.58.351 1.473.488 2.067.107.462.15.906.168 1.38-.225.36-.68.587-1.066.74-.846.333-1.991.518-2.841.125-1.221-.565-1.919-2.17-2.365-3.347l.042-.085c.682-.908 2.183-1.585 3.234-1.92"/><path fill="#141414" d="M5.56 49.097c1.179.04 2.197.377 3.153 1.069a9 9 0 0 1 2.329 2.488c.824 1.313 1.361 2.798 1.87 4.255a58.7 58.7 0 0 1 2.451 9.547l4.925-.41-3.009-8.624c-.466-1.262-1.02-2.5-1.397-3.792-.089-.302-.23-.77-.117-1.075.109-.296.502-.583.79-.682 1.187-.406 3.052.24 4.095.822 3.759 2.101 5.996 6.4 7.59 10.23a55 55 0 0 1 2.19 6.236c1.563 5.561 2.652 11.369 3.104 17.129.204 2.594.322 5.161.188 7.764-.089 1.734-.221 4.006-1.121 5.536-.403.684-.93.865-1.658 1.045-.24.027-.48.044-.713.11l.01.085c.174 1.274.613 2.782 1.426 3.807 2.11 2.66 6.66 2.896 9.796 2.994.449.014 1.48-.074 1.81.182l-.036.161c-.314.346-.778.453-1.232.497-2.931.287-7.907-.301-10.228-2.254-1.607-1.352-2.207-3.575-2.35-5.602l-.006-.1c-1.13-.066-2.333-.459-3.363-.911-2.008-.882-3.631-2.746-4.596-4.682-.705-1.416-1.063-2.985-1.455-4.51L18.85 86.03l-1.854-6.937-2.783-11.563c-.915-3.62-1.894-7.262-3.242-10.75-.73-1.89-1.469-3.556-2.94-4.993-.471-.46-.984-.907-1.585-1.193-.623-.296-1.315-.366-1.943-.643-.177-.213-.182-.2-.17-.475.364-.284.784-.326 1.227-.378"/><path fill="#fff" d="m16.626 53.396.314.213c1.172.826 1.898 2.374 2.503 3.629 1.057 2.192 1.783 4.471 2.453 6.803l1.13 4.14 1.686 9.142.717 5.045.026.14-.06-.004C24.05 75.377 22.13 68.467 19.74 61.62l-1.928-5.175c-.4-1.016-.862-2.005-1.186-3.05m3.263 13.652.618-.034c.519 2.103 1.33 4.152 1.906 6.245l1.786 7.859 1.335 6.143c.829 3.835 1.62 7.447 1.075 11.39-.872-.43-1.594-.989-2.326-1.623-1.005-.915-1.751-2.072-2.267-3.324-.683-1.657-1.076-3.408-1.486-5.147l-1.233-5.295-1.29-5.45-2.28-10.414z"/><path fill="#141414" d="M91.578 81.964c.047-.261.097-.513.214-.753.077-.159.187-.3.295-.437.374-.089.74-.169 1.124-.196l3.091-.094c.189-.001.863.057 1.009-.042.094-.063.302-.456.37-.571l.168-.322 8.448-.049c.366-1.77.976-3.51 1.492-5.242.471-1.58.854-3.33 1.554-4.82l-5.229.036-2.808.012c-.592-.002-1.287.049-1.828-.22-.199-.236-.23-.353-.199-.66.081-.835.402-1.663.624-2.468l1.166-4.451 2.339-9.901 1.097-4.179c.192-.758.793-3.936 1.287-4.337.455-.368 1.523-.354 2.083-.364l8.992.204 10.786.066 5.855-.04 1.464-.015c.233-.002.564-.038.782.035.192.063.369.252.452.436.116.256.105.558.078.83-.176 1.774-.702 3.578-1.077 5.323l-2.656 11.232-1.178 4.497c-.259.93-.501 1.92-.907 2.797-.186.4-.425.685-.849.841-.668.246-1.618.194-2.33.221l-4.571.117-1.172 3.853-1.197 4.313c-.227.711-.479 1.572-.999 2.123-.218.048-.238.064-.439-.024-.101-.481.41-1.53.548-2.028l2.291-7.906c.356-1.105.626-2.21 1.175-3.24l-12.055.924-2.72 8.585c-.417 1.319-.723 2.695-1.22 3.986a2.9 2.9 0 0 1-.44.759l20.441-.178.12-.124c-.05-.396-.071-.619-.399-.866-.859-.648-2.016-1.198-2.209-2.393-.092-.572.02-1.14.368-1.608.672-.9 1.898-1.112 2.947-1.239 1.194-.145 2.966-.073 3.939.71.935.755 1.487 1.98 1.6 3.162.041.418.062.968-.25 1.293l-.074.071c-.211-.206-.248-.64-.327-.931-.323-1.205-.886-2.619-2.127-3.129-.588-.241-1.169-.268-1.793-.26l-.586.01c.521.184 1.118.369 1.578.683.612.418 1.071 1.124 1.386 1.785.426.893.499 1.741.438 2.715 2.048.004 14.681-.169 15.433.473.057.05.07.085.102.147-.051.198-.086.2-.264.303-.383.221-.869.287-1.305.304l-5.088.04-9.043.066-39.625.612c-.014-.25-.024-.275-.172-.477"/><path fill="#fff" d="m106.433 44.104 28.812.136c.41.906-3.983 18.036-4.581 20.259l-1.096 3.713-6.336.149.702-1.754-.001-.29c-.008-.213-.041-.357-.203-.504a.74.74 0 0 0-.472-.187c-.99-.084-2.129.126-3.124.221l-2.833.19.729-1.443c.292-.67.65-1.578.366-2.292l-.146-.059c-1.075.14-2.426.09-3.173.988-.709.851-.732 1.968-.629 3.01-1.312.053-2.995-.012-4.209.489-.323.32-.493 1.09-.631 1.517-.674.147-1.569.054-2.269.07l-7 .095z"/><path fill="#141414" d="M129.914 56.071c.545-.03 1.125-.101 1.666-.035.093.064.148.064.164.185.054.409-.086.884-.311 1.223-.436.207-1.527.07-2.04.069l-5.527-.023c-.442-.002-1.504.124-1.838-.105a3.5 3.5 0 0 1 .184-1.275zm-19.183-.148 1.709-.032c.409-.005.837-.05 1.232.07.118.143.126.155.137.342.017.294-.028.596-.242.817a1.2 1.2 0 0 1-.598.334c-.53.111-1.176.058-1.725.066l-3.889.032-2.768.006c-.122-.514-.183-.925-.055-1.444.327-.22 5.343-.176 6.199-.191m7.203-3.618c.585-.027 1.073-.022 1.534.404.312.288.462.776.453 1.192-.018.871-.448 1.372-1.045 1.933.305.358.636.512.748 1.006.258 1.135-.332 2.35-.954 3.266-.527.776-1.124 1.214-2.05 1.405a2.3 2.3 0 0 1-.921-.125c-.45-.176-.775-.592-.947-1.031-.33-.843-.208-1.795.169-2.6.503-1.07 1.215-1.556 2.282-1.952-.229-.221-.464-.435-.588-.735-.188-.455-.128-1.186.061-1.63.241-.569.712-.898 1.258-1.133M91.75 82.441c-.017.123.22.517.284.648l17.937-.637c-1.134.45-2.314.483-3.507.656l-4.773.653c-.033.325-.123 1.061-.322 1.31-.259.325-1.321.204-1.739.198l-6.214.016c-.343.006-1.076-.072-1.385.035-.183.063-.577.549-.769.703a4.4 4.4 0 0 1-1.134.636c-.988.383-2.047.594-3.082.804a54 54 0 0 1-6.299.878l-1.011 4.353c-.097.677-.084 1.344.385 1.898.164.194.268.313.519.33l.032-.087-.399-.724c.436-.24.913-.378 1.378-.55l2.268-.829c5.194-1.866 10.338-3.25 15.863-3.633 1.628-.113 3.311-.17 4.932.06 1.314.184 2.594.53 3.759 1.181 4.405 2.458 6.411 7.821 8.76 12.002l4.851 7.747c.505.748.939 1.556 1.482 2.276l.009-3.888.133-15.297-.025-7.809a1.3 1.3 0 0 1 .109-.52c.205-.106.222-.105.452-.073.166.18.185.252.217.496.181 1.375.151 2.861.164 4.248l.013 6.187-.117 9.98-.071 7.302c.17.159.499.485.558.704.097.36.012 1.491-.114 1.845-.082.231-.304.559-.281.791.97.929 1.914 1.834 3.084 2.51.395-1.634.327-3.492.342-5.166l.041-5.543.134-14.865.016-3.848c.004-.809-.072-1.736.125-2.522l.036-.142c.07-.274.122-.486.292-.715l.067.02.098.366c.329 1.514.217 3.194.215 4.737l-.128 8.795L128.83 110l-.094 5.98c-.057.891-.045 2.274-.578 3.035-.289.413-.929.736-1.341 1.023-1.104.771-2.196 1.564-3.363 2.238-.864.5-1.762.902-2.671 1.31-.473.213-1.021.517-1.532.592-.188.028-.235.005-.383-.116-.328-.269-.405-.801-.435-1.197.13-.292.242-.341.497-.524-.341-.655-.562-1.319-.783-2.022-1.068 1.442-4.131 2.836-5.855 3.385-.378.121-.769.236-1.131.017-.295-.178-.588-.569-.803-.839-.98-1.239-1.724-2.692-2.546-4.039-1.765-2.895-3.63-5.768-5.097-8.829-.99-2.064-1.841-4.175-2.501-6.368l-4.146 3.092c-2.51 1.615-5.203 2.943-7.929 4.153-3.906 1.733-8.097 3.181-12.294 4-6.759 1.319-13.924 1.223-20.787 1.108l-6.993-.183c-.914-.042-1.94-.004-2.825-.219-.314-.076-.581-.229-.877-.349-.856-.349-1.67-.51-2.193-1.364-.555-.904-.475-1.782-.242-2.768l-5.681-.43c-.462-.07-.91-.146-1.2-.538-.036-.207-.078-.276.02-.467.246-.118.456-.11.724-.114l4.4.137 6.132-.051c-.17-.939-.474-1.919-.533-2.865-.014-.216-.021-.447.098-.637l.071-.103c-.091-.204-.772-.198-1-.214-2.114-.155-4.304-.366-6.157-1.501-1.092-.669-1.74-1.708-2.032-2.934-.397-1.669-.415-3.45-.329-5.158a41 41 0 0 1 1.28-8.223l1.392-4.458c1.303-3.993 2.825-8.01 5.067-11.583 1.76-2.804 4.598-6.185 7.97-6.927 1.563-.344 3.049-.166 4.45.605 3.364 1.85 4.587 5.55 5.887 8.907.749 1.932 1.602 3.939 2.834 5.616.526.716 1.162 1.409 1.877 1.938.392.289.847.52 1.26.78 3.934-.022 7.839.007 11.767-.306 1.093-.087 2.243-.076 3.292-.433 1.147-.39 2.07-1.193 3.116-1.777.965-.54 1.976-.823 3.068-.484.6.186 1.202.565 1.481 1.148.127.264.181.555.33.81l.066.11c.148.203.158.228.172.478"/><path fill="#fff" d="m43.614 111.511.133.073c-.241.934-.28 1.471-.032 2.418l-.063.103-.224-.177a2.1 2.1 0 0 1-.535-.9c-.087-.307-.108-.917.067-1.189.165-.256.38-.274.654-.328"/><path fill="#141414" d="M68.467 96.955c.066-.047.124-.11.198-.142.186-.081.905.001 1.134.002l2.934.039c.57.008 1.182-.028 1.744.07l.062.012c-.091.129-.31.115-.463.164-1.865.055-3.754.088-5.609-.145"/><path fill="#fff" d="M88.626 83.508h.18c.795.047 1.56 1.15 2.07 1.707-.241.19-.48.34-.751.484l-.161.037c-.204-.166-.332-.408-.47-.629-.32-.507-1.1-.936-1.567-1.343.12-.182.481-.206.7-.256"/><path fill="#fff" d="M88.304 80.726c.41-.03.838-.064 1.212.146.76.426 1.135 1.33 1.5 2.079.319.656.612 1.242.805 1.951-.892-.693-1.297-2.017-2.569-2.175-.693-.087-1.672.091-2.203.571a.56.56 0 0 0-.221.454c.269.381.668.672 1.02.975.475.408.91.815 1.322 1.286-.442.052-.872.176-1.304.285l-6.82 1.188c.348-1.366.634-2.522.667-3.948 2.555-.173 4.243-2.161 6.59-2.812M74.076 97.1l1.014.006c-.775.956-2.097 1.366-3.202 1.84-2.66 1.143-5.375 1.963-8.144 2.785-3.863 1.147-7.87 2.275-11.88 2.746-2.261.265-4.57.34-6.841.185-2.236-.153-4.612-.46-6.43-1.893-.32-.553-.416-1.31-.512-1.938-.411-2.696-.284-5.595.101-8.292.647-4.535 1.866-8.985 3.542-13.247 1.327-3.375 2.863-6.568 5.268-9.326.752-.861 1.563-1.705 2.484-2.389 1.098-.814 2.44-1.498 3.82-1.638.758-.076 1.502.013 2.25.127-.61.259-1.648.476-2.071.987l.074.147c.483.194 1.215-.207 1.742-.23.79-.033 1.446.391 2.021.883 2.121 1.814 3.018 4.493 4.09 6.98l1.64 3.544c.777 1.534 1.67 3.022 2.977 4.16-.32.219-.804.261-1.16.442-.486.247-.946.653-1.383.982-.33.249-.704.472-.981.78l.09.143c.823.025 1.728-.345 2.468-.675.383-.172.816-.413 1.231-.492.237-.045.363-.04.55.101.176.97-.592 1.259-.758 2.059l.135.104c.132-.005.267-.002.389-.06.618-.297.853-1.392 1.023-1.985l.09-.036c.095.23.161.443.17.695.012.335-.115.787.075 1.062.23.028.3.062.511-.049.29-.393.306-1.123.373-1.605 1.539.355 3.335.214 4.907.15l7.154-.46-1.249 5.317c-.36 1.332-.872 2.693-.981 4.074-.053.66.056 1.232.24 1.86l-4.283.832c-3.526.38-7.335.252-10.678-1.033-3.305-1.271-6.182-3.842-8.108-6.789l-1.717-2.888c-.451-.756-.86-1.495-1.556-2.053.238 1.387.787 2.472 1.457 3.705.936 1.724 1.985 3.309 3.318 4.756 2.407 2.613 5.346 4.367 8.832 5.136.682.15 1.445.326 2.141.343l.148.002c1.855.233 3.744.2 5.609.145"/><path fill="#141414" d="m46.059 99.28.127-.037c.343-.069 1.7-.05 1.945.145l-.11.185c-.492.113-1.248.156-1.73-.02-.183-.068-.155-.108-.232-.273M59.01 72.766l.118.008c.2.108.32.308.425.505.52.973.73 2.271 1.037 3.334l.698 2.205c.347.993.815 1.944 1.204 2.922l-.467-.43c-.48-.525-.772-1.275-1.035-1.925-.637-1.58-1.053-3.19-1.512-4.824-.147-.523-.482-1.26-.468-1.795"/></g><defs><clipPath id="a"><path fill="#fff" d="M0 0h150v150H0z"/></clipPath></defs></svg>