<svg xmlns="http://www.w3.org/2000/svg" width="340" height="340" fill="none"><g clip-path="url(#a)"><path fill="#fff" d="M0 0h340v340H0z"/><path fill="#141414" d="M145.838 134.057c.251-.081.405-.117.663-.131.608-.034.936.102 1.37.528.478.468 1.01 1.211.906 1.928-.076.52-.385.622-.774.904-.23.078-.462.139-.705.17-.695.089-1.228-.102-1.732-.576-.399-.375-.49-.891-.487-1.418.005-.704.282-.961.759-1.405M94.357 300.505c.737.064 1.584.153 2.257.468.54.253 1.017.693 1.164 1.292.104.422-.016.849-.246 1.206-.42.649-1.549.919-2.242 1.091l-.578.009c-1.255-.064-1.87-.254-2.731-1.177-.136-.451-.243-.716-.026-1.162.447-.92 1.502-1.402 2.402-1.727m63.777-203.488c.418-.099 1.018-.04 1.454-.048 1.871-.032 3.858.026 5.282 1.396.131.37.209.539-.025.912-1.043 1.66-2.59-.107-3.809-.275-1.326-.183-2.815.008-4.14.142-.692.128-1.608.311-2.171.754-.718.564-1.192 1.622-2.073 1.851-.5-.254-.74-.424-1.05-.895-.029-.603-.073-.978.324-1.493 1.326-1.72 4.227-2.132 6.208-2.344m13.752 110.419.355.061c.58.407.956 1.13 1.296 1.745 1.922 3.476 3.149 7.473 4.484 11.201.324.905 1.303 2.852 1.027 3.767-.308.018-.705.029-.975-.144-1.247-.801-2.928-6.346-3.578-8.008-.927-2.368-2.21-4.816-2.746-7.308-.129-.601-.169-.791.137-1.314m-35.634 14.54 1.043-.028c.426.24.457.234.645.679-.083.203-.084.229-.23.438-.581.831-1.598 1.659-2.376 2.313-3.538 2.977-7.032 4.292-11.574 4.908-.775.001-1.293.009-1.899-.52l-.02-.498c.681-.77 2.411-1.144 3.371-1.531l3.234-1.481zm-16.332-22.841c.147.07.187.079.329.201.705.605 1.305 1.695 1.802 2.477l3.758 6.202c1.729 2.708 3.784 5.395 6.019 7.713l3.744 3.525c.496.463 1.055.773 1.148 1.465l-.524-.043c-.792-.138-1.696-.795-2.368-1.246-3.008-2.019-5.389-4.611-7.559-7.492-2.274-3.019-4.425-6.344-5.74-9.907-.342-.928-.752-1.894-.609-2.895m26.202-90.81.248-.039c.421-.015.673.232.969.481.607 1.277.634 2.697.343 4.061-.439 2.057-1.691 3.711-3.484 4.797-1.327.805-2.956 1.131-4.475.736-2.519-.655-3.884-2.467-5.153-4.581-.477-1.055-.853-1.946-.607-3.13.426-.44.504-.376 1.09-.424 1.133.547 1.619 3.098 2.507 4.182.762.93 1.737 1.697 2.974 1.803a3.92 3.92 0 0 0 2.931-.931c1.081-.915 1.964-2.529 1.979-3.966.007-.704-.146-1.467-.04-2.161.08-.528.308-.558.718-.828M135.084 98.18l2.878-.05c1.427.068 3.16.638 4.111 1.76.415.489.521.959.451 1.572-.475.458-.772.595-1.411.745-.802-.157-1.787-1.338-2.479-1.873-3.347-.54-6.504.661-9.515 1.979-1.823.825-4.925 2.572-6.932 2.29-.53-.075-.646-.292-.942-.708-.039-.562-.114-.707.195-1.195 1.026-.588 2.257-.75 3.362-1.161 1.471-.547 2.862-1.299 4.325-1.87 1.953-.763 3.88-1.231 5.957-1.49m28.346 95.312c.521.085.623.17 1.045.498.219 2.005-1.342 4.471-2.484 6.048-3.953 5.458-8.931 9.847-15.731 11.026-1.725.3-3.485.347-5.232.445-.394-.007-.79.08-1.102-.17.945-1.044 3.062-1.281 4.382-1.564l3.561-.942c5.874-1.813 10.738-6.924 13.882-12.077.647-1.06 1.103-2.17 1.679-3.264m105.35-32.087c.496-.026 1.023-.138 1.45.161-.003 1.041-2.23 1.841-3.087 2.137-2.103.73-4.311 1.128-6.415 1.858-6.238 2.166-10.692 6.13-15.276 10.69l-.745.514-.288-.134c-.185-1.387.859-2.94 1.59-4.067.832-1.28 2.043-2.42 3.166-3.441 5.65-5.137 12.438-6.138 19.605-7.718m-114.497-53.909.297-.038c1.212.055 1.277 3.016 2.018 4.022.772 1.049 1.89 1.847 3.204 2.035.734.106 1.724-.128 2.301-.604 1.051-.869.994-3.085 1.081-4.336.304-.405.333-.358.839-.453.409.171.652.207.858.635.559 1.161.217 3.413-.246 4.541-.524 1.275-1.292 1.929-2.549 2.417-.368.143-.2.376-.177.745.131 2.063.007 3.478-1.028 5.309-.274.355-.552.717-.886 1.018-1.269 1.144-2.974 1.489-4.637 1.36-.901-.069-1.526-.357-2.108-1.046-.041-.664.009-.762.297-1.328.76-.428 1.626-.149 2.476-.095.995.063 2.145-.208 2.888-.901.894-.834 1.113-2.319 1.119-3.478.002-.327.032-1.096-.24-1.332-.223-.193-1.063-.294-1.356-.381-1.023-.301-2.014-.876-2.747-1.648-1.146-1.207-2.294-3.646-2.102-5.363.065-.574.252-.755.698-1.079m158.24 166.016c.137-.044.181-.068.344-.064.579.019 1.109.457 1.4.935.596.977.689 2.631.361 3.72-.721 2.391-2.926 3.915-5.034 4.996-2.32 1.188-4.643 1.689-7.163.843-2.258-.757-4.19-2.357-6.028-3.822-.504-.402-1.311-.888-1.594-1.461.259-.252.341-.345.686-.446 1.369-.401 3.128 1.204 4.214 1.926.784.521 1.592.985 2.417 1.436l.535.232c1.701.723 3.415.726 5.128.013 1.752-.73 4.059-2.241 4.754-4.095.228-.606.144-1.059-.105-1.637-.402-.085-.913.375-1.273.595-1.698 1.038-3.356 1.773-5.317 2.144-1.395.264-3.377.507-4.586-.382-.366-.269-.508-.342-.58-.782.584-.343 1.383-.339 2.048-.418 1.255-.15 2.516-.282 3.733-.637 2.341-.683 3.928-2.087 6.06-3.096"/><path fill="#141414" d="M272.849 151.136c.674-.05 1.727-.161 2.334.18.408.229.38.508.477.92-.053.191-.034.417-.157.571-.196.246-1.026.473-1.323.57l-4.404 1.347c-7.029 2.146-13.994 5.389-19.186 10.699-1.646 1.683-3.016 3.573-4.408 5.463l-.339.378c-.313.311-.782.663-1.238.66-.071-.19-.086-.193-.097-.43-.023-.518.286-1.163.49-1.634a19.3 19.3 0 0 1 2.614-4.394c5.362-6.732 16.596-13.38 25.237-14.33M152.844 162.28c1.554-.329 3.047.107 4.39.898 2.162 1.271 3.998 3.131 5.674 4.979 3.061 3.373 5.606 7.019 8.175 10.765 3.984 5.808 7.739 11.592 10.946 17.874.741 1.449 1.85 3.174 2.265 4.74l-.432.146c-.943-.198-1.568-.97-2.1-1.722-1.789-2.522-3.001-5.478-4.609-8.126l-5.196-7.854c-2.572-3.859-5.114-7.762-8.006-11.393-2.043-2.565-4.228-5.121-6.827-7.143a15.6 15.6 0 0 0-2.187-1.446c-.766-.41-1.955-.705-2.495-1.386zm5.445 16.602.191.012c.486.293.596.496.843.984.071.799-.03 1.505-.421 2.22-.586 1.071-1.563 2.092-2.402 2.968-2.945 3.071-6.085 5.243-10.204 6.423-10.151 2.907-19.187-4.179-27.526-8.77l-2.298-1.212c1.426-.065 2.949-.047 4.331.347 3.247.928 5.909 3.408 8.884 4.933 3.217 1.649 6.65 2.515 10.227 2.925 6.072.695 11.59-2.37 15.331-6.989.859-1.059 1.716-2.917 2.788-3.674zm-69.967 27.151c2.735 4.62 4.284 9.856 6.694 14.645 6.699 13.305 17.701 25.784 32.189 30.586l-.12.213c-1.227.19-2.775.409-3.984.082-5.166-1.395-9.756-5.254-13.754-8.698-7.853-6.766-13.845-15.546-17.835-25.076-1.58-3.773-2.887-7.651-3.19-11.752M87.018 37.27l.416-.042c-.505 1.218-1.541 2.4-2.435 3.358-2.418 2.588-5.277 4.795-7.95 7.114-8.07 7.004-15.594 14.688-22.202 23.093-4.15 5.278-7.817 10.963-11.345 16.668-7.963 12.876-14.893 26.51-19.96 40.805-3.32 9.368-5.742 19.04-7.648 28.785-1.26 6.44-2.338 12.979-2.795 19.531-.69 9.882-.788 19.989.18 29.858 1 10.192 3.282 20.213 6.632 29.883 4.327 12.492 10.242 23.878 18.95 33.897.006-1.587.15-2.973.6-4.498.377-1.284.978-3.455 2.209-4.125.59-.008 1.023.1 1.507.459 1.166.863 2.03 2.492 2.741 3.722a46 46 0 0 0 2.387 3.741c1.425 1.996 3.068 3.769 4.843 5.457.955.907 3.305 2.756 3.4 4.096.03.43-.106.682-.351 1.011-.194-.008-.393.019-.582-.024-.229-.052-.676-.443-.885-.599l-2.537-1.943c-2.212-1.565-4.595-2.891-6.703-4.6-1.438-1.166-2.763-2.476-4.092-3.763-.697 4.652 4.22 8.219 7.441 10.65.84.633 2.334 1.588 2.759 2.575.147.342.078.317-.05.63-.934.697-2.149.985-3.253 1.31-3.543 1.04-7.423 1.576-11.114 1.143-2.652-.311-5.001-.822-7.33-2.208-.938-.559-1.788-1.243-2.77-1.73.114.721.204 1.499.44 2.19.762 2.232 3.202 3.535 5.184 4.493 5.517 2.407 11.554 1.806 17.266.316 2.019-.527 3.948-1.267 5.987-1.738l-.979.941c-2.766 2.492-7.301 3.143-10.856 3.491-1.974.193-3.946.331-5.928.196-3.888-.265-9.276-1.767-11.858-4.855-1.463-1.749-2.69-5.08-2.466-7.357.101-1.037.515-1.892 1.337-2.536.44-.106.762-.178 1.189.061.742.415 1.418 1.531 1.963 2.187 1.006 1.208 2.122 2.267 3.512 3.021 5.024 2.724 12.091 1.956 17.339.377-1.981-1.633-4.184-3.012-6.11-4.707-1.39-1.225-2.525-2.655-3.812-3.977-2.257-2.32-4.542-4.551-6.587-7.072-4.552-5.613-8.206-12.385-11.16-18.963-9.798-21.823-13.041-45.851-11.194-69.623.723-9.316 2.264-18.448 4.294-27.561 2.216-9.95 4.975-19.772 8.624-29.3 2.616-6.829 5.677-13.774 9.069-20.257l8.505-14.872c2.339-3.897 4.627-7.878 7.283-11.568 3.593-4.993 7.69-9.8 11.83-14.344 4.033-4.429 8.182-8.71 12.712-12.634 3.352-2.903 6.706-6.075 10.521-8.353 1.195-.712 2.561-1.24 3.831-1.81"/><path fill="#141414" d="M145.941 33.6c.96-.182 2.201-.076 3.176-.026 2.186.114 4.333.352 6.466.862 9.395 2.249 18.147 8.786 23.179 17.052 4.232 6.95 5.966 15.273 3.959 23.253-1.577 6.271-5.822 12.073-11.411 15.335-4.033 2.354-8.534 3.109-13.123 3.382-3.953.235-7.842.063-11.704-.894-2.907-.72-5.579-2.08-8.441-2.814l-.439 1.144c-.544.192-1.227.02-1.802-.013a25 25 0 0 0-2.986-.006c-2.525.157-5.102 1.159-7.573 1.065l-.227-.012c-.728.635-1.349 1.85-1.899 2.66-1.242 1.827-2.474 3.707-3.857 5.428-2.686 3.341-5.977 6.027-9.146 8.884.774 3.15.888 6.462.467 9.673-2.062-1.44-3.129-3.504-4.517-5.528-1.434-2.09-3.159-3.955-5.5-5.029-1.617-.742-3.65-1.113-5.353-.396-1.47.619-2.465 1.778-2.988 3.266-.892 2.539-.456 5.605.727 7.981 1.33 2.671 3.442 5.041 6.346 5.985 1.789.582 3.919.822 5.737.215.582-.194 1.076-.541 1.633-.783.391-.17.575-.137.95.03.301.513.31.597.299 1.194-.264.484-.533.765-.988 1.082-1.511 1.057-3.07 1.231-4.84.939l-.246-.043c1.86 3.069 3.463 6.344 5.423 9.337 2.115 3.231 4.853 6.276 7.883 8.666 6.296 4.964 14.891 8.176 22.983 7.167 10.82-1.35 20.515-12.107 23.342-22.198.542-1.934.907-3.963 1.214-5.946.28-1.802.346-4.477 1.505-5.968l.249-.01.111.244c1.09 2.638-2.195 22.141-3.058 25.844a24 24 0 0 1-1.196 3.69c-1.97 4.752-6.323 8.784-11.063 10.727-.289.118-.475.191-.7.419.088.75.069 1.355-.146 2.082-.662 2.237-2.251 3.885-4.274 4.957-5.701 3.022-13.505 2.33-19.455.472-.217.224-.144.115-.282.395-1.031 2.087-2.604 3.623-4.961 4.099-1.422.287-3.137.017-4.581-.113-5.624-.506-11.268-1.542-16.72.556-4.927 1.896-7.414 8.025-9.427 12.527-3.976 8.897-6.186 18.221-7.846 27.779-2.422 13.948-3.27 27.929-1.827 42.041.727 7.103 1.942 14.322 4.52 21.011 2.875 7.463 8.06 14.151 15.194 17.924 2.569 1.359 5.262 2.28 7.906 3.453.042-.948-.146-1.921-.156-2.876-.035-3.115.834-6.308 2.363-9.018 1.016-1.8 2.353-3.468 3.581-5.13 3.534-4.784 7.533-9.506 11.779-13.677l8.131-7.261 2.649-2.253c.186-.153.663-.633.867-.701.074-.024.704.152.781.171 1.279.303 2.535.754 3.794 1.137a65 65 0 0 0 10.854 2.29c6.179.777 12.357.921 18.558.376 3.19-.28 6.496-.658 9.582-1.544 1.966-.564 3.833-1.321 5.491-2.543 3.683-2.715 5.369-7.024 7.116-11.077 1.234-2.867 2.549-5.682 4.074-8.408l-10.856.244c-7.779.008-15.471-.56-23.127-1.943-6.04-1.09-12.137-2.694-17.689-5.362-1.866-.896-4.053-1.887-5.536-3.368-.11-.384-.114-.43.001-.811.456-.172.784-.23 1.262-.086 1.497.451 2.943 1.543 4.362 2.225 2.096 1.009 4.331 1.768 6.537 2.5 12.684 4.21 25.916 5.142 39.198 4.835 3.479-.08 7.068-.077 10.514-.578 3.306-.48 6.589-1.406 9.766-2.419 2.329-.742 4.679-1.505 6.87-2.604-.837.029-1.725.285-2.557.413l-4.986.614c-6.523.685-13.902.85-20.366-.316-1.177-.212-2.649-.402-3.375-1.449-.263-1.225-.188-2.541-.177-3.79l.255-7.32 1.941-33.001.758-15.481c.116-1.19.305-3.31.903-4.312.467-.783 1.782-.987 2.603-1.203l-.008-3.782c.029-.848.256-1.585.925-2.156 1.925-1.642 6.048-1.489 8.469-1.564 4.734-.146 9.559-.159 14.281.224 8.677.704 16.72 2.6 22.608 9.533l.262-1.344c1.73-6.876 6.325-13.339 12.426-16.985 3.953-2.363 8.701-3.538 13.204-2.361-4.844 1.57-9.449 2.363-13.725 5.369-4.267 2.999-7.132 6.985-9.015 11.802-.512 1.308-1.094 2.779-1.233 4.184-.155 1.567.71 3.385.376 4.851-.09.393-.01.262-.329.472-1.054-1.219-1.534-2.907-2.642-4.163-6.522-7.391-15.398-8.921-24.745-9.411-2.957-.155-17.238-.633-18.917 1.21-.717.787-.3 3.066-.204 4.047 3.829-.23 7.895.158 11.732.365 5.977.324 11.952.304 17.793 1.818 5.099 1.322 11.163 4.496 13.864 9.209.592 1.034 1.315 2.625.967 3.821l-.096.33c-.001.111-.023.238.038.332.08.123.294.012.441.021.645.036 1.3.097 1.935.224 1.956.391 3.178 1.216 4.62 2.517l-5.526 32.181c2.738-1.351 5.883-3.677 8.908-4.149 1.231-.192 2.648.01 3.868.195 2.735.414 5.102.932 7.33 2.688 3.104 2.445 4.51 5.514 4.945 9.389 1.376-.476 2.685-1.047 3.766-2.045.121-.112.536-.443.594-.57.203-.44.226-1.511.309-2.025l1.313-8.875 6.045-50.524c.074-.985.244-2.122.115-3.099-.064-.48-.28-.905-.262-1.394.904-.175 1.683-.167 2.539.194.369.522.367.707.368 1.349.006 2.424-.47 5.039-.736 7.461l-1.468 13.891-.318 3.577.497.147c1.008.282 1.815.615 2.578 1.368 2.059 2.029 2.112 4.893 1.961 7.584-.032.576-.207 1.424-.109 1.979.096.542.529 1.172.736 1.695.3.762.38 1.435.378 2.241-.001.398-.201.448-.472.718.084.226.174.42.291.633l.127.227c.015 1.867-.208 3.228-1.441 4.689-.622.735-1.441 1.268-2.137 1.924-1.945 1.833-2.879 3.764-5.849 4.006-.459.037-.397 1.049-.449 1.494l-.778 6.185c-.29 2.119-.527 5.276-2.085 6.88-1.184 1.219-2.964 1.671-4.563 2.054-.25.06-.975.14-1.129.265-.131.106-.292 1.139-.356 1.377-.263.973-.66 1.924-1.037 2.857-1.156 2.863-2.788 5.367-4.644 7.822-6.019 7.963-12.51 15.136-20.162 21.577-1.493 1.257-3.157 2.251-4.652 3.479l8.234.549c7.048.596 14.105 1.49 20.985 3.162 2.669.648 5.408 1.325 7.927 2.437 2.951 1.303 5.67 3.115 8.214 5.087 1.375-.851 2.894-1.39 4.336-2.108 3.371-1.68 5.65-4.464 6.662-8.079.517-1.85.744-3.918 1.777-5.575.397-.636.729-.884 1.46-1.05.549.087.88.186 1.245.626 1.337 1.614 1.685 3.993 2.026 5.987.658 3.849 1.028 7.154.578 11.061l.28-.087c1.705-.55 3.315-1.543 4.807-2.526 6.801-4.477 10.906-11.175 14.457-18.345 3.202-6.464 5.484-13.437 7.244-20.417 1.716-6.804 2.965-13.638 3.444-20.648.217-3.183.13-6.415.131-9.605.001-4.287.041-8.605-.555-12.861-.453-3.234-1.277-6.311-2.316-9.397l2.068 3.181c1.556 2.761 2.373 5.921 2.836 9.037.608 4.098.458 8.415.424 12.554-.031 3.894.005 7.824-.416 11.697-.723 6.647-1.985 13.543-3.793 19.983-3.938 14.021-10.682 30.196-24.02 37.602-1.199.666-3.747 2.038-5.131 1.534-.638-.232-1.479-1.05-1.665-1.709-.273-.966.206-2.434.29-3.445.26-3.153-.68-6.097-1.932-8.942-1.43 3.273-2.9 6.09-5.137 8.908 1.021.577 1.919 1.1 2.632 2.067 2.467 3.349 3.16 7.935 2.568 11.97-.609 4.153-1.859 7.462-4.725 10.598l14.289.316c3.745.05 7.549-.105 11.232.688-.788.541-1.601 1.055-2.56 1.218-3.094.526-6.528.326-9.66.325-6.831-.001-13.786-.267-20.594.238-.872.065-1.572.569-2.306 1.009l16.334 1.21c-5.967 1.01-12.317.671-18.373.81l-23.541.938-49.143 2.956-13.642.279-33.499.08-23.999-1.481c-8.674-.71-17.371-2.035-25.92-3.646-3.606-.678-7.193-1.773-10.813-2.293-2.158-.311-4.343-.412-6.515-.583l-10.244-.673c-6.959-.267-13.89.36-20.825.866l-21.686 1.35-10.982.255-3.499-.263c-.936-.047-1.799.055-2.742-.071.94-.284 1.947-.382 2.908-.58 7.543-1.554 15.288-1.236 22.94-1.844l20.243-1.789 7.45-.656c-1.296-.591-2.554-1.199-3.68-2.081-4.96-3.878-7.717-10.275-11.556-15.164-2.101-2.676-4.879-4.591-6.507-7.65 8.602 3.179 11.599 13.129 17.325 19.371 3.983 4.341 9.25 4.976 14.8 5.601l10.887.798c-4.255-3.067-8.201-7.125-10.855-11.662-3.168-5.416-4.804-11.579-6.026-17.688-1.913-9.563-2.414-19.618-2.063-29.358.209-5.792.916-11.528 1.716-17.262 1.313-9.407 3.06-18.5 6.243-27.479 1.655-4.67 3.383-8.868 6.144-13.013-.796.389-1.527 1.094-2.232 1.642l-3.237 2.342c-6.38 4.356-13.544 6.886-21.328 6.413-7.204-.437-13.546-3.961-18.266-9.386-1.84-2.114-3.538-4.77-3.317-7.679.331-4.347 4.421-5.551 7.66-7.353a25 25 0 0 0 4.15-2.909c3.339-2.887 6.322-7.069 7.458-11.377.764-2.899.75-5.846.578-8.817-.546-9.369-3.788-18.098-5.43-27.256-.688-3.84-.943-7.846-.666-11.742.59-8.322 3.482-16.747 6.957-24.286 1.675-3.636 3.5-7.21 5.791-10.503 2.894-4.16 6.532-8.05 10.358-11.377 7.803-6.786 19.537-12.408 30.126-11.432 5.057.466 9.78 2.839 12.963 6.806l.188.237c.952-1.915 2.042-3.701 3.386-5.368 3.831-4.753 9.137-8.827 15.031-10.582 1.858-.553 3.715-.801 5.634-1.013"/><path fill="#fff" d="M274.582 203.12c1.011.093 2.06-.031 3.08-.013-.159.316-.858.538-1.197.697l-2.041.712-.249-.162c.054-.525.137-.779.407-1.234m-74.097 42.168c.478.531.199 2.725.197 3.586-.005 3.435.443 6.818 1.899 9.959.125.27.133.286.122.605l-.413-.074c-.438-.259-.814-.589-1.067-1.038-1.909-3.4-1.68-9.374-.738-13.038m80.023-53.457c.202.002.074-.01.374.091.015.658.13 1.584-.23 2.161-.997 1.596-2.959 1.814-4.65 2.111l-.386-.137c-.08-.745.15-1.508.3-2.236 1.708-.474 3.055-1.101 4.592-1.99m.32 5.147.259.062.11.27c-.162.801-.345 1.535-.853 2.195-1.214 1.581-3.19 1.722-5.007 1.923l-.392-.157c-.066-1.076.143-2.146.294-3.209 1.962.016 3.723-.55 5.589-1.084m-3.521-14.942c.917.121 1.521.515 2.089 1.245.962 1.237.96 3.301.731 4.789-.216 1.403-.638 2.194-1.787 3.028-.75.367-1.519.62-2.31.88.129-1.607.505-3.193.69-4.796l.258-3.288c.04-.638-.007-1.295.329-1.858M128.368 81.805c2.16 2.903 4.867 4.659 7.668 6.846-.811.288-2.622.027-3.541.015l-6.431 1.04c1.059-2.62 1.747-5.14 2.304-7.901m25.966-45.365c.244-.009.485.06.725.1 8.128 1.387 15.321 7.258 20.141 13.715 3.568 4.78 5.866 10.392 5.976 16.4.034 1.855-.239 3.649-.503 5.48l-.106.558-.19.064c-.342-1.668-.271-3.477-.416-5.18-.278-3.285-.962-6.546-2.086-9.644-2.862-7.884-9.195-14.43-16.536-18.355-1.271-.679-2.577-1.349-3.908-1.9-.921-.383-1.902-.65-2.798-1.087z"/><path fill="#fff" d="m198.193 236.083 2.262-.086c-2.54 7.122-3.441 15.576-1.377 22.887l-2.101-.215c-1.038-.366-1.765-.753-2.344-1.733-.698-1.182-.893-2.63-.979-3.977-.213-3.31.432-6.239 1.594-9.331.95-2.529 2.239-4.929 2.945-7.545m39.789-54.229c1.2-.041 4.014-.287 4.963.469.242.192.103.696.052.965l-2.059 12.487-1.851 10.316c-.494 2.826-1.043 5.636-1.045 8.511-.339.405-.934.657-1.388.92l-3.163 1.811-1.328.992.887-4.752c.156-.959.245-1.971.574-2.889.629-.249.81.816 1.371 1.045.381-.363.438-.564.56-1.055l-.228-.319-1.781.039 2.474-18.626.756-6.73c.082-.8.041-2.183.383-2.882.104-.211.597-.247.823-.302m12.326 29.709c2.391.245 4.479.534 6.685 1.538l-17.005 12.065-9.921 7.585c-7.516 5.257-15.699 8.615-24.327 11.572-1.298.38-2.685.907-4.031 1.033a6 6 0 0 1-.556-.544l-.162-.188-.361.093c.219-2.912 1.102-5.99 1.934-8.772.332-.29.982-.35 1.418-.454l2.873-.749c2.789-.787 5.621-1.73 8.289-2.865 6.283-2.673 11.623-7.525 17.222-11.374 3.323-2.284 6.897-4.149 10.477-5.992 2.455-1.265 4.677-2.606 7.465-2.948m-56.778-46.134 12.906-.094c5.912.043 12.544.114 18.165 2.104 5.267 1.864 10.673 5.848 13.126 10.938-1.078.649-2.505 1.754-2.765 3.078-.128.65-.092.868.26 1.411-.537 1.66-.626 3.583-.876 5.313l-1.584 11.833-1.674 12.654c-.306 2.218-.826 4.527-.861 6.766l-.001.224-3.381 2.435c-2.057 1.418-4.288 3.178-6.628 4.063-2.758 1.045-6.041 1.358-8.961 1.612-7.739.672-15.445.533-23.141-.577l2.955-61.654z"/><path fill="#141414" d="M197.067 170.581c.096-.036.253-.101.364-.117.527-.075 1.31.189 1.838.297 1.179.242 2.376.51 3.573.639 7.218.774 14.568.756 21.716 2.097 2.079.391 4.724.875 6.453 2.166l-.166.259c-3.512-.428-6.91-1.259-10.459-1.546l-9.131-.564c-3.846-.161-7.823-.3-11.572-1.23-.957-.238-2.403-.565-2.921-1.42z"/></g><defs><clipPath id="a"><path fill="#fff" d="M0 0h340v340H0z"/></clipPath></defs></svg>