<svg xmlns="http://www.w3.org/2000/svg" width="340" height="340" fill="none"><g clip-path="url(#a)"><path fill="#fff" d="M0 0h340v340.665H0z"/><path fill="#141414" d="M95.577 262.186c.586-.086 1.223-.141 1.76.155.288.159.224.266.283.56-.108.377-.22.578-.52.822-2.193 1.786-5.986 1.812-8.655 1.603-.519-.064-1.122-.093-1.609-.286-.449-.179-.467-.313-.667-.725l.14-.357c1.164-.557 3.046-.587 4.335-.793zm79.677-35.048.211-.073c.912-.258 2.283.59 3.065 1.046 2.699 1.574 5.193 3.541 7.669 5.439 1.694 1.299 3.744 2.705 5.039 4.401.361.472.585.938.725 1.515.098.404.085.386-.132.732a1.55 1.55 0 0 1-.685-.127c-2.34-.899-15.419-10.7-16.06-12.317-.11-.276.04-.377.168-.616m-.41-150.586c1.418-.136 2.947-.127 4.344.155 1.024.207 2.964.535 3.452 1.556.204.427.075.64-.066 1.052-.872.611-2.097.28-3.127.244a11.6 11.6 0 0 0-2.059.138c-1.095.16-2.133.572-3.162.963l-3.727 1.756c-.717.235-1.681.151-2.325-.257-.326-.206-.509-.425-.597-.808-.102-.444.068-.925.312-1.294 1.458-2.202 4.551-3 6.955-3.505m.191 130.792c.213-.069.388-.068.61-.076a5.9 5.9 0 0 1 1.704 1.153c2.924 2.814 5.49 6.012 8.341 8.908l5.957 5.884c.928.912 2.144 1.893 2.872 2.957.284.415.288.484.2.968-.277.136-.511.165-.812.216-1.096-.377-2.087-1.252-3.016-1.944-3.726-2.774-7.193-5.99-10.373-9.372-2.022-2.151-5.581-5.536-5.483-8.694m65.442-22.955.578-.075c.189.119.305.176.464.354.167.186.384.665.324.913-.188.772-.834 1.48-1.31 2.093-1.086 1.397-2.638 3.3-2.808 5.119-.459 4.916 6.11 7.19 8.592 10.48.425.563.418.893.299 1.568-.37.454-.419.587-.996.763-1.081-.379-2.123-1.269-3.054-1.94-2.304-1.661-4.952-3.319-6.34-5.889-1.071-1.982-1.15-4.258-.533-6.394.747-2.586 2.342-5.65 4.784-6.992m-80.336-92.153c.352-.042.24-.058.541.001.397.079.738.516.935.854 1.297 2.22 1.295 5.939 1.281 8.433-.006 1.182.009 2.428-.324 3.571-.282.966-.877 1.95-1.808 2.402-1.49.723-3.288.482-4.805-.029-4.131-1.39-5.993-5.492-7.85-9.056-.391-.521-.715-1.009-.987-1.602.029-.457.115-.738.408-1.087.379-.45.769-.56 1.342-.581.488-.02.696.04 1.028.444.536.653.785 1.614 1.085 2.396.747 1.951 1.819 3.886 3.353 5.325 1.238 1.162 2.72 1.982 4.454 1.926.541-.24.899-.413 1.13-1.01.708-1.834.587-7.311-.227-8.989-.253-.52-.505-1.05-.429-1.644.063-.493.208-.859.61-1.164zM79.194 232.96c.738-.107.98.286 1.45.805 2.195 2.436 3.629 5.357 5.187 8.209 1.187 2.172 2.476 4.439 4.053 6.353 1.433 1.74 3.18 3.137 4.95 4.513 1.533 1.194 3.173 2.445 4.9 3.34l.669.365c.419.31.591.71.703 1.2l-.316.499-.156.107c-.574.282-1.41.122-2.005-.013-5.801-1.32-11.039-7.904-14.016-12.711-1.292-2.085-5.97-10.303-5.419-12.667m170.548-124.921.5.015c.345.258.764.558.877 1 .232.908.076 2.191.1 3.144.028 1.117.366 2.206.774 3.238 1.512 3.827 4.065 6.23 7.028 8.948 1.036.951 2.18 1.955 2.93 3.157.994 1.593 1.198 3.603.703 5.391-.715 2.585-3.027 4.178-5.226 5.417-.374.147-.698.281-1.106.302-.367.019-.42-.178-.663-.421.003-1.419 2.187-2.496 3.071-3.603 1.144-1.435 1.734-3.249.859-4.97-.686-1.348-1.882-2.326-2.967-3.34-3.962-3.702-7.259-7.075-7.729-12.727-.151-1.82-.401-4.073.849-5.551m-48.651 161.349.368.076c.099.19.206.378.252.59.141.653-.31 1.453-.644 1.981-1.415 2.242-4.528 3.339-6.904 4.179-1.708.603-3.43 1.173-5.197 1.574-6.86 1.559-13.683-.46-19.518-4.152-.355-.301-.819-.686-.913-1.17-.112-.577-.003-.839.303-1.309 1.319-.214 5.6 2.046 7.154 2.556 2.142.704 4.348 1.134 6.582 1.414 6.261.782 13.603-1.902 18.517-5.739m-53.767-194.46c3.36-.131 8.927-.04 11.63 2.192.246.203.559.561.589.883.071.751-.043 1.223-.542 1.802-.237.275-.954.973-1.296 1.053-.108.026-.734-.2-.866-.236a19.4 19.4 0 0 0-2.783-.556 50 50 0 0 0-8.816-.245c-3.228.016-6.404.72-9.558 1.313-.682.128-1.307.167-1.889-.254-.427-.31-.649-.724-.697-1.249-.058-.628.092-1.135.521-1.602 1.03-1.118 2.588-1.683 4.024-2.041 3.129-.782 6.47-.911 9.683-1.06m-8.716 108.13c.356-.074.426-.015.762.087 1.335 1.298 2.523 2.803 3.282 4.512.95 2.136 1.244 4.434 1.568 6.728.513 3.624.835 7.324.989 10.98.099 2.336.472 6.382-1.19 8.185-.449.03-.601.075-.997-.126-.284-.711-.122-1.717-.108-2.48l-.025-3.866a120 120 0 0 0-1.488-15.228c-.18-.895-.692-2.536-1.475-3.095-.544 3.395-.328 6.979-.288 10.415.032 2.811.754 11.562-.989 13.503-.299.333-.402.533-.856.554l-.081-.143c-.302-.676-.238-1.525-.216-2.249l.099-3.836c-.063-6.641-.548-13.164.234-19.791.165-1.389.237-2.851.779-4.15m-14.804 52.896.461-.096c.371.284.564.392.716.857.439 1.339-.282 3.576-.866 4.833-.742 1.596-1.783 3.114-2.933 4.439-2.965 3.417-6.549 6.455-9.873 9.521-4.262 3.928-8.488 8.164-13.21 11.532-1.391.992-2.77 2.01-4.383 2.605-.604.037-.61.017-1.111-.328l-.057-.427c1.374-2.009 3.645-3.825 5.436-5.505l13.195-11.809c2.058-1.843 4.221-3.655 6.132-5.652 1.85-1.934 3.088-4.06 4.37-6.393.634-1.154 1.195-2.408 2.014-3.444zm119.03-15.311c.535-.044 1.022-.019 1.458.286-.039.559-.381 1.002-.651 1.477-1.287 2.265-1.212 4.025-.547 6.443-9.851.182-19.923-.738-29.636-2.362-1.267-.288-2.624-.467-3.839-.935-.539-.208-.833-.372-1.062-.909.133-.383.243-.703.531-1.002 2.776-2.877 28.387-2.814 33.746-2.998"/><path fill="#141414" d="M241.874 116.022c.808-.124 1.34.232 1.986.688 2.976 2.107 5.851 5.995 6.409 9.651.924 6.047-3.804 9.123-6.955 13.359-.789 1.061-1.606 2.307-1.958 3.594-1.565 5.733 3.46 10.276 7.206 13.787 2.692 2.524 5.659 5.092 7.965 7.985 1.671 2.096 3.064 4.734 3.444 7.415.585 4.12-.23 7.666-2.841 10.949-1.994 2.508-4.421 4.636-6.111 7.395-.651 1.062-1.269 2.273-1.335 3.538-.183 3.566 3.578 6.34 5.529 8.903 1.49 1.955 2.674 4.893 2.59 7.382-.141 4.18-4.873 8.072-7.595 10.771.364.18 1.149.067 1.577.07l4.543.042c4.337.074 21.349.577 24.037 2.861.332.282.441.371.487.795-.964 1.153-3.104 1.343-4.533 1.654l-5.133.768c-3.237.336-22.346 1.89-24.32.479-.621-.443-.911-1.113-.985-1.855-.49-4.924 4.437-8.27 7.117-11.729 1.239-1.598 2.211-3.41 1.917-5.494l-.041-.272c-.785-5.339-7.503-7.644-8.111-13.069-.972-8.653 10.968-12.499 10.616-21.408-.229-5.819-5.896-10.433-9.812-14.107-3.74-3.509-9.218-8.196-9.352-13.763-.079-3.243.8-5.992 2.848-8.51.989-1.216 2.178-2.291 3.247-3.439 3.267-3.512 4.661-7.375 1.647-11.619-.8-1.126-1.829-2.084-2.804-3.056-.654-.652-2.067-1.783-1.93-2.849.066-.515.276-.603.651-.916M75.8 172.701c.416-.016.934-.075 1.335.042.474.139.923.803 1.141 1.224l-.537-.218c-1.489.196-12.114 8.628-13.783 10.072-4.056 3.511-7.89 7.339-11.123 11.635-7.871 10.461-12.303 23.573-13.221 36.601-.343 4.868-.031 9.746.639 14.57.982 7.075 2.781 13.93 5.773 20.429 3.232 7.021 8.016 13.719 13.096 19.512 8.853 10.095 19.437 18.225 32.246 22.511 2.844.951 5.752 1.893 8.767 2.062 1.51.085 3.211.194 4.707-.026 1.949-.287 3.855-.98 5.727-1.576 9.973-3.175 20.094-8.357 27.927-15.386 2.133-1.914 4.262-3.905 6.208-6.009 3.485-3.77 6.621-7.869 9.876-11.836 2.883-3.516 6.192-7.045 8.522-10.946.4-.671.918-1.687.907-2.489-.015-1.049-.458-2.323-.83-3.298-1.545-4.056-4.369-7.147-7.333-10.206-.118-.539-.012-.927.219-1.438.192-.427.41-.548.822-.721 1.086.424 1.86 1.118 2.727 1.874a23.9 23.9 0 0 1 6.396 10.558c.833 2.899.584 5.306-.886 7.949-.938 1.686-2.243 3.196-3.423 4.717l-5.029 6.434c-5.23 6.565-10.688 13.245-17.153 18.636-4.823 4.022-10.209 7.262-15.835 10.014-4.205 2.057-8.652 3.963-13.158 5.249-3.2.914-6.693 1.715-10.038 1.667-3.598-.052-7.083-1.108-10.45-2.29-4.334-1.523-8.584-3.389-12.59-5.648-2.31-1.302-4.473-2.892-6.622-4.444-14.504-10.471-26.38-25.74-31.237-43.089-5.441-19.436-4.255-40.033 5.796-57.814 4.093-7.242 9.722-13.606 15.987-19.031 2.3-1.992 4.63-3.916 7.173-5.59 2.304-1.517 4.583-2.955 7.257-3.701"/><path fill="#141414" d="M177.009 93.4c.659-.15.967-.071 1.541.255.37.613.235 1.177.213 1.884-.071 2.252-.413 4.557-.84 6.767-.39 2.02-1.091 3.578-2.845 4.731l-.136.086c.673 1.347 1.775 2.404 2.797 3.488 2.516 2.67 5.737 5.77 6.124 9.63.132 1.318-.316 2.586-1.162 3.592-2.232 2.653-6.35 2.806-9.55 3.062 1.096 2.897.937 6.168.259 9.141-1.853 8.121-7.776 15.196-15.506 18.328-2.625 1.064-5.942 1.632-8.316 3.12l1.632 1.437c2.46 2.452 4.277 6.716 4.265 10.203-.011 3.517-1.646 6.418-4.528 8.394-.696.477-1.622.836-2.212 1.42.601 1.927.913 3.86 1.219 5.849.977-.45 2-.86 3.077-.974 3.862-.409 7.693 1.039 10.624 3.525 5.887 4.994 8.404 14.454 8.962 21.863.364 4.835.399 9.72-.582 14.487-.223 1.086-.35 2.25-1.091 3.117-.501.131-.48.174-.92-.084-.476-1.711.059-4.282.11-6.082l.019-8.417c-.268-7.608-2.16-17.234-7.96-22.586-2.012-1.857-5.435-3.584-8.209-3.391-.526.036-1.05.063-1.395.472l4.094 3.3c1.283 1.173 3.115 2.667 3.197 4.518-.209.414-.36.529-.763.75-.44.006-.716-.024-1.096-.261-1.295-.806-2.491-2.119-3.682-3.096-1.351-1.106-2.843-2.047-4.114-3.243l-.179-.17c-.002 2.879.194 5.722.704 8.557 1.076 5.984 3.107 11.65 2.188 17.82-.057.381.369.903.56 1.242l1.565 2.955c.443.917.821 1.871 1.141 2.838.797 2.413 1.258 5.338.865 7.866-.367 2.36-1.495 4.734-2.991 6.585-1.296 1.604-2.873 2.931-4.123 4.59-2.185 2.899-3.945 6.74-4.782 10.28 3.42.393 6.651-.624 9.838-1.728 1.992 2.987 4.71 5.204 6.298 8.518.406.848.828 1.826.901 2.771.046.602.055 1.184-.368 1.656-.23.256-.558.344-.892.365-2.127.13-4.383-.351-6.399-1.005-6.126-1.988-11.391-6.117-16.201-10.308-2.412-2.101-4.52-4.482-6.793-6.725-1.474-1.455-3.396-2.971-4.632-4.612-.224-.297-.255-.535-.28-.899.227-.638.383-.92.923-1.335.604-.051.867-.083 1.417.244.615.366 1.186.979 1.721 1.463 1.546 1.401 2.896 2.924 4.312 4.45 2.191 2.361 4.378 4.692 6.854 6.757 1.577-2.646 2.205-5.719 3.782-8.347.41-.684.883-1.266 1.431-1.844.322-.34.84-.691.909-1.155-.48-.196-.606-.224-.931-.649-.011-.282-.085-.602.048-.862.424-.829 1.621-1.378 2.382-1.844 1.119-.686 2.318-1.455 3.146-2.49 1.592-1.987 2.185-4.634 2.009-7.139-.19-2.722-1.161-5.076-2.483-7.429-.603-1.073-1.421-2.261-1.622-3.486-.114-.694.234-.754.401-1.285.072-.232-.06-.99-.077-1.263l-.291-3.897c-.528-4.975-2.147-9.739-2.671-14.733-.521-4.977.064-10.051-.485-15.006l-2.41.271c-3.167.337-6.484.179-9.649-.087-7.209-.607-14.263-2.437-20.919-5.267-6.27-2.666-12.182-6.211-17.968-9.788-6.146-3.799-12.02-7.697-17.64-12.253-1.434 2.113-4.638 5.335-4.283 8.093.43 3.348 6.204 8.06 8.762 10.182 7.688 5.918 16.284 10.364 25.032 14.472 5.198 2.441 10.56 4.856 16 6.694 3.346 1.13 6.804 1.913 10.222 2.789.286 1.316.076 3.066.133 4.449l.49 7.735c.096 1.822.113 5.045-1.142 6.435-.097-.052-.218-.075-.292-.157-.244-.272-.343-1.122-.404-1.494l-.76-3.736c-.543-2.147-1.432-3.91-2.247-5.944-.508-1.266-.871-2.597-1.29-3.896-.398 1.514-.033 3.467.073 5.022.179 2.633.25 5.45 1.028 7.987.566 1.844 1.593 3.583 2.442 5.31 1.634 3.329 3.002 6.657 3.655 10.319.658 3.69.407 8.425-1.875 11.563-.411.565-.787.993-1.492 1.11-.425-.094-.678-.127-1.006-.434.233-1.118.695-2.154 1.079-3.224 2.864-7.989-1.447-15.185-5.311-21.958-.66-1.157-1.552-2.262-2.108-3.453.153-.563.306-.673.706-1.08.359-.075.67-.125.996-.303l-.537-10.244-3.332-.8c-5.211-1.45-10.321-3.611-15.187-5.958-4.23-2.04-8.401-4.238-12.32-6.836-4.252-2.819-8.191-5.958-12.116-9.211a75 75 0 0 1-6.747-6.346c-1.528-1.619-3.08-3.343-4.168-5.297-.992-1.781-1.41-3.667-.806-5.656.996-3.285 3.068-5.523 6.041-7.153l.502-.273c1.017-.429 2.419.076 3.347.52 4.95 2.366 9.547 5.763 14.212 8.651 6.25 3.87 12.967 7.023 19.878 9.511a80.7 80.7 0 0 0 21.197 4.525c3.985.3 8.677.3 12.343-1.485 1.385-.675 2.605-1.681 3.063-3.211.192-.642.063-1.374-.07-2.02-.582-2.834-2.083-5.363-3.439-7.876l-.537.289c-1.582.885-2.998 1.256-4.801 1.416-2.194.195-4.523-.03-6.681-.435-.534-.1-1.213-.166-1.611-.571-.189-.192-.166-.427-.173-.677-.043-1.521 1.531-2.788 2.501-3.766-5.271-1.454-10.035-3.448-14.8-6.133l-7.833-4.791c-1.144-.677-3.481-1.523-4.231-2.573.09-.221.179-.387.36-.547.797-.709 1.346-.471 2.248-.129 3.141 1.186 6.111 2.92 9.037 4.555 4.535 2.532 9.22 4.946 14.286 6.229 2.531.641 5.095.935 7.695 1.098 6.624.415 13.574-1.628 18.574-6.124 4.107-3.692 6.508-8.177 7.731-13.539.243-1.069.579-2.235.641-3.329-.537.413-1.078.84-1.677 1.157-2.786 1.47-6.197 1.166-9.102.225-2.011-.652-5.16-1.941-6.123-3.985-.894-1.898-.289-4.227 1.075-5.742.704-.781 1.706-1.494 2.025-2.529.164-.534.256-.725.662-1.109.468-.166.533-.169 1.019-.063.56.437.79.841 1.094 1.468.187.386.629.452 1.025.594 3.257 1.168 7.069 1.731 10.512 1.978 2.642.189 5.346.29 7.782-.916.515-.255.969-.514 1.162-1.083.042-2.281-1.798-4.194-3.177-5.852l-3.496-4.257c-1.371-1.785-2.639-3.707-3.698-5.695-1.037-1.948-2.004-3.976-2.692-6.075-.233-.709-.539-1.5-.317-2.237.265-.201.46-.312.79-.347.526-.055 1.054.125 1.384.552.402.521.603 1.405.84 2.026.633 1.652 1.607 4.251 2.963 5.419.236-.042.419-.033.612-.183 2.324-1.792 1.623-6.955 2.102-9.55.11-.595.222-.676.725-.998m25.362 131.576c.554.026 1.207.416 1.739.623l3.103 1.065c2.771.805 5.668 1.391 8.531 1.776 14.701 1.98 29.367 2.027 44.172 1.58 6.65-.201 13.423-.721 20.017-1.63 1.325-.183 6.678-1.516 7.639-1.123.26.106.295.417.394.659-.049 1.067-.737 2.243-1.187 3.206l.677.763c.338.367.675.654.799 1.16.119.487.079.995-.203 1.416-.413.617-.5.829-.488 1.566l.224.179c3.105-1.475 6.525-2.125 9.951-1.809 4.953.457 9.865 3.006 13.053 6.825 4.434 5.315 5.44 12.291 4.821 19.001-.736 7.985-4.156 15.103-10.356 20.233-7.515 6.219-16.804 7.34-26.182 6.475-2.055 3.909-4.241 7.524-6.893 11.059l-2.772 3.386c3.789.141 7.427.383 10.961 1.929 1.668.73 3.876 2.156 4.467 3.979.25.77-.011 1.772-.425 2.432-2.012 3.211-7.597 4.644-11.039 5.418-5.088 1.143-10.351 1.658-15.548 1.966-8.99.532-17.914.234-26.86-.78-7.212-.817-15.665-1.996-21.87-5.97-1.068-.685-2.687-1.847-2.896-3.18-.167-1.065.011-1.996.686-2.84 2.567-3.206 7.423-3.822 11.234-4.313-2.429-1.865-4.59-5.082-6.224-7.668-2.925-4.627-5.145-10.019-6.693-15.256l-1.753-6.85c-1.215-4.385-2.668-8.698-3.651-13.148-1.123-5.088-1.466-10.347-1.427-15.55.026-3.467.169-6.986.955-10.376.444-1.918 1.292-5.114 3.044-6.203"/><path fill="#fff" d="M219.525 301.825c.676-.024 1.298.593 1.811.977l3.409 2.455c4.028 2.714 8.788 5.035 13.611 5.787 7.792 1.215 15.602.389 22.665-3.26 2.41-1.246 4.595-2.796 6.777-4.395 4.114.396 8.564.754 12.25 2.808.693.386 1.228.833 1.453 1.616-.73 1.428-4.357 2.377-5.883 2.939-7.455 2.36-15.091 3.033-22.859 3.38-8.356.372-16.575-.11-24.835-1.453-5.049-.82-10.058-1.871-14.715-4.056-1.693-.794-3.214-1.541-4.603-2.813 2.871-2.423 7.336-3.17 10.919-3.985m71.756-61.585c1.663-.186 3.444-.131 5.063.308 4.719 1.279 9.149 4.483 11.545 8.796 2.6 4.679 2.664 10.2 1.217 15.256-2.079 7.265-6.896 12.213-13.363 15.789-5.084 2.58-10.05 3.299-15.691 3.323.846-1.73 1.365-3.644 1.9-5.488l2.566-10.801c1.144-5.616 2.293-11.199 2.865-16.91.31-3.089.367-6.254.34-9.355.778-.599 2.592-.752 3.558-.918"/><path fill="#141414" d="M107.832 17.37c2.253-.198 4.634-.062 6.888.082 4.569.292 9.257.908 13.594 2.441 1.581.559 3.136 1.242 4.665 1.932.316.143 1.263.72 1.57.735.587.028 1.649-.467 2.314-.562a48 48 0 0 1 7.131-.495c8.246.078 16.598 1.336 24.68 2.906 6.137 1.193 12.37 2.558 18.186 4.91 7.367 2.98 14.172 8.848 17.277 16.281 2.591 6.205 2.85 13.28.242 19.518-1.609 3.85-4.697 7.036-8.566 8.6-3.986 1.613-8.189 1.911-12.439 1.95-3.379.032-6.875-.039-10.225-.51-5.963-.84-11.839-2.676-17.424-4.9-4.383-1.744-8.617-3.694-12.672-6.119l-11.345-7.368c-3.09-2.064-6.208-4.205-9.646-5.65 1.398 1.977 2.822 3.978 3.518 6.328 1.689 5.697-1.259 12.514-3.039 17.871-1.206 3.627-2.394 7.382-2.676 11.214l-.02.296c-.181 2.41.749 5.26 1.161 7.651.345 2.006.429 3.993.347 6.024-.124.733-.267 1.509-.595 2.181-1.427 2.918-7.419 3.203-10.184 3.102-.929-.034-2.308-.503-3.139-.245-.012.588-.016 1.03-.272 1.566-.354.127-.529.188-.917.136-1.301-.175-3.098-4.458-3.883-5.638-2.051-3.082-5.47-6.177-9.206-6.898-1.906-.368-4.043-.22-5.666.945-2.112 1.514-3.214 4.353-3.635 6.84l-.05.304c-.451 2.603-.078 5.315.932 7.745 2.613 6.29 8.296 8.649 14.721 9.003 1.275.071 3.542-.081 4.658.468.435.216.686.376.827.833-1.792 1.544-5.51 1.207-7.805 1.265.587 1.229.908 2.259.412 3.585-.683 1.826-2.896 3.678-4.62 4.465-2.182.995-4.604 1.09-6.851.202-1.595-.63-2.974-1.548-4.107-2.84-2.394-2.729-3.568-6.33-5.535-9.352-1.502-2.306-3.422-4.378-5.134-6.531-3.269-4.111-5.89-8.357-7.975-13.183-3.687-8.534-5.733-16.987-5.726-26.31.003-4.745.564-9.538 2.332-13.968 1.578-3.957 4.087-7.161 7.018-10.196 1.349-1.395 2.699-2.812 4.512-3.576.394-.166.83-2.393.976-2.932 1.297-4.788 3.457-8.763 6.771-12.468 2.367-2.647 5.18-5.016 8.286-6.745 6.143-3.418 13.41-4.484 20.334-4.892"/><path fill="#fff" d="M184.505 31.722c5.388 1.52 10.503 5.673 13.893 10.043 3.556 4.583 5.656 10.986 4.871 16.795l-.046.325c-.195 1.482-.575 2.955-1.182 4.324-1.886 4.25-5.544 7.269-9.838 8.886-.92.323-1.825.665-2.784.854 2.414-1.48 4.897-2.632 6.868-4.738 3.002-3.209 4.394-8.347 4.186-12.655-.385-8.008-4.113-14.417-10.212-19.484-1.866-1.55-3.953-2.711-5.756-4.35"/></g><defs><clipPath id="a"><path fill="#fff" d="M0 0h340v340H0z"/></clipPath></defs></svg>