<svg xmlns="http://www.w3.org/2000/svg" width="150" height="150" fill="none"><g clip-path="url(#a)"><path fill="#fff" d="M0 0h150v150H0z"/><path fill="#141414" d="M75.768 9.045c.24-.02.38-.015.587.122.714.475 1.176 1.645 1.332 2.454.09.46.191.983-.087 1.393-.138.087-.209.098-.366.126-.056-.047-.122-.083-.168-.14-.205-.258-.303-.931-.425-1.258-.305-.816-.962-1.694-1.071-2.55zm21.457 9.435.116-.013c.212.008.333.13.45.283l-.04.256c-.556.661-1.948.867-2.747 1.119l-1.523.55-.07-.005c-.294-.037-.364-.119-.53-.345 0-.198-.027-.266.094-.422.803-1.04 3.054-1.264 4.25-1.422m-6.4-6.799h.23c.185.118.191.125.27.33a.7.7 0 0 1-.127.313c-.306.403-.677.757-1 1.146-.567.68-1.177 1.765-2.124 1.912-.276-.032-.363-.127-.529-.332.02-.221.1-.37.218-.558.278-.442.635-.845.977-1.24.586-.678 1.17-1.372 2.085-1.57m-23.44 7.909.056-.015c.354-.072.724-.004 1.077.05.938.143 2.354.43 3.136.991.233.167.344.309.383.585-.201.207-.234.224-.516.285l-2.014-.348c-.741-.116-2.172-.096-2.71-.669l.014-.33c.17-.25.314-.392.574-.549m-2.1-6.884c.267-.067.538.01.786.114.569.24 1.118.56 1.66.853 1.067.576 2.077 1.043 2.556 2.222-.028.252-.047.248-.23.426-.157.021-.283.036-.43-.027-.457-.194-.935-.567-1.367-.826-.969-.58-2.224-1.15-3.04-1.927a.9.9 0 0 1-.218-.349c.05-.292.077-.295.283-.487m32.71 120.704c.15-.03.223-.009.37.022.1.093.16.116.192.253.104.444-.04 1.144-.112 1.592-.248 1.533-.607 3.015-1.165 4.468-.232.603-.455 1.18-.816 1.721-.13.101-.175.098-.334.118-.076-.047-.15-.059-.166-.156-.03-.182.056-.399.104-.577l.428-1.481.646-2.317.47-2.253c.083-.444.127-1.015.383-1.39M82.608 8.313c.17-.03.314-.05.486.004.175.054.323.17.404.335.236.475-.689 4.957-.918 5.584l-.112.102c-.249.015-.314.026-.547-.085-.34-.547-.133-1.721-.093-2.351.028-.441.021-.91.099-1.345.048-.269.167-.521.214-.79.048-.268.013-.544.06-.814.054-.31.15-.458.407-.64m3.55 79.287c.286-.006.494-.03.724.144l-.012.183c-.155.3-.36.495-.6.727-.455.439-.928.859-1.35 1.33l-2.537 2.979a1.7 1.7 0 0 1-.388.301c-.261.059-.265.081-.513-.054-.065-.103-.189-.228-.16-.353.062-.272.378-.594.546-.818 1.017-1.35 2.251-2.774 3.511-3.904a4 4 0 0 1 .78-.536M69.633 6.775l.1-.024c.233-.035.442-.018.616.152.242.237.455.619.605.919.807 1.612 1.34 3.439 2.234 4.993.165.287.514.676.53 1.008l-.22.166c-.151.035-.249.02-.402.004-.327-.223-.555-.512-.771-.838-.89-1.347-1.563-2.958-2.253-4.42-.187-.395-.56-.982-.627-1.41-.04-.255.04-.359.188-.55M13.332 116.711l.081-.003c-.057.107-.023.06-.119.158-.634.646-.934 1.365-1.347 2.151-1.143 2.171-2.014 4.213-2.363 6.66-.068.473-.113.957-.132 1.435-.019.465.076.912-.26 1.288-.23.101-.342.094-.586.043l-.093-.125c-.142-1.149 0-2.333.201-3.468.254-1.431.705-2.825 1.284-4.156.299-.687.623-1.415 1.094-2.005.611-.766 1.441-1.418 2.24-1.978m90.962-34.643.188-.042c.182.059.237.13.352.278.067.224.045.363-.052.57-.641 1.375-1.584 2.67-2.338 3.99l-2.027 3.604c-.328.574-.645 1.232-1.056 1.746-.171.213-.383.306-.633.4l-.061.014a.5.5 0 0 1-.408-.13c-.11-.09-.084-.119-.1-.25.733-.937 1.25-1.991 1.838-3.02l2.899-5.004c.423-.704.84-1.554 1.398-2.156m-18.882-38.02c.96-.049 2.006.018 2.92.342.275.097.528.202.657.471a.74.74 0 0 1-.23.282c-.628.5-1.705.223-2.45.15-1.358-.13-2.478.464-3.494 1.3-.26.234-.503.493-.698.784-.206.306-.376.679-.672.905-.166-.013-.196.006-.338-.101-.194-.146-.284-.34-.313-.577-.085-.685.249-1.353.671-1.871.945-1.16 2.526-1.543 3.947-1.685M90.987 62c.127-.022.257-.05.387-.034.202.025.437.141.535.329.134.256.094.656.033.927-.356 1.574-1.576 3.71-2.98 4.553-.297.178-.718.377-1.069.249a.85.85 0 0 1-.453-.421c.22-.368 1.014-.645 1.383-.947.922-.755 1.512-1.721 2.042-2.772l.124-.456-.059-.096-.547.792c-1.054 1.408-2.492 1.967-4.19 2.18-.24.031-.432.012-.62-.15-.186-.16-.22-.34-.244-.566.062-.149.114-.263.298-.297.194-.036.516.04.726.04.603.003 1.358-.268 1.894-.54a4.8 4.8 0 0 0 1.67-1.41c.315-.423.609-1.127 1.07-1.381m-9.471-11.207c.17-.05.248-.096.405.024.21.16.455.704.602.936.644 1.02 1.64 2.097 2.776 2.555.494-.171.942-.577 1.358-.89a7.6 7.6 0 0 1 1.417-.857c.157-.072 1.026-.32 1.077-.392.154-.212.123-.609.293-.863a.7.7 0 0 1 .349-.015.63.63 0 0 1 .435.309c.272.474.053.996-.07 1.485-.208.803-.532 1.758-1.12 2.37-.358.375-.832.468-1.33.474-1.717.02-3.483-.91-4.688-2.083-.635-.618-1.127-1.151-1.52-1.951-.103-.21-.25-.467-.239-.708.01-.203.12-.261.255-.394"/><path fill="#fff" d="m89.085 53.064.096.073c-.172.575-.377 1.238-.872 1.618-.512.393-1.204.239-1.792.14l-.238-.058-.06-.116c.892-.676 1.807-1.286 2.866-1.657"/><path fill="#141414" d="M78.49 52.32q.419-.035.835.033c.44.071.78.241 1.033.616.136.2.18.4.126.63-.493.044-.912-.601-1.449-.58l-.08.006c-.43.033-.874.252-1.273.41-1.1.436-2.071.888-3.042 1.576l.122.528c.32 1.256 1.174 3.228 2.344 3.884.548.307 1.345.506 1.959.343.406-.385.525-.864.698-1.381-.68-.01-1.66.089-2.175-.414-.035-.207-.09-.388.012-.585.245-.073.507.048.756.103a18 18 0 0 0 1.528.282l.806-3.203c.12-.443.223-.995.461-1.39.144-.236.37-.443.565-.638l.026.45c.043.818-.212 1.602-.39 2.393-.436 1.93-.89 3.8-1.609 5.65l-.847 1.992a.85.85 0 0 0 .39.25c.444.148 1.044.153 1.511.137 1.32-.045 2.698-.357 3.788-1.142.355-.255.585-.697.962-.9.286.038.286.065.476.263.042.154.062.205-.001.361-.323.802-1.608 1.361-2.38 1.648-1.409.522-3.734.862-5.104.19-.188-.091-.358-.236-.42-.442-.236-.77.652-2.073.992-2.734-.67.036-1.377.018-2-.254-2.013-.882-2.9-3.895-3.58-5.8-.066-.185-.073-.269.019-.44.137-.099.54-.385.719-.34.017.004.206.117.22.118.078.011 1.343-.776 1.515-.865.809-.418 1.584-.636 2.486-.754m26.43 57.213.051.007c.558.225.674 1.49.79 2.007.115.505.253 1.018.443 1.501.651 1.66 2.271 3.037 4.102 3.117.628.027 2.427-.266 2.888-.027.134.07.11.078.157.206a.9.9 0 0 1-.326.254c-.461.191-1.063.206-1.554.241-.523.039-1.087.126-1.607.124-.47-.001-.959-.134-1.428-.184-.831-.089-1.673-.101-2.5-.235-.795-.129-1.555-.445-2.34-.628-2.779-.646-5.59-1.145-8.24-2.246-1.316-.613-2.578-1.369-3.92-1.917-.798-.325-2.08-.499-2.702-1.069-.086-.223-.12-.234-.037-.454 1.133-.733 5.226 1.616 6.454 2.168.82.369 1.66.676 2.53.913 2.648.72 5.33 1.058 8.068 1.119-.517-1.376-1.009-2.788-1.031-4.275-.004-.306-.011-.399.202-.622m-87.364 29.663c.39-.055.81.042 1.195.109l2.078.404 3.897.725 7.557 1.115 10.043 1.219 11.053 1.011 5.325.257 3.445.089c.519.032 1.3.081 1.661.491-.126.184-.275.178-.486.238-1.821.188-3.672.077-5.498.017l-12.552-.915-12.996-1.515c-4.41-.567-8.802-1.163-13.144-2.138-.528-.119-1.727-.31-2.024-.778.14-.218.215-.226.446-.329m-6.495-4.322c.451-.135 1.127.036 1.586.112l3.143.579 5.863 1.012 8.914 1.236 15.848 1.853 6.87.594 20.123 1.646 6.996.285 1.984.049c.342.009.843-.026 1.151.134.157.082.154.143.2.301-.117.249-.186.273-.411.42-1.283.111-2.613-.012-3.899-.056l-7.346-.315-20.886-1.678-21.276-2.314c-2.183-.301-18.575-2.562-19.268-3.478.124-.191.22-.262.407-.38"/><path fill="#141414" d="M89.476 89.016c.439-.059 1.095-.11 1.509.06.278.115.41.229.521.5l-.1.219c-.288.232-.731.285-1.085.373l.634.538c.488.46.764 1.018.776 1.699.02 1.183-.555 2.325-1.382 3.153-.463.461-1.06.812-1.734.786-.753-.03-1.844-.632-2.352-1.19-.383-.42-.939-.555-1.329-1.018-.2-.237-.252-.451-.23-.753.338-.006.813.322 1.144.47 1.178-.142 1.409-.971 2.026-1.817.32-.438.682-.853 1.034-1.266-.607-.347-1.139-.41-1.817-.432-1.1.55-1.857 2.075-2.533 3.042-1.21 1.731-2.348 3.472-3.367 5.327-1.486 2.704-3.331 5.891-2.381 9.069.19.634.752 2.052 1.389 2.329.282.122 1.19-.643 1.49-.79 1.26-.619 2.728-.464 4.018-.013 2.07.725 3.193 2.26 4.126 4.171l.479 1.19c.599 1.749.53 3.497.583 5.308.022.752.026 1.361-.112 2.112-.041.219-.089.518-.21.708-.116.182-.25.216-.448.253-.653-.515-.338-2.594-.345-3.349a11 11 0 0 0-.135-1.558c-.25-1.696-.988-3.587-2.165-4.859-.964-1.042-2.385-1.878-3.673-2.446-.59-.261-1.169-.499-1.824-.522-.387.514-.768 1.259-.83 1.913-.029.29.047.696-.082.956-.054.108-.173.126-.285.14-.274.033-.373-.08-.55-.253-.239-.903.109-1.757.399-2.6-.413-.009-.957-.01-1.31-.252-.922-.633-1.488-2.37-1.651-3.431-.45-2.909 1.363-6.009 2.731-8.452a68 68 0 0 1 4.596-7.125c.359-.486.749-.97 1.253-1.314.872-.593 2.198-.724 3.222-.876"/><path fill="#fff" d="M89.528 91.077c.147-.034.098-.044.23-.005.553.163.935.822 1.17 1.311-.266 1.023-.7 2.242-1.598 2.88-.382.27-.74.29-1.186.206l-1.655-.86c1.558-.765 2.148-2.131 3.04-3.532"/><path fill="#141414" d="m100.646 50.794-.099.035c-.418 1.044-1.483 4.341-2.535 4.857-.21.103-.53.09-.75.009-.172-.065-.251-.18-.35-.324l.012-.196c.327-.255.685-.473.85-.866-.023-.677-.289-1.428-.488-2.079a50 50 0 0 0-2.572-6.595c-.166-.351-.406-1.038-.69-1.282-.129-.111-.452-.175-.616-.23l-1.74-.601c-3.444-1.302-6.757-3.7-8.74-6.823l-2.095 3.85c-1.645 2.93-3.438 5.608-5.665 8.127 1.103-.258 2.187-.273 3.19.334.33.2.698.49.788.884.039.166.002.227-.04.387-.227.22-.282.203-.598.2-.807-.006-1.556-.158-2.364.03-1.19.279-2.134 1.139-3.223 1.64-2.423 1.115-5.708-1.152-7.315-2.842-1.7-1.787-2.735-4.175-2.667-6.658.081-2.93 2.056-6.138 4.14-8.103.887-.836 1.903-1.484 2.936-2.12 3.052-1.881 6.458-3.311 10.111-3.156.616.026 1.19.164 1.759.398.344-.555.626-1.157 1.007-1.685 1.456-2.022 3.59-2.972 5.95-3.518 1.29-.297 2.68-.372 3.997-.38 4.034-.025 7.6.955 11.012 3.125 1.741 1.108 3.343 2.382 4.743 3.901 3.901 4.232 6.186 9.883 8.666 15.003l2.949 5.517c2.168 3.882 4.884 7.409 7.262 11.157 4.665 7.353 7.781 15.477 9.634 23.963.5 2.289.824 4.593 1.143 6.912.597 4.34 1.143 8.906.575 13.275-.187 1.435-.479 2.926-1.269 4.166-.822 1.29-1.943 1.988-3.422 2.301-2.533.536-5.792.109-7.977-1.31l-.462-.343-.057-.004c-.245.958-.254 1.948-.379 2.925l-.358 2.173.675-1.881.219-.495c.161 1.007.117 2.058.121 3.076.017 4.413-.767 8.482-3.414 12.124-1.21 1.664-2.804 3.223-4.507 4.371-1.033.697-2.097 1.184-3.236 1.684-2.569 1.127-5.193 1.933-7.973 2.366-1.334.207-2.665.193-4.011.207-1.067.012-2.866.146-3.797-.461a.51.51 0 0 1-.238-.357c-.235-1.571.19-3.266.118-4.857-.293-.101-1.156-.278-1.291-.496.122-.103.236-.18.376-.256l-.053-.096-4.823-.703c.293.232.68.273 1.035.361.567.142 1.164.138 1.722.306-1.056.14-2.432.033-3.465-.239-.648-.17-1.26-.44-1.916-.592l-4.5-.952-26.563-4.593-17.483-2.758-15.57-2.197.047.079c.576 1.007.637 2.349.444 3.474l-.02.127c-.168.959-.615 1.846-1.45 2.389-1.005.655-2.565.526-3.709.476-1.692-.075-3.397-.222-5.048-.622-.77-.187-2.373-.57-2.814-1.272-.316-.503.08-1.735.229-2.271.337-1.21.873-2.545 2.02-3.197 1.63-.927 6.103-.447 8-.286l12.06 1.562 7.462 1.067 13.029 2.112 9.947 1.531 15.01 2.154 9.397 1.822 4.171.916c1.08.234 2.069.491 3.178.523-.846-.777-1.898-1.175-2.933-1.641-1.278-.575-2.54-1.152-3.906-1.493-2.99-.745-6.112-1.088-9.151-1.591l-21.277-3.371-27.54-4.629-13.427-1.637-3.067-.158c-.439-.014-.922-.087-1.356-.056-.567.042-1.056.389-1.617.452l-.062-.118c.257-.533.884-1.007 1.33-1.401 2.782-2.458 5.983-3.901 9.458-5.12 3.452-1.211 7.11-2.06 10.731-2.588l3.699-.416 1.579-.136c.239-.02.522-.012.746-.103-.283-.658-.566-1.454-.273-2.161.31-.747.882-1.287 1.435-1.853.424-.433.816-.912 1.268-1.315.363-.324.806-.558 1.207-.83.734-.497 1.416-1.016 2.247-1.343.613-.24 1.35-.494 2.007-.55.566-.05 1.15.054 1.71.123 1.015.125 2.306.273 3.246.693.393.176.706.404 1.027.685l.13-.02c2.396-.362 5.209.198 7.156 1.658.66.494 1.302 1.09 2.016 1.501.792.456 1.613.494 2.502.576.844.079 1.678.168 2.513.316 4.14.735 6.97 4.402 8.548 8.069.48 1.112.8 2.281 1.234 3.411.348.906.93 1.725 1.233 2.634-.479.154-.962.231-1.443.364-.419.117-.812.303-1.24.394-1.067.225-2.332-.306-3.268-.78-2.97-1.506-4.902-4.071-7.29-6.293-1.378 1.108-2.926 1.344-4.632 1.499 1.264.465 1.78.893 2.34 2.116.836 1.825 1.413 3.825 2.107 5.71.149.404.291 1.061.542 1.395l10.805 1.776 3.785.636c1.211.214 2.428.532 3.661.529l-2.236-1.535c-1.588-1.191-2.977-2.647-3.83-4.459l.009-.242.126-.078c.377.097.763.554 1.054.819l1.757 1.518a14 14 0 0 0 1.636 1.123c1.851 1.086 4.007 1.146 5.908 2.038 1.39.652 2.667 1.595 4 2.361l3.79 1.943c1.604.78 3.212 1.568 4.924 2.088 2.326.707 5.245.929 7.656.5 4.039-.717 7.213-3.05 9.558-6.355 2.619-3.69 3.735-8.284 4.22-12.721.095-.87.226-1.75.228-2.625.004-2.159-.281-4.421-.651-6.549-.51-2.928-1.174-5.89-2.222-8.675-1.093-2.904-2.678-5.688-4.459-8.22-.539-.766-1.176-1.93-1.95-2.447-.411-.276-.976-.447-1.436-.628-.825-.326-1.649-.644-2.445-1.039-2.074-1.028-3.84-2.335-5.405-4.042l-2.473-2.872c-.705 1.225-1.355 2.51-2.153 3.678-1.839 2.691-4.973 5.819-8.198 6.666-1.22.32-2.73.42-3.84-.284-.384-.243-.591-.57-.677-1.01-.353-1.806 1.086-3.973 2.082-5.374l.973-1.258c.118-.139.347-.33.357-.51l.182-1.515c-.534.718-1.06 1.456-1.652 2.128-1.696 1.927-3.649 3.636-5.467 5.443-1.259 1.25-2.403 2.616-3.74 3.79l-2.009 1.685c-.639.489-1.336.947-1.927 1.49l-2.663 2.667-3.886 3.497c-1.054.927-2.199 2.126-3.56 2.555l-.457.147 9.771-9.338c-.658.096-1.293.192-1.96.169-1.538-.053-3.189-.678-4.413-1.59-1.881-1.403-2.905-3.625-3.21-5.907-.358-2.661.422-5.277 1.236-7.779l1.628-4.91a60 60 0 0 0 1.605-5.884c.329-1.516.584-3 .691-4.55l.046-1.412c0-.278-.043-.611.064-.868.17-.083.264-.104.447-.025.349.15.71.493 1.002.735 1.085.9 2.131 1.803 2.561 3.193.245.791.423 1.608.791 2.355.609 1.233 1.528 2.24 2.52 3.18 1.237 1.17 2.566 2.21 4.072 3.017 3.103 1.66 6.783 2.718 10.26 1.651 2.747-.843 5.284-3.07 6.617-5.603.908-1.728 1.318-3.692 1.535-5.619l.159-1.992c.025-.648-.161-1.794.144-2.334-.247-.045-.323-.168-.408-.388-.14-.366-.187-.794-.269-1.178-.294-1.37-.608-2.596-1.425-3.755"/><path fill="#fff" d="M44.57 102.04c-.752 1.27-1.677 2.15-2.051 3.64l-.199.631-.17-.056a.96.96 0 0 1-.193-.518c-.068-1.356 1.767-2.799 2.613-3.697m-28.686 22.503c1.321.069 2.625.316 3.936.482.842.106 1.746.129 2.568.318l-.086.143c-.285.075-.658.065-.955.084-1.398.092-2.852-.129-4.208-.461-.483-.118-.833-.31-1.255-.566m45.106-16.068 3.4 1.066c-.79.403-1.438.608-2.323.691a13.7 13.7 0 0 1-3.547-.432c.814-.376 1.692-.704 2.397-1.267zm-10.093-1.651.108-.021c.033.019.082.023.098.057.014.028-.365 1.203-.4 1.339-.293 1.159-.305 2.29.08 3.428l.022.067-.065.11c-.313-.069-.484-.21-.73-.409-.316-.354-.654-.709-.92-1.104-.205-.305-.222-.704-.14-1.058.241-1.028 1.055-1.895 1.947-2.409m-1.523-6.967c.702-.034 1.362.036 2.055.144-.276.128-.727.115-1.038.172-1.655.301-2.761.698-3.946 1.933-.982 1.024-2.139 2.721-2.393 4.134-.07.396-.041.827-.035 1.228l.18 1.18-.453-.484c-.41-.523-.523-1.367-.417-2.003l.019-.106c.262-1.528 1.426-3.184 2.385-4.358.938-1.147 2.202-1.672 3.642-1.84m-20.148 9.97.152.027.012.093c-.558.492-1.481.758-2.166 1.05l-2.897 1.304-3.851 1.914c-.756.333-1.563.503-2.333.793-.45.169-.765.495-1.26.561l-.211-.011-.008-.062c2.704-2.399 6.319-3.723 9.7-4.851.927-.309 1.893-.686 2.862-.818m28.086-2.354c.976-.141 2.115.414 2.975.829-.272.157-.616.226-.907.356-.496.221-1.053.635-1.568.76-.29.071-.637.049-.937.073-.664.053-1.244.255-1.83.563-.418.253-.957.655-1.421.795-.23.069-.694.08-.897-.034-.002-.387.222-.794.455-1.093 1.04-1.329 2.474-2.047 4.13-2.249"/><path fill="#fff" d="M52.806 100.292c.37.022.927.037 1.253.217-1.099.246-2.15.513-3.187.964-2.114.919-4.166 2.516-5.021 4.724a4.46 4.46 0 0 0 .096 3.483c.196.425.432.922.891 1.097.21-.064.198-.099.311-.291l.115.112-.017.364-.152.138c-.296-.012-.522-.06-.771-.231-.753-.518-1.335-1.597-1.47-2.483-.26-1.711.363-3.191 1.361-4.547.639-.868 1.375-1.65 2.299-2.215 1.204-.738 2.908-1.119 4.292-1.332m39.031-75.36c.414-.05.87-.018 1.289-.02-2.076.72-3.938 1.589-5.848 2.666-1.236.698-2.475 1.386-3.354 2.534-.853 1.114-1.675 3.041-1.59 4.458.01.159.02.523.084.66.08.172.175.147.203.366-.322.192-.46.582-.627.904l-.873 1.623-.622 1.013c.043-.38.23-.783.357-1.146l.638-2.009c.72-2.69.605-5.469 2.446-7.746 1.961-2.426 4.958-2.992 7.897-3.303M20.95 119.856c.527-.057 1.15.026 1.682.068 1.066.085 2.112.189 3.166.371-.111.182-.344.343-.499.497a4 4 0 0 0-.534.698c-.552.871-.813 1.882-1.281 2.795l-2.226-.12-5.35-.547c.346-.927.797-1.938 1.468-2.677.92-1.012 2.306-1.003 3.574-1.085m79.873-69.764c-.049-.377.109-.808.195-1.175.203-.856.363-1.867.731-2.665.073-.157.162-.31.336-.362.445-.133 1.124.034 1.577.107.885.142 1.795.626 2.321 1.363.572.802.688 2.406.507 3.355-.239 1.26-1.061 2.406-1.811 3.412-.475.639-.949 1.27-1.517 1.831l-.162.024-.252.133c-.247-.045-.323-.168-.408-.388-.14-.366-.187-.794-.269-1.177-.294-1.37-.608-2.597-1.425-3.756l.096-.22c.079-.167.076-.3.081-.482"/><path fill="#141414" d="M100.823 50.092c1.302.897 1.886 2.605 2.146 4.107.092.532.191 1.26.031 1.783l-.252.133c-.247-.045-.323-.168-.408-.388-.14-.366-.187-.794-.269-1.177-.294-1.37-.608-2.597-1.425-3.756l.096-.22c.079-.167.076-.3.081-.482"/><path fill="#fff" d="M100.373 68.372c.132.048.125.17.168.3.607 1.84 1.189 3.897 2.151 5.582l.059.102c-.264.422-.525.786-.883 1.133-1.869 1.811-4.087 2.166-6.585 2.135-.519-.04-1.16-.043-1.643-.231-.131-.051-.437-.18-.467-.342-.02-.11.344-.888.398-1.036.281-.772.477-1.643.483-2.466.002-.207.02-.447-.067-.64l-.054-.11c.05-.148 0-.11.11-.149 1.042-.357 2.097-.725 3.04-1.307 1.264-.781 2.306-1.871 3.29-2.972m-44.81 32.954c.255-.091.845-.045 1.134-.055 2.282-.078 4.12.453 5.873 1.945.537.456 1.069.988 1.737 1.246.864.333 1.854.39 2.77.482 1.418.143 2.87.316 4.183.909 3.255 1.472 5.328 4.792 6.51 8.027.633 1.733.992 3.433 2.388 4.741-3.197.334-6.689-1.599-8.88-3.805-1.009-1.016-2.044-2.576-3.4-3.087-.127-.047-.115-.07-.185-.18.095-.111.161-.188.202-.33-.589-.094-1.295.843-1.816 1.129-.62.339-1.305.528-2 .639-2.483.395-4.985-.022-7.344-.838-.66-.228-1.377-.466-1.945-.88.355-.304.734-.629 1.194-.756.817-.225 1.83-.02 2.642.137 2.003.388 3.934.629 5.845-.258.288-.162.703-.572.99-.654.107-.031.434.048.564.063.613.076 2.232.466 2.713.185-.047-.255-.14-.416-.375-.555-.333-.198-1.142-.189-1.534-.243-.88-.12-1.766-.237-2.628-.454-2.071-.524-3.979-1.749-6.07-2.113-.791-.138-1.56-.056-2.323.183-2.039.639-3.163 1.93-4.12 3.756l-.126.033c-.12-.122-.153-.277-.179-.443-.15-.964.21-2.055.773-2.827 1.625-2.23 5.012-2.76 7.573-2.501.846.086 1.958.389 2.783.227.21-.042.288-.136.395-.312l-.072-.109c-.618-.234-1.284-.375-1.921-.554-1.176-.329-2.302-.662-3.53-.728-2.839-.154-6.097.615-8.24 2.566-1.324 1.207-1.832 2.483-1.92 4.246l-.044-.03c-.378-.483-.63-1.27-.684-1.875-.109-1.206.426-2.181 1.174-3.082 1.313-1.583 3.286-2.87 5.271-3.426.858-.24 1.738-.338 2.622-.419"/></g><defs><clipPath id="a"><path fill="#fff" d="M0 0h150v150H0z"/></clipPath></defs></svg>