<svg xmlns="http://www.w3.org/2000/svg" width="202" height="80" fill="none"><path fill="#141414" d="m49.527 52.219 9.609-23.37h3.768l9.575 23.37h-4.923l-7.402-19.18h1.698l-7.504 19.18zm5.093-4.355v-3.79h12.834v3.79zm26.187 4.687q-2.174 0-3.87-.897a6.67 6.67 0 0 1-2.615-2.493q-.95-1.596-.95-3.69v-9.308h4.48v9.208q0 .997.34 1.729.34.698 1.019 1.063.68.366 1.596.366 1.392 0 2.173-.831.78-.831.78-2.327v-9.208h4.449v9.308q0 2.128-.951 3.723-.917 1.596-2.614 2.493-1.665.864-3.837.864m12.675-.332V29.48h4.448v22.74zm-3.837-12.233v-3.823h12.122v3.823zm21.254 12.565q-2.48 0-4.482-1.097a8.9 8.9 0 0 1-3.158-3.025q-1.154-1.928-1.154-4.288t1.154-4.222q1.154-1.895 3.158-2.991 2.003-1.13 4.448-1.13 2.513 0 4.482 1.13 2.003 1.096 3.157 2.991 1.155 1.862 1.155 4.222t-1.155 4.288q-1.154 1.896-3.157 3.025-1.97 1.097-4.448 1.097m-.034-4.055q1.256 0 2.207-.532a3.8 3.8 0 0 0 1.494-1.53q.543-.996.543-2.26t-.543-2.227a3.85 3.85 0 0 0-1.494-1.496q-.951-.565-2.207-.565-1.223 0-2.173.565a3.84 3.84 0 0 0-1.494 1.496q-.543.964-.544 2.227 0 1.264.544 2.26.543.965 1.494 1.53.95.532 2.173.532m10.978 3.723V36.163h4.448V52.22zm10.695 0v-9.474q0-1.396-.916-2.16-.884-.8-2.207-.799-.883 0-1.596.366a2.55 2.55 0 0 0-1.121.997q-.407.665-.407 1.596l-1.732-.831q0-1.862.815-3.225a5.7 5.7 0 0 1 2.275-2.094q1.426-.764 3.226-.764 1.697 0 3.089.764a5.5 5.5 0 0 1 2.207 2.094q.815 1.33.815 3.225v10.305zm10.696 0v-9.474q0-1.396-.917-2.16-.883-.8-2.207-.799-.849 0-1.596.366a2.55 2.55 0 0 0-1.12.997q-.408.665-.408 1.596l-2.546-.598q.135-1.929 1.052-3.325a6.15 6.15 0 0 1 2.411-2.194q1.494-.797 3.327-.797 1.834 0 3.294.764a5.57 5.57 0 0 1 2.309 2.128q.848 1.395.848 3.324v10.172zm14.232.332q-2.24 0-4.04-1.097a7.7 7.7 0 0 1-2.818-2.992q-1.019-1.895-1.019-4.254 0-2.394 1.019-4.289a7.7 7.7 0 0 1 2.818-2.991q1.8-1.098 4.04-1.097 1.766 0 3.158.698a5.5 5.5 0 0 1 2.207 1.961q.849 1.23.917 2.792v5.784q-.068 1.596-.917 2.826-.815 1.23-2.207 1.961-1.392.699-3.158.698m.815-4.022q1.867 0 3.022-1.197 1.155-1.23 1.154-3.158 0-1.263-.543-2.227a3.57 3.57 0 0 0-1.46-1.529q-.916-.565-2.173-.565-1.222 0-2.173.565-.917.532-1.46 1.53-.509.963-.509 2.226 0 1.298.509 2.294a4.16 4.16 0 0 0 1.46 1.53q.95.531 2.173.531m3.939 3.69v-4.322l.713-3.922-.713-3.856v-3.956h4.414V52.22zm10.08 0V29.48h4.448v22.74zm-3.837-12.233v-3.823h12.122v3.823zm21.389 12.565q-2.58 0-4.583-1.064a8.54 8.54 0 0 1-3.192-2.991q-1.155-1.895-1.154-4.322 0-2.393 1.12-4.255a8.35 8.35 0 0 1 3.124-2.991q1.97-1.13 4.38-1.13 2.376 0 4.176 1.063a7.3 7.3 0 0 1 2.852 2.859q1.053 1.796 1.053 4.089 0 .432-.068.897-.035.432-.17.997l-13.785.034v-3.258l11.714-.033-1.8 1.363q-.067-1.43-.543-2.394a3.12 3.12 0 0 0-1.324-1.462q-.85-.532-2.105-.532-1.325 0-2.309.598a3.84 3.84 0 0 0-1.528 1.629q-.51 1.03-.509 2.46 0 1.462.543 2.56.577 1.064 1.63 1.662 1.052.564 2.444.565 1.257 0 2.275-.4a4.95 4.95 0 0 0 1.766-1.262l2.614 2.56a7.56 7.56 0 0 1-2.92 2.06q-1.698.699-3.701.698"/><path fill="#141414" fill-rule="evenodd" d="M4.158 57.213V32.371h7.1v-8.459h8.836v8.46h8.905v9.217h8.771V23.912h.002v26.515H29v6.786zm24.841-6.786H11.257V32.371h8.837v9.218h8.905z" clip-rule="evenodd"/></svg>