<svg xmlns="http://www.w3.org/2000/svg" width="195" height="80" fill="none"><path fill="#141414" fill-rule="evenodd" d="M57.386 41.557c1.617-.066 2.86 1.361 2.485 2.936q-.15.635-.347 1.25c-.364 1.147-1.5 1.817-2.703 1.835-9.951.144-15.415 4.464-18.305 9.034-.305.481-.888.73-1.429.55a1.142 1.142 0 0 1-.664-1.574c4.883-10.59 13.988-13.75 20.963-14.032m2.964-1.17a.014.014 0 0 1-.013.014c-14.623.338-21.34 8.216-24.192 15.096-.254.612-.958.92-1.548.616a1.09 1.09 0 0 1-.555-1.195c3.1-14.69 15.11-20.122 22.845-21.26 1.225-.18 2.396.542 2.746 1.73a17.7 17.7 0 0 1 .717 5M31.224 53.193c0 .421.19.826.52 1.087.827.651 1.995.113 2.232-.913 1.756-7.596 7.041-16.216 20.4-20.506 1.862-.598 2.811-2.751 1.512-4.212a17.8 17.8 0 0 0-2.729-2.491 2.54 2.54 0 0 0-2.483-.29c-7.68 3.176-19.476 12.02-19.452 27.325m.21-6.704c-.57 2.556-3.67 3.749-4.78 1.377A17.6 17.6 0 0 1 25 40.388c0-9.762 7.913-17.675 17.675-17.675q1.019 0 2.007.112c2.386.27 2.59 3.227.624 4.605-8.622 6.041-12.493 12.87-13.872 19.058m10.832 11.57c-1.98-.045-2.895-2.265-1.538-3.709 3.998-4.255 9.217-5.7 13.456-5.863 2.01-.078 3.075 2.09 1.743 3.598a17.63 17.63 0 0 1-13.66 5.974" clip-rule="evenodd"/><path fill="#141414" d="M75.6 51.969V27.165h9.874c4.886 0 7.872 2.544 7.872 6.684 0 2.749-1.221 4.717-3.563 5.7 2.613.849 3.936 2.817 3.936 5.701 0 4.242-2.952 6.719-8.075 6.719zm9.5-20.97h-5.157v6.752h5.26c2.375 0 3.698-1.255 3.698-3.46 0-2.138-1.357-3.292-3.8-3.292m.374 10.417h-5.53v6.719h5.53c2.443 0 3.8-1.188 3.8-3.428 0-2.103-1.39-3.291-3.8-3.291m14.433 10.553h-4.105V26.724h4.105zm2.002-8.415c0-5.226 3.766-8.823 8.958-8.823 5.191 0 8.958 3.597 8.958 8.823 0 5.225-3.767 8.822-8.958 8.822s-8.958-3.597-8.958-8.822m4.139 0c0 3.053 1.968 5.123 4.819 5.123s4.818-2.07 4.818-5.123-1.968-5.124-4.818-5.124c-2.851 0-4.819 2.07-4.819 5.124m14.717 0c0-5.192 3.427-8.857 8.381-8.857 4.581 0 7.702 2.545 8.143 6.583h-4.139c-.475-1.9-1.866-2.884-3.835-2.884-2.646 0-4.411 2.002-4.411 5.158 0 3.155 1.629 5.123 4.276 5.123 2.07 0 3.529-1.018 3.97-2.85h4.173c-.509 3.902-3.766 6.583-8.143 6.583-5.09 0-8.415-3.529-8.415-8.856m22.456 8.415h-4.106V26.724h4.106V42.23l6.515-7.024h5.191l-6.379 6.651 6.244 10.112h-4.751l-4.377-7.058-2.443 2.545zm11.405-5.09h3.936c.034 1.459 1.12 2.375 3.02 2.375 1.934 0 2.986-.78 2.986-2.002 0-.848-.441-1.459-1.934-1.798l-3.02-.713c-3.02-.678-4.479-2.103-4.479-4.784 0-3.291 2.782-5.26 6.65-5.26 3.767 0 6.312 2.172 6.346 5.43h-3.937c-.033-1.426-.984-2.342-2.578-2.342-1.629 0-2.579.747-2.579 2.002 0 .95.746 1.561 2.171 1.9l3.02.713c2.817.645 4.242 1.934 4.242 4.513 0 3.393-2.884 5.497-7.024 5.497-4.174 0-6.82-2.24-6.82-5.531"/></svg>