<svg xmlns="http://www.w3.org/2000/svg" width="90" height="90" fill="none"><path fill="#141414" d="M43.352 59.601c2.312-.165 2.84 2.75.488 3.233-2.382.264-2.877-2.85-.488-3.233m10.27-35.277.099-.017c.77.774 1.767 1.226 2.682 1.803 1.63 1.03 3.219 2.187 4.57 3.567 1.99 2.032 1.518 3.23-.545 5.105-2.565 2.33-5.416 4.164-8.682 5.345-.302.123-.848.416-1.17.325l-.038-.088c.135-.188.364-.312.553-.445.653-.464 1.221-1.13 1.675-1.785.844-1.218 1.191-1.38 2.31-2.365 1.32-1.163 2.704-2.403 3.862-3.727l-4.376-4.247c-.87-.775-1.74-1.565-2.69-2.24zm-15.107-.044.02.022c-.012.614-.23.432-.62.843l-5.455 5.504c-.441.444-.924.88-1.31 1.374.986 1.14 2.228 2.134 3.334 3.161l5.172 4.746c.275.213.587.424.824.677.407.434.42 1.154-.314 1.223-.953.09-1.303-.471-1.968-1.009-.823-.587-1.756-1.061-2.616-1.597a43.3 43.3 0 0 1-5.678-4.197c-2.442-2.147-2.896-3.38-.41-5.681l1.467-1.278c1.48-1.193 4.928-3.786 6.74-3.493.084.013.031.313.107.408.314-.077.642-.276.697-.625zm10.04-3.841c.71-.06 1.064.18 1.51.75l-.801 3.2-5.64 18.385c-.325 1.05-.546 2.632-1.777 2.973-.901.038-1.58-.732-1.43-1.602.333-1.953 1.098-3.855 1.664-5.751l4.456-14.048c.336-.973 1.037-3.431 2.018-3.907"/><path fill="#141414" d="M57.612 79.917c.545.336 2.5.85 1.492 1.804-.76.719-2.231.704-3.212.774l-4.197.24-13.083.007c-.426-.009-.846-.079-1.27-.094l-4.12-.121c-1.126-.062-3.853-.148-4.623-1.007-.8-.892.834-1.416 1.4-1.7 3.545-1.78 5.875-6.766 4.583-10.561-.074-.215-.106-.393-.254-.573l-22.224-.434C7.059 67.806 1.75 65.495 1.043 59.94c-.165-1.29.045-2.632.066-3.925l-.005-7.451-.376-6.57-.013-7.474.394-9.525-.114-7.512c.003-.779-.073-1.593.017-2.366.36-3.085 2.544-5.67 5.38-6.831 2.038-.836 4.277-1.144 6.454-1.378l6.535-.324c1.606.002 3.166.065 4.758.244l1.009.16c.855.12 4.002.76 4.548 1.446-.17.002-.634-.31-.802-.395-2.627-1.328-5.53-.933-8.328-.626l-2.878.277-6.943 1.18c-1.318.267-2.715.602-3.93 1.187-4.425 2.135-4.28 5.09-4.217 9.27l.165 20.453c.304 4.344 1.25 8.298 1.256 12.723l-.006 3.876c-.008 1.69-.056 3.22.726 4.787 1.601 3.21 5.773 3.997 9.014 4.14.198.046.408.035.608.055l11.61.592 10.698.302c.303.017.603.076.904.09l3.04.023c.428.015.845.1 1.27.121l2.883.022c.398.011.786.094 1.179.107l10.793.123 4.334.271 3.208.022 8.408.404 6.656.11c.969 0 1.956.043 2.922-.011 2.582-.145 5.054-2.239 5.56-4.776l.05.06c-.435 3.311-3.895 4.84-6.867 4.966l-2.654.029c-1.474.067-2.935.278-4.422.13l-.064-.013-4.348.218-12.875-.004-2.54-.009c-.513 3.165-.888 6.994 1.108 9.759.566.782 1.48 1.666 2.398 2.02"/><path fill="#C692ED" d="m50.286 68.334 2.492-.028c-.02.134-.126.3-.177.43-1.566 3.975-.604 8.551 2.409 11.605.184.186.25.375.502.492l.039.017c-.49.07-1.01.036-1.505.05l-2.953.089c-.375.006-.744.074-1.12.081l-7.714-.001c-.38-.006-.748-.056-1.126-.077l-3.703-.107-5.779-.291c.125-.087.262-.17.37-.275l1.432-1.35c2.454-2.545 3.333-6.25 2.462-9.645-.053-.207-.076-.495-.202-.668z"/><path fill="#141414" d="M85.184 33.406c.33 1.36.103 2.676.06 4.035l-.669 11.725-.47 3.316c-.157 1.066-.032 2.007-1.136 2.528l-.054.027c-.06.028-2.899-.265-3.343-.266l-5.234.008-8.693.3c-.493.009-.974.105-1.47.113l-16.688.018c-.436.024-.86.097-1.3.1l-9.184.012c-.51.007-1.004.121-1.517.128l-7.103.17-7.057.178-4.715.022c-.375.015-.754.098-1.134.119l-3.39.036c-3.266.007-5.692.085-6.662-3.497-.375-1.382-.5-2.872-.659-4.292l-.422-4.79-.1-15.384c.576-13.63 4.342-16.925 17.48-17.72l8.933-.284c1.104-.092 2.205-.112 3.313-.189l14.59-1.412 11.452-1.054 9.14-.529 4.496-.034c4.328 0 9.82-.01 13.064 3.34 2.168 2.237 2.311 3.726 2.3 6.547l-.048 2.673c-.022.452-.11.888-.115 1.35l-.017 11.358c-.007.278-.073.55-.086.828l-.079 18.44.058 6.177c-.072 1.08-.039 2.141-.491 3.148-.45-1.231-.42-2.57-.482-3.86l-.152-3.672c-.011-.344-.074-.68-.085-1.022l-.108-6.068c-.01-.394-.088-.772-.108-1.16l-.048-2.605c-.011-.323-.076-.637-.089-.957l-.837-16.772c-.059-1.336-.165-2.67-.168-4.007l-.007-2.868c-.005-1.798-.025-3.195-1.161-4.696-1.555-2.055-3.767-2.62-6.2-2.937l-5.338-.45-11.016-.007c-.363.009-.707.076-1.065.1l-7.976.41-19.638 1.806-5.052.2c-.35.01-.69.078-1.04.082l-5.391.021c-3.862.11-9.173.438-12.319 2.888-2.942 2.29-3.326 7.685-3.574 11.158l-.175 2.639c-.113 1.005-.05 2.093-.052 3.107l.143 6.017c.158 2.56.946 12.33 2.586 14.35.552.68 1.16.523 1.964.519l12.497-.292c.29-.016.582-.074.87-.082l2.457-.017c.366-.01.727-.074 1.092-.084l4.648-.016c.418-.006.82-.109 1.23-.121l7.677-.014c.522-.006 1.033-.096 1.55-.103l19.286.006c.401.01.797.087 1.194.098l3.937.018c.354.012.7.084 1.052.099l12.94.854c.26-1.18.391-2.4.548-3.596l.677-8.308.006-4.807c.001-1.36-.327-3.93 1.011-4.82.73-.486 1.241.545 1.457 1.111z"/></svg>