<svg xmlns="http://www.w3.org/2000/svg" width="90" height="90" fill="none"><path fill="#141414" d="m86.492 60.214-.021-6.904c-.006-.343-.043-.695-.004-1.037l.149 8.354c-.05-.145-.046-.276-.124-.413M13.92 49.632l7.74.02c1.217.001 2.494-.077 3.704.03.512.044.877.697-.313.8l-10.357-.009c-.483 0-.99.03-1.467-.045-.623-.48.182-.76.692-.796m18.063-10.358 4.86.005c.503.004.97-.015 1.216.513l-.033.08c-.758.39-1.913.237-2.759.264l-8.976.069c-.4.01-.78.11-1.173.123l-6.583.194c-.47-.044-.988 0-1.462.002l-3.044.008c-.418 0-1.96.206-1.372-.735.465-.313 1.687-.144 2.243-.145l4.33-.013c.388-.009.756-.084 1.14-.108l1.773-.029c.297-.007.589-.058.885-.068l3.173-.023c.478-.01.947-.116 1.42-.127zm-18.144-9.158 25.86.038c.669.014 3.165.212 3.73.455l-.975.022c-.987.124-1.967.287-2.963.32l-25.581.004c-.88-.024-.95-.682-.07-.839m9.683-11.075 23.065.017c1.33.056 4.067.25 5.299.716-.26-.018-.518-.067-.778-.078l-3.713.025-4.482.19-2.945.01-27.82.008c-.46-.019-.708-.424-.349-.806.372-.159 1.032-.076 1.443-.077zm53.369-14.62a20 20 0 0 1 3.131.083l.706.11c2.925.433 6.57 2.103 7.016 5.377.17 1.25.192 2.483.193 3.742l-.168 7.346-.375 6.7-.789 9.45q-.075.666-.13 1.333c-.018.21-.07.693-.023.176.057-.633.07-1.28.129-1.918l.269-3.41.379-7.997c.034-.47.013-.955.014-1.426l-.07-5.439c-.067-2.167-.249-4.41-1.007-6.458-1.333-3.598-4.237-6.504-8.196-6.83-.875-.072-1.772-.036-2.65-.038l-3.623-.088c-.606-.02-1.21.016-1.816-.026.764-.444 2.073-.439 2.925-.502z"/><path fill="#141414" d="m86.61 60.627.085 7.527c.009.409-.078 1.988.109 2.275.852.203.645 1.528.695 2.207.415 5.533-.084 9.833-5.739 11.935-3.297 1.226-5.95.718-9.38.401l-4.594-.345-9.222-.013-11.586.535-4.901.031-7.247.318-5.97.169-11.172-.003-2.33-.146C5.27 84.895 3.649 80.775 3.196 71.815l-.112-3.063c-.016-.374-.095-.745-.108-1.12l-.115-5.047-.004-30.747c.002-.497.064-.976.087-1.47l-.256-12.986c-.107-2.242-.434-4.474-.35-6.723.104-2.757.722-3.803 3.144-5.023 3.89-1.96 7.212-2.063 11.482-1.716l8.592.771 6.855.412 26.767.033c.246.011.922.038 1.11.181l-.016.049c-.606.157-1.041.189-1.676.192l-5.536.169-10.277.097c-.362.013-.72.09-1.078.1l-15.155.01-3.13-.168C18.585 5.494 9.056 4.8 5.446 8.994c-1.384 1.607-1.86 4.403-1.868 6.48l.024 6.081c.012.483.087.96.111 1.44l.116 11.876c.005.493.098.974.106 1.462l.01 5.275c.006.445.068.88.082 1.324L4.14 68.27l.191 2.804c.239 3.17.74 6.34 3.097 8.707 4.12 4.137 11.26 3.845 16.62 3.846l48.173.102c3.221.01 6.62.303 9.576-1.22 3.507-1.808 4.25-5.636 4.636-9.243.093-.869.19-1.738.195-2.612l-.041-1.958c-.03-.43-.1-.84-.103-1.273l-.002-7.21c.088.138.084.269.128.414"/><path fill="#141414" d="M71.484 14.255c1.592-.231 3.318.638 4 2.114 1.173 2.539-1.076 5.528-2.456 7.515-1.445 2.078-2.933 4.05-4.656 5.91L57.118 40.855l-10.002 9.554c-.735.681-5.784 5.323-5.967 5.903-.035.11.192.673.219.849.806 5.207-.474 8.232-5.146 10.86L24.1 73.866l-1.211.546c-.936.417-2.405.775-2.26-.862.055-.616.265-1.244.408-1.845l2.63-11.779c1.414-5.937 5.901-9.618 12.08-8.106.478-1.112 1.302-2.119 2.01-3.096l3.018-4.046c4.132-5.343 8.627-10.442 13.26-15.355l6.094-6.348 5.428-5.053c1.701-1.488 3.582-3.367 5.928-3.667"/><path fill="#141414" d="M52.782 33.6c.504-.722 1.148-1.576 1.788-2.182l-.015.043c-.111.316-.18.236.135.138-.267.318-.591.612-.77.991l.012.1c-.3.35-.67.86-1.15.91"/><path fill="#79C8DB" d="M32.882 53.501c1.032.026 1.902.165 2.86.564 1.24.517 3.022 2.149 3.535 3.41.19.47.206 1.03.232 1.53.251 4.876-2.138 6.136-5.929 8.118l-5.739 2.811c-1.31.608-2.597 1.273-3.945 1.793.102-.336.289-.666.44-.984l.78-1.629 2.853-7.906c-.158.037-.263-.044-.39-.125l-.047-.03c-1.264-.086-1.782 1.885-2.147 2.79l-.943 2.315c-.165.384-.345.911-.676 1.182l1.078-4.01c.636-2.494.967-5.213 2.765-7.197 1.459-1.61 3.118-2.535 5.273-2.632"/><path fill="#141414" d="M33.085 56.535c-.266-.25-.66-.61-.346-.982l.11-.005c.392-.003.424.206.421.53-.005.12-.002.24-.04.355l-.006.022z"/><path fill="#141414" d="M33.23 56.433c-.234-.116-.42-.384-.405-.645l.112-.022c.162.052.234.18.333.312-.005.12-.002.24-.04.354m-.145.103.139-.08.029.026c1.105.972 3.114.56 4.092 1.53-1.577-.64-2.65-.443-4.26-1.476"/><path fill="#79C8DB" d="M54.57 31.418c.615-.757 1.306-1.47 1.97-2.185l2.208-2.389c2.035-2.153 4.019-4.363 6.28-6.288 1.087-.925 5.184-4.113 6.515-4.283 1.038-.133 2.236.773 2.33 1.833.225 2.52-4.96 8.706-6.633 10.627L40.107 54.838c-.361-.264-.684-.754-.988-1.09l-1.255-1.265c.572-1.196 1.344-2.286 2.124-3.354l2.665-3.487 10.129-12.04c.48-.051.849-.561 1.15-.91l-.012-.1c.178-.38.503-.674.77-.992-.314.098-.246.178-.135-.138z"/><path fill="#141414" d="m54.69 31.599.877-.969 4.554-4.197c.489-.438.977-.852 1.394-1.364-.13 1-.46 1.219-1.203 1.874l-3.123 2.65c-1.107.994-2.245 2.01-3.257 3.098l-.012-.101c.178-.38.503-.673.77-.992m14.79-11.212c.22.419.65.694.733 1.197.358 2.18-2.724 5.403-4.326 6.556-1.696 1.22-2.937 1.312-3.285-1.014 1.682.73 1.983.081 3.156-1.35 1.037-1.264 2.395-2.998 2.565-4.677-1.195.607-2.386 1.563-3.398 2.436l-1.873 1.67c-.44.377-.888.784-1.44.983l-.048-.062c-.021-.726.389-1.265.754-1.87 1.102-1.828 2.322-2.866 4.154-3.991l2.53-1.447c-.197.358-.474.685-.742.993.4.04.94.203 1.197.54z"/><path fill="#141414" d="M68.26 19.81c.4.04.94.203 1.197.54l.023.036-.402-.035c-.52-.13-.572-.455-1.126-.2z"/></svg>