<svg xmlns="http://www.w3.org/2000/svg" width="90" height="90" fill="none"><path fill="#141414" d="m7.429 25.818-.102-9.742c.003-2.01.33-6.863 1.877-8.377 2.154-2.11 7.118-2.692 10.024-3.019l8.691-.82 14.178-.02c.435.014.867.118 1.307.13l6.962.016c.762.001 1.502.108 2.258.118l6.307.024c.393.01.78.08 1.172.099l4.952.211c2.974.125 5.921.308 8.875.689 2.562.33 3.666.268 5.477 2.245 3.51 3.833 3.972 12.122 4.237 17.128l.054 2.113c.013.33.076.655.085.987l.22 8.749c.013.356.076.705.087 1.064l.085 5.207c.01.392.081.777.087 1.173l.012 3.272c.012.394.077.782.085 1.178l.017 5.94c.005.43.114.86.12 1.298l.017 15.776c.01.714.091 1.417.057 2.135l-.075 3.273c-.107 1.96-.549 3.27-.869 5.087-1.224.264-2.304.857-3.5 1.21-3.664.831-6.363.627-10.092.666-.492.005-.973.108-1.468.117-.999.019-2.042-.057-3.033.03-.304.013-.622-.004-.928.008l-10.489.57-17.696 1.292-10.794-.12-7.489-.7-3.031-.56c-4.122-.923-8.329-3.317-7.543-8.165l.05-.618c.183-.293.108-1.652.11-2.091l-.013-4.463c-.014-.38-.089-.748-.111-1.12l-.181-7.018c-.007-.425-.077-.844-.087-1.266z"/><path fill="#ECB935" d="M31.708 6.362c.284-.04.63 0 .922 0l32.152.069c6.09.007 14.065.752 16.034 7.685.06.21.085.421.167.627l-23.008.973-48.064 1.18c-.03-.057-.028-.037-.03-.094l.003-1.892c.006-3.384-.158-5.153 3.31-6.423 3.717-1.361 7.935-1.734 11.854-1.937z"/><path fill="#141414" d="M22.439 10.685c1.37-.064 1.584 1.614.3 2.08-1.514-.04-1.578-1.657-.3-2.08m-6.386.356c1.467-.252 1.786 1.48.453 2.13-1.459.147-1.803-1.484-.453-2.13m13.204-.261c1.406.138 1.389 1.958.033 2.27-1.353.06-1.577-2.005-.033-2.27"/><path fill="#ECB935" d="M77.016 16.363h2.52c.607.003 1.271-.038 1.863.11l.536 4.04.448 9.093.031 2.825c.013.384.093.763.103 1.143l.023 3.375c.015.332.105.649.118.976l.015 3.273c.003.482.073.95.09 1.429L82.776 45c.012.392.092.776.103 1.163l.106 10.416c.013.257.053.51.058.769l.014 13.822c.005 3.19-.405 8.038-3.334 9.837-.408.251-1.816-.048-2.329-.058l-11.014.032c-.328.015-.645.08-.968.1l-6.075.28-13.174 1.068-8.246.495c-.704.03-1.402.14-2.105.15l-11.448-.013-1.434-.13c-2.132-.156-4.227-.398-6.31-.894-5.15-1.423-6.498-4.692-6.671-9.92l-.062-.922c-.014-.74.045-1.465.07-2.202l.02-1.36c.013-.295.07-.587.08-.88l-.079-34.8.082-1.615-.08-11.964z"/><path fill="#DFDEDF" d="M40.892 53.733c.807-.158 2.113.717 2.705 1.287-.805-.287-1.719-.778-2.582-.83z"/><path fill="#141414" d="M67.972 27.644c.636-.025 1.422.406 1.138 1.17-.213.575-.879 1.21-1.282 1.68-1.232 1.433-2.57 3.32-4.35 4.115-.737.21-1.01-.246-1.241-.913l.104-.216c.28-.544.877-1.065 1.28-1.533l2.026-2.34c.66-.742 1.344-1.642 2.325-1.963m-1.516 16.97c2.14-.117 5.482 2.413 6.913 3.78.901.863 2.201 2.258.653 3.187-1.008.317-1.507-.41-2.058-1.137l-.701-.857a13.3 13.3 0 0 0-3.272-2.631l-1.529-.813c-.911-.496-.928-1.106-.006-1.529m5.822-7.902c.313-.028.74-.08 1.034.042l.165.075c.882.458.663 1.634-.197 1.939-.379.135-.798.188-1.193.259l-6.376 1.546c-.445.088-.865.156-1.265-.113-2.901-1.95 5.962-3.547 7.832-3.748M41.015 54.19c.539 1.645 1.435 3.166 2.241 4.69l1.337 2.613c.665 1.23 1.652 1.822.637 3.274-.748 1.07-2.352 1.825-3.68 1.7-1.82-.169-4.375-2.187-5.47-3.646-1.041-1.387-3.05-5.665-3.34-7.504-5.307.166-8.708-4.504-8.714-9.548-.007-5.292 2.158-6.647 6.845-8.07 2.076-.63 4.194-1.136 6.232-1.883 4.027-1.477 8.746-5.558 11.135-8.942.806-1.142 2.65-4.76 4.108-4.934 2.204-.263 3.034 3.188 3.355 4.8l.785 4.256c.282 1.385.66 2.744 1.159 4.067l.358.909c.115.272.118.222.398.324l.95.367c2.136.936 3.776 2.823 3.517 5.308-.138 1.331-1.05 2.3-2.041 3.104.54 1.735 1.402 3.366 2.15 5.017.66 1.46 2.657 5.823 1.384 7.104-1.2 1.208-3.354.22-4.635-.36l-3.108-1.464c-3.284-1.485-8.64-2.933-12.362-2.995-.861-.014-2.909-.1-3.586.555l.221.8z"/><path fill="#ECB935" d="m40.403 62.512.064.008c-.178.394-.16.533-.63.608-.323-.057.46-.526.566-.616m-1.676-6.24.093-.001c.1.17.163.354.233.538l-1.267.312-.21.008c.323-.34.81-.505 1.151-.857m.303 4.746a.5.5 0 0 1 .274 0l.02.088c-.24.28-.794.695-1.157.794a.75.75 0 0 1-.328-.223c.377-.218.792-.496 1.192-.659m1.134-1.494c.846-.117-.163.715-.623.914.136-.154.245-.32.358-.49-.782.464-1.45.542-1.982.863l-.477.423-.08-.172c.375-.853 2.03-1.224 2.804-1.538m-1.01-2.285.668.95-2.034.336-.658.01c.327-.674 1.535-.765 2.01-1.018zm-2.107-19.688a1 1 0 0 1 .154-.007l.056.794c.294 3.344 1.403 10.195 4.147 12.46l.048.038c-1.884.333-3.656 1.636-5.333 1.845.108-.568.074-.541-.251-1.036-.468-.02-3.123.002-2.405 1.035.31.167 1.393-.006 1.89.048l-1.597.241c-4.568.863-6.954-4.162-7.256-8-.04-.505-.084-1.057-.016-1.56l.011-.079c.293-2.225 2.339-3.233 4.23-3.833z"/><path fill="#141414" d="M30.057 41.368c.209-.039 1.18.037.888.402-.387.485-1.138.603-1.709.67-.264.03-1.347.155-.899-.437.334-.44 1.2-.559 1.72-.635m1.921 4.662c.316-.008.642.036.958.062-.602.6-1.396.976-2.21 1.19-2.038.46-.826-1.055 1.252-1.253m-2.374-2.113 1.013-.013c.39-.001 1.594-.08 1.895.218l-.018.036c-.178.263-.86.453-1.155.547-.564.144-1.122.223-1.698.295-.57.072-1.365-.19-.958-.792.136-.202.683-.255.92-.29m4.624 4.177c.178-.02.42-.032.576.07-.042.563-2.278 1.087-2.713 1.537-.056.057-.105.114-.17.16l-.046.033c.502-.01 1.02.002 1.519-.05l1.218-.162c.35-.048.745-.17 1.007.13l-.041.132c-.376.358-.99.467-1.475.591l-1.67.28c-.527.03-.841-.317-1.203-.636l.974-.812c-.684.284-.622.273-1.311.082-.903-1.064 1.049-1.046 1.696-1.124z"/><path fill="#ECB935" d="M51.563 26.257c.18.083.315.54.396.71l.593 1.28c.97 2.136 1.682 4.333 2.427 6.551l2.473 7.479 1.603 4.252c1.34 3.327 2.208 4.643 1.618 8.257l-9.315-2.967c-1.82-.4-3.672-.724-5.53-.896l-1.44-.089c-.373-.01-.947.102-1.22-.203-2.977-3.33-4.376-9.227-4.05-13.706.043-.581.825-.724 1.4-1.043l2.216-1.365a33.5 33.5 0 0 0 5.702-4.91c1.032-1.113 1.978-2.355 3.127-3.35"/><path fill="#141414" d="M49.967 29.86c.449.213.549 1.192.643 1.61l1.508 5.598 1.728 5.2 2.6 6.24c.585 1.355 1.068 2.713 1.77 4.02.094.176.481.74.447.888l-.151.007c-1.86-.366-2.755-3.683-3.436-5.278l-3.31-8.477-1.614-5.538c-.325-1.23-.876-3.082-.185-4.27"/></svg>