<svg xmlns="http://www.w3.org/2000/svg" width="154" height="62" fill="none"><g fill="#141414" clip-path="url(#a)"><path d="M33.458 47.61H22.16l11.298-17.086h11.299zm-4.134-34.722h11.574L29.324 30.524H17.75zM67.803 27.75q0 1.572-.758 2.948-.73 1.374-2.33 2.217-1.57.842-3.984.842h-3.284v7.521h-3.93v-19.59h7.214q2.273 0 3.872.787 1.6.785 2.386 2.16.814 1.376.814 3.116m-7.241 2.835q1.628 0 2.414-.73.786-.756.785-2.104 0-2.863-3.199-2.863h-3.115v5.697zM73.4 28.145a5.56 5.56 0 0 1 1.965-1.936q1.236-.702 2.807-.702v4.125h-1.038q-1.852 0-2.807.87-.926.87-.926 3.032v7.746h-3.93V25.731h3.93zm13.202 13.387q-2.245 0-4.041-.982a7.37 7.37 0 0 1-2.835-2.835q-1.01-1.824-1.01-4.21t1.038-4.21a7.3 7.3 0 0 1 2.89-2.806q1.825-1.01 4.07-1.01t4.07 1.01a7.13 7.13 0 0 1 2.862 2.806q1.067 1.825 1.067 4.21 0 2.386-1.095 4.21A7.46 7.46 0 0 1 90.7 40.55q-1.826.982-4.098.982m0-3.424q1.066 0 1.993-.505.954-.534 1.515-1.572t.561-2.526q0-2.217-1.178-3.396-1.15-1.207-2.835-1.207-1.683 0-2.834 1.207-1.123 1.179-1.123 3.396 0 2.218 1.095 3.424 1.122 1.179 2.806 1.179m13.796.055h4.219v3.115h-8.148V19.275h3.929zm7.271-14.285q-1.039 0-1.74-.645-.674-.674-.674-1.656 0-.983.674-1.628.701-.674 1.74-.674 1.038 0 1.712.674.7.645.701 1.628 0 .983-.701 1.656-.674.645-1.712.645m1.936 1.852v15.55h-3.929V25.73zm11.376-.223q2.778 0 4.49 1.768 1.712 1.74 1.712 4.883v9.121h-3.929v-8.587q0-1.852-.926-2.835-.927-1.01-2.526-1.01-1.628 0-2.582 1.01-.926.983-.926 2.835v8.587h-3.929V25.731h3.929v1.937a5.3 5.3 0 0 1 1.992-1.572 6.2 6.2 0 0 1 2.695-.589m23.266 7.661q0 .843-.112 1.516h-11.367q.141 1.684 1.179 2.638t2.554.954q2.189 0 3.115-1.88h4.238q-.674 2.245-2.582 3.704-1.909 1.431-4.687 1.432-2.245 0-4.041-.982a7.23 7.23 0 0 1-2.779-2.835q-.982-1.824-.982-4.21 0-2.414.982-4.238.983-1.824 2.751-2.806 1.768-.983 4.069-.983 2.218 0 3.957.955a6.6 6.6 0 0 1 2.723 2.722q.982 1.74.982 4.013m-4.07-1.122q-.027-1.515-1.094-2.414-1.066-.926-2.61-.926-1.46 0-2.47.898-.982.87-1.207 2.442z"/></g><defs><clipPath id="a"><path fill="#fff" d="M0 0h154v62H0z"/></clipPath></defs></svg>