<svg xmlns="http://www.w3.org/2000/svg" width="223" height="80" fill="none"><path fill="#141414" d="M93.043 52.661q-2.692 0-4.903-.833-2.179-.833-3.75-2.339-1.57-1.538-2.434-3.685-.834-2.179-.834-4.839t.834-4.806q.833-2.18 2.37-3.685 1.539-1.538 3.718-2.371 2.18-.834 4.87-.833 2.051 0 3.782.512 1.762.513 3.108 1.538a8.5 8.5 0 0 1 2.307 2.532q.929 1.537 1.346 3.557H98.65q-.672-1.795-2.179-2.692t-3.525-.897q-1.377 0-2.499.609a6.1 6.1 0 0 0-1.858 1.602 7.9 7.9 0 0 0-1.154 2.275 9.2 9.2 0 0 0-.385 2.66q0 1.377.385 2.66a7.9 7.9 0 0 0 1.186 2.306 6.1 6.1 0 0 0 1.858 1.602q1.122.61 2.5.61 2.212-.001 3.556-.866 1.379-.897 2.115-2.756h4.807q-.897 4.263-3.525 6.217-2.595 1.922-6.89 1.922m11.585-24.225h5.256v23.745h-5.256zm6.313 15.862q0-1.954.737-3.493.737-1.57 1.955-2.627a8.1 8.1 0 0 1 2.82-1.635 9.8 9.8 0 0 1 3.332-.576q1.731 0 3.333.576a8.1 8.1 0 0 1 2.82 1.635 7.6 7.6 0 0 1 1.986 2.627q.737 1.539.737 3.493t-.737 3.525a8.1 8.1 0 0 1-1.986 2.627 8.5 8.5 0 0 1-2.82 1.667 10.3 10.3 0 0 1-3.333.544q-1.73 0-3.332-.544a8.5 8.5 0 0 1-2.82-1.667 8.3 8.3 0 0 1-1.955-2.627q-.737-1.57-.737-3.525m8.844-4.87q-.833 0-1.538.352a3.6 3.6 0 0 0-1.185 1.025q-.513.641-.802 1.538a7 7 0 0 0-.256 1.955q0 1.09.256 1.987.29.897.802 1.538.512.64 1.185 1.025.705.353 1.538.353 1.698 0 2.724-1.346 1.057-1.378 1.057-3.557 0-2.147-1.057-3.493-1.026-1.377-2.724-1.378m16.67 13.233q-1.827 0-3.108-.512-1.282-.513-2.115-1.378a5.8 5.8 0 0 1-1.186-2.051 8.7 8.7 0 0 1-.352-2.5v-9.773h5.255v7.563q0 .833.096 1.73.128.865.384 1.602.256.705.705 1.154.481.448 1.186.448.737 0 1.25-.512.513-.513.801-1.346a8 8 0 0 0 .448-1.859q.16-1.057.161-2.115v-6.665h5.287V52.18h-2.724l-.673-4.71h-.32q0 .768-.257 1.698a4.8 4.8 0 0 1-.865 1.666q-.609.768-1.57 1.314-.962.512-2.403.512m17.633 0a9.2 9.2 0 0 1-2.66-.416 7.2 7.2 0 0 1-2.531-1.378q-1.122-.993-1.859-2.596-.705-1.602-.705-3.973t.705-3.973q.737-1.603 1.859-2.564a7.2 7.2 0 0 1 2.531-1.378 9.2 9.2 0 0 1 2.66-.416q2.178 0 3.717 1.09 1.57 1.088 2.018 2.819h.321v-11.44h4.999V52.18h-3.878l-.865-4.775h-.32a6.4 6.4 0 0 1-.737 1.987 7.2 7.2 0 0 1-1.346 1.666 5.7 5.7 0 0 1-1.763 1.154 5.15 5.15 0 0 1-2.146.448m1.442-13.618q-.961 0-1.699.416-.705.417-1.185 1.154a6 6 0 0 0-.705 1.666 8.8 8.8 0 0 0-.225 2.019q0 1.09.225 2.05.256.962.705 1.7.48.704 1.185 1.12.738.417 1.699.417 1.25 0 2.05-.48.834-.513 1.314-1.314a5.4 5.4 0 0 0 .705-1.827q.224-1.025.224-2.083 0-.93-.32-1.794a4.5 4.5 0 0 0-.865-1.57 3.85 3.85 0 0 0-1.346-1.058 3.76 3.76 0 0 0-1.762-.416m14.551 19.45q-1.154 0-2.211-.448a6.1 6.1 0 0 1-1.858-1.186 6.17 6.17 0 0 1-1.955-3.877h2.243q.096.513.352.993.257.48.673.865t.994.61q.609.255 1.378.255.737 0 1.409-.288a4 4 0 0 0 1.218-.737q.545-.48.897-1.121a3.9 3.9 0 0 0 .449-1.378h-2.596l-5.703-15.734h5.255l3.685 11.728h.609l3.749-11.728h5.255l-5.896 15.606q-.674 1.826-1.634 3.044-.93 1.25-1.987 1.986-1.057.77-2.179 1.09a7.8 7.8 0 0 1-2.147.32M64.76 43.427a8 8 0 0 1-10.112-1.769 8.002 8.002 0 0 1 12.228 0 8.002 8.002 0 0 0-7.526-13.034 8.004 8.004 0 0 1-6.114 10.59 8.003 8.003 0 0 1 6.115-10.59 8.001 8.001 0 0 0-15.057 0 8.003 8.003 0 0 1 6.114 10.59 8 8 0 0 1-6.108-10.59 8.001 8.001 0 0 0-7.526 13.034 8.004 8.004 0 0 1 12.228 0 8.003 8.003 0 0 1-12.228 0A8.003 8.003 0 0 0 44.3 54.693a8.002 8.002 0 0 1 6.113-10.589 8.006 8.006 0 0 1-6.113 10.59 8.001 8.001 0 0 0 15.056 0 8.005 8.005 0 0 1-6.115-10.59 8.003 8.003 0 0 1 6.115 10.59 8.001 8.001 0 0 0 7.52-13.036 8 8 0 0 1-2.116 1.77"/></svg>