<svg xmlns="http://www.w3.org/2000/svg" width="558" height="493" fill="none"><g clip-path="url(#a)"><path fill="#141414" d="M-6 .436h557.753v492.871H-6z"/><path fill="#DADADA" d="M88.555 164.591c1.714 1.859 2.445 3.653 3.764 5.745-2.046-.058-4.893.359-6.798-.259l-.348-.111-.206-.077c.93-.457 2.087-.258 2.863-.836.666-1.271.6-3.044.725-4.462m19.085-27.211 3.125.49c1.075.155 2.452.857 3.114 1.74.26.348.326.697.441 1.1l.108.316c-1.056-.379-2.841-.848-3.917-.498l1.455.604c-1.22.057-2.287-.223-3.534-.2z"/><path fill="#DADADA" d="M83.752 167.817c.543-.893.274-1.997.665-2.915.336-.785 1.062-1.13 1.779-1.49.908.179 1.593.688 2.358 1.179-.124 1.418-.058 3.191-.724 4.462-.776.578-1.933.379-2.864.836l-1.124-.874.105-.112.4-.324zm28.506-22.618c.771.47 1.328.789 1.804 1.592.134 2.15.478 12.166-.21 13.626-.436.208-.442.138-.892.057l-.242-.927c-.451-1.232-.194-3.359-.188-4.707l-.269-5.632c-.106-1.313-.381-2.734-.003-4.009"/><path fill="#DADADA" d="m112.718 159.547.168-5.868c.134.13.786.675.82.8.416 1.554.105 4.257.147 5.938-.436.208-.443.138-.892.057zM233.18 344.102l.586-.003c1.009.649 1.418 2.269 2.049 3.279 1.619 2.591 4.335 4.485 5.539 7.322l-.469.459c-.389-.077-.395-.061-.817-.237-2.198-.917-6.555-5.884-7.261-8.095-.361-1.128-.118-1.735.373-2.725m77.766-5.719.717-.048.253.456c-.394 1.663-6.034 10.503-7.303 11.416l-.834-.087c-.297-1.166-.019-1.996.483-3.068 1.318-2.817 3.651-7.563 6.684-8.669m195.871-104.248c.818-1.352 1.527-3.041 1.998-4.553.702-2.255 1.351-7.795 3.049-9.242.634-.54 1.142-.338 1.9-.255-.9 5.545-3.305 10.563-5.943 15.457zm-57.508-10.344.489-.472-.05-.287c-.531-3.384-.388-9.326 1.111-12.433l.409-.239c.941 1.16-.377 8.748.407 11.077.791 2.353 2.214 4.683 4.047 6.364 1.639 1.502 4.54 2.969 5.319 4.972-2.553-1.074-5.166-3.313-7.271-5.089-1.512-1.276-3.086-2.464-4.461-3.893m-7.74-22.757.304.712.277-.077c.38-1.307.63-3.853 1.878-4.611.57-.347.997-.457 1.657-.226.214.075.419.271.59.417-.103 1.833-.77 3.741-1.149 5.542-.76 3.616-1.811 8.208-1.471 11.885.11 1.187.489 2.329.629 3.52-1.283-1.341-2.313-3.314-2.788-5.106l-.099-.392c-.967-3.711-.466-7.927.172-11.664m36.996-42.576c2.31.138 3.418 1.324 4.894 2.978.888.994 1.269 1.848 1.422 3.167-1.059.285-1.916.429-2.476 1.48-.645 1.215-.389 3.639-.393 5.044-.33-1.018-.018-2.275-.507-3.205-.578.315-1.107.297-1.748.32l-.294.01-.407.579c-.972-.929-2.153-1.57-3.326-2.208l-.026-6.387c.618-.082 1.263-.143 1.827-.426.808-.405.775-.536 1.034-1.352m-202.741 90.598c.848-.008 1.386-.132 2.1.449.624.509.617 1.141.613 1.865l-1.781 1.77.206.545c3.453 1.637 8.497.999 12.263.907.791.463.72.521 1.003 1.408-.294 1.14-.766 1.531-1.656 2.27l-.386.156c-3.386 1.299-9.071 1.343-12.408-.188-1.151-.529-2.212-1.39-2.581-2.646-.502-1.709-.239-3.617.606-5.175.47-.867 1.118-1.091 2.021-1.361m5.211-24.817c2.25-.124 4.224-.02 6.368.73 3.013 1.054 8.506 3.483 9.8 6.657.255.626.206.949-.029 1.559l-1.004.417c-1.258-.074-2.21-.411-3.368-.896-2.393-1.197-5.017-2.754-7.7-3.112-1.543-.205-3.313.061-4.872.137-1.515.072-2.923.243-4.093-.942-.589-.599-1.022-1.206-1.052-2.065 1.608-1.918 3.598-2.189 5.95-2.485M83.842 169.015c-2.064-.403-3.614-.8-5.282-2.18-6.6-5.459-8.487-18.046-9.299-26.098-.125-1.245-.482-2.816.322-3.8l1.09.138c1.7 1.802 2.747 9.918 3.565 12.79.97 3.412 2.019 7.197 3.582 10.386 1.45 2.959 3.96 4.976 5.932 7.566l.594.762-.399.324zm303.284-5.054c.968-.189 2.358-.199 3.201.396.649.459.813.898 1.002 1.634-.118.693-.229 1.106-.764 1.621-1.154 1.113-2.885 1.787-4.344 2.413-4.17 1.79-8.465 3.197-13.044 3.236-1.386-.427-2.554-.908-3.646-1.912-.623-.573-.702-.857-.699-1.679.379-.618.663-.984 1.359-1.249 1.458-.554 3.397-.56 4.957-.951zm-69.33-62.514c1.067-.259 1.959.268 2.885.727.592.833.655 1.069.753 2.083.252 2.613-.193 5.451-.206 8.093-.021 4.26.385 8.539.136 12.79-.512.642-.722.587-1.5.768l-.544-.045a2.45 2.45 0 0 1-1.677-.994c-2.653-3.691-1.993-9.978-1.881-14.285.055-2.107-.06-4.483.379-6.542.265-1.247.585-1.902 1.655-2.595"/><path fill="#DADADA" d="M484.881 164.603c4.066-.277 7.122-.533 9.948-3.807 2.478-2.871 4.108-6.273 6.782-9.025-.198 4.649-2.246 9.768-5.733 12.937-2.321 2.109-5.409 2.606-8.367 3.225-.325.068-1.936.273-2.12.441-.046.042-.119.55-.123.593-.154 1.798.01 4.028.323 5.802l1.307 6.022c.278 1.135.805 2.611.352 3.719-.734.059-1.123.234-1.726-.308-1.875-1.684-3.122-10.401-3.512-13.075.004-1.405-.252-3.829.393-5.044.56-1.051 1.417-1.195 2.476-1.48M274.155 289.362c1.172-.131 1.342-.053 2.406.475.312.493.477.623.509 1.227.064 1.237-.482 2.067-1.325 2.908-4.496 4.484-12.266 7.58-18.542 8.261-1.817.197-3.721.113-5.55.109-.777-.072-2.002-.329-2.56-.886-.339-.338-.135-.896-.102-1.335.203-.284.348-.62.609-.851.472-.419 1.849-.466 2.451-.541l5.826-.932c3.539-.701 7.51-2.12 10.545-4.114 2.006-1.317 3.758-2.957 5.733-4.321M217.3 102.808c.821-.072.986-.012 1.746.325 1.022 1.204 1.541 2.808 2.146 4.257 1.862 4.465 2.882 8.579 3.859 13.3.383 1.852 1.051 3.843 1.07 5.729.016 1.39-.329 2.241-1.305 3.197l-.459.119c-.861.068-1.631-.469-2.167-1.097-.936-1.097-1.746-2.862-2.154-4.247-.483-1.64-.666-3.432-.985-5.114l-1.719-8.979c-.307-1.731-1.236-4.4-1-6.122.117-.848.318-.897.968-1.368m150.493 25.6c.351-.033.367-.061.744.03.816.197 1.596.978 1.92 1.737.356.836.212 1.758-.078 2.591-.908 2.61-3.298 4.911-5.137 6.914-3.035 3.304-6.38 7.372-10.462 9.346-.266.051-.725.177-1.009.149-.845-.084-1.067-.462-1.615-1.022-.102-.822.071-1.371.435-2.115 2.324-4.756 6.658-8.592 10.03-12.593 1.086-1.289 1.958-2.837 3.231-3.946.578-.502 1.229-.823 1.941-1.091"/><path fill="#141414" d="m106.828 149.745.882.261c.331-.079 1.105-.158 1.363-.325 1.395-.904 1.053-3.48 2.314-4.731l.871.249c-.378 1.275-.103 2.696.003 4.01l.269 5.631c-.307.26-.891.627-1.109.939-.703 1.006-.902 3.346-1.517 4.603-1.577 3.224-3.177 5.937-6.71 7.346-.441.175-1.64.531-1.934.853-1.517 1.664-1.628 4.785-2.798 6.597-.486-1.984-.079-3.967-.487-5.919l-.338-10.446c2.049-.18 4.165-.229 5.621-1.903.862-.991 1.333-2.388 1.235-3.693-.041-.542-.06-.622.093-1.186.751-.02 1.142-.123 1.807-.473.424-.69.476-1.007.435-1.813"/><path fill="#DADADA" d="M175.701 121.768c1.241-.112 2.491-.263 3.556.496 2.889 2.059 5.282 4.454 7.944 6.777 3.644 3.18 8.585 6.386 10.848 10.763.61 1.177.739 1.75.351 3.005-.74.668-.89.803-1.907 1.031-2.335-.595-4.715-3.079-6.637-4.538-5.205-3.955-10.621-7.872-15.291-12.464-1.158-1.139-1.331-1.716-1.33-3.332.709-1.023 1.388-1.216 2.466-1.738m-16.271 26.193c4.05-.357 8.764.605 12.766 1.279 1.319.221 2.606.748 3.904 1.08 3.629.927 9.506 2.003 11.738 5.187.117.967.125 1.469-.288 2.361-.924.671-1.226.668-2.327.801-5.605-1.157-11.325-1.666-16.917-2.935-3.502-.796-6.952-2.099-10.349-3.264-.78-.268-1.403-.666-1.732-1.457-.153-.366-.323-1.011-.111-1.35.697-1.115 2.135-1.406 3.316-1.702M459.685 47.71c7.752-.486 12.191 2.544 18.163 7.04 2 1.505 4.088 2.983 6.614 3.428 3.494.616 8.421-.156 11.692-1.512 2.445-1.014 4.054-2.752 6.859-2.481.76.448.903.42 1.189 1.236-.619 1.174-1.494 1.818-2.504 2.635l-2.637 1.72c-2.193 1.287-4.525 1.569-6.985 1.992-5.923 1.018-11.833-.21-16.842-3.507-2.87-1.888-5.564-4.07-8.679-5.563-2.885-1.383-5.58-1.69-8.612-2.451-.516-.553-.533-.517-.547-1.267.718-.78 1.283-.973 2.289-1.27m6.592 188.048c.393-1.408-.081-3.568-.106-5.078l.059-9.131.561-.369c.183.123.443.175.55.369.18.326.17 1.846.21 2.315.207 2.396.282 4.874.954 7.196.609 2.101 2.023 3.708 3.938 4.749l.329.174c1.443.779 2.802.861 4.417 1.006-.106-3.213-.633-6.347-.632-9.59.001-1.126-.082-2.368.391-3.416.188-.418.608-.449 1.009-.614.179.119.464.156.539.358.146.398.006 1.706.009 2.187.017 2.855-.322 6.883.82 9.539.806 1.876 3.613 3.005 5.406 3.659 1.925.702 5.378 1.438 7.28.418.67-.359 1.113-8.983 1.325-10.293.15-.927.471-1.801.799-2.677.405 2.077-.333 11.781.298 12.6l1.09-.064c3.829-.737 3.279-8.471 5.094-11.092l.487-.009c1.944 1.984 2.102 6.028 2.389 8.704 1.304-.772 2.311-1.407 3.323-2.564l1.004 1.408-1.292 2.225-.056.01-.736-.25c-1.745 1.329-5.21 3.931-7.396 4.16-1.456-.951-5.862-.187-7.755-.166-1.718.021-3.474-.128-5.177-.353-6.651-.882-13.113-2.349-19.131-5.411M219.206 433.43c.453.092.617.241.981.51.722 1.628.378 4.001.359 5.767l-.057 10.309.79 18.631 1.22 9.974c.455 3.072 1.183 6.301.418 9.375-.06.241-.132.491-.23.719-.451 1.048-.65 1.372-1.683 1.82-.468-.165-.98-.384-1.294-.798-1.554-2.046-1.613-6.369-1.897-8.933-1.029-9.278-1.239-18.658-1.275-27.987-.017-4.402-.231-8.925.419-13.286.291-1.947.624-4.904 2.249-6.101m82.764-115.473.874-.083c.309.193.666.39.921.658.486.511.748 1.328.67 2.013-.133 1.183-.914 2.443-1.569 3.403-2.52 3.697-6.507 7.054-10.16 9.592-7.492 5.203-17.038 6.697-25.954 5.129-.627-.236-1.121-.442-1.626-.893-1.095-.977-1.24-1.612-1.313-3.07.417-.536.364-.46 1.057-.486 2.733-.1 5.563-.126 8.273-.485 8.556-1.134 15.653-4.118 22.341-9.607 2.135-1.753 3.821-4.284 6.029-5.855zm-51.752-75.437c.199-.057.404-.132.618-.101.808.119 1.079.485 1.579 1.053.28 2.77-1.477 6.184-2.533 8.701-2.166 5.16-4.452 10.054-7.224 14.928-2.63 4.623-5.777 8.734-7.704 13.747 3.001 3.298 6.946 4.441 11.255 4.982 1.081.135 2.413.116 3.392.61l.12.607c-.371.543-.635.936-1.251 1.211-2.967 1.33-7.714.586-10.669-.46s-4.856-2.358-6.235-5.268c-1.323-6.753 5.279-13.961 8.737-19.231-.795-.302-1.596-.61-2.334-1.034-2.891-1.656-4.981-5.244-5.723-8.458l-.075-.35c-.543-.13-1.439-.263-1.859-.642-.461-.418-.846-1.467-.931-2.066-.107-.748-.052-1.138.466-1.693 1.015-1.088 2.525-1.551 3.958-1.679.882.275 1.419.524 1.995 1.27 1.039 1.345.496 3.108.333 4.63-.151 1.414-.019 2.945.942 4.072 1.306 1.533 3.175 1.667 5.036 1.741.941-.526 1.407-1.921 1.875-2.87l3.163-6.832c.903-2.215 1.531-5.011 3.069-6.868m-51.262 163.131.76-.018c.38.295.85.499.985.984.274.986.099 2.259.046 3.275-.147 2.834-.603 5.676-.972 8.491l-2.409 18.451c-1.131 8.917-2.438 17.902-2.836 26.884l-.327 13.11c.008 1.665.39 3.75.206 5.351-.031.269-.139.403-.27.611-.838.142-1.222.039-2.003-.22-1.077-.941-1.847-2.036-2.11-3.47-.43-2.357-.285-4.971-.289-7.369-.023-12.907 1.973-25.521 3.678-38.278.968-7.251 1.82-14.546 3.509-21.672.483-2.04.878-4.35 2.032-6.13"/><path fill="#DADADA" d="m498.34 241.688-.802.589c-1.297.84-2.973 1.288-4.459 1.682-5.791 1.536-11.555 1.164-17.343-.156-12.922-2.948-24.504-11.477-33.243-21.135-1.498-1.655-3.289-3.321-4.433-5.248-3.282-5.522-1.659-13.664-.001-19.487.591-2.075 1.474-3.801 3.405-4.874l.624.513c.809 2.006-.122 5.365-.519 7.462-.638 3.737-1.139 7.953-.172 11.664l.099.392c.475 1.792 1.505 3.765 2.788 5.106 1.517 1.981 3.162 3.929 5.025 5.595 1.374 1.43 2.949 2.617 4.461 3.893 2.105 1.776 4.718 4.015 7.271 5.089 1.559 1.226 3.444 2.146 5.236 2.985 6.019 3.062 12.481 4.529 19.131 5.411 1.704.225 3.459.374 5.177.353 1.893-.021 6.3-.785 7.755.166M455.418 71.124c2.503-.35 5.1.27 7.414 1.212 6.532 2.658 12.51 8.066 15.233 14.613l1.572-3.476c2.747-5.124 6.885-9.47 12.652-11.014 1.99-.533 4.766-.428 6.558.701.582.367.656.358.803 1.053-1.363.964-3.096 1.242-4.676 1.72-2.579.781-5.056 2.044-7.03 3.898-3.33 3.125-6.735 9.36-6.884 13.99l1.119.261 3.184.237c2.082.297 6.42 1.063 7.709 2.751l-.167.565c-1.915.67-4.91.082-6.958-.072-4.863-.366-10.058-1.106-14.92-.483-.249.032-1.644.182-1.79.314-.473.43-.201 3.214-.948 4.164l-.817-.305c-.774-.89-1.148-1.713-1.193-2.911-.031-.811.178-1.458.763-2.034 2.33-2.299 6.374-2.129 9.384-2.146-1.202-2.186-2.218-4.44-3.589-6.537-3.608-5.515-8.966-10.115-15.416-11.889-1.746-.48-4.301-.09-5.744-1.055l-.138-.74c.767-1.632 2.31-2.2 3.879-2.817M376.41 393.396l.656-.125c.283.182.675.403.899.67 1.087 1.293.755 4.706.773 6.362.06 5.507-.205 11.145.189 16.632 1.174 16.341 4.533 32.242 7.933 48.245l3.745 18.736c.396 2.311 1.011 4.779 1.076 7.12.023.852.116.961-.464 1.568l-1.089-.12c-1.066-.619-1.903-1.437-2.284-2.641-1.458-4.608-2.025-9.588-3.064-14.315l-5.291-25.595c-3.112-15.676-5.819-32.119-4.603-48.142.197-2.596.296-6.097 1.524-8.395M97.637 158.813l-3.639-.041c.585 3.309 1.16 6.659 1.45 10.007l.457 7.725c.116 1.141.872 3.188.498 4.194-.931.066-.973.051-1.765-.444-2.099-3.98-1.937-9.193-2.442-13.57l-1.052-7.672c-2.827-.991-6.467-1.213-9.435-1.822-1.144-.235-2.588-.462-3.527-1.197-.737-.577-.733-1.144-.825-1.985.132-.163.21-.394.396-.49.706-.366 5.428.684 6.405.821 3.602.502 7.036.651 10.674.614 1.507-.016 3.118.089 4.598-.206.358-.585.517-1.551.46-2.236-.001-.013-.092-.609-.187-.681-.978-.745-6.037-.672-7.487-.852-3.095-.384-15.39-2.374-17.187-4.74-.466-.615-.416-.796-.271-1.485.817-.356 2.073.015 2.934.196l8.45 1.801c4.725.767 9.437 1.177 14.208 1.536l.162-2.901c.162-1.778 1.117-.846 2.135-1.725-.349-.892-1.029-1.25-1.905-1.619-4.186-1.767-9.143-2.528-13.548-3.785-3.806-1.086-7.5-2.514-11.356-3.429-1.616-.383-5.703-.307-6.726-1.243l.05-.817c.223-.36.44-.651.805-.881 1.481-.926 4.24-1.637 5.964-1.428 3.513.428 7.449 2.349 10.841 3.487l15.888 4.759c-.123-1.135-.63-2.993-.123-3.987l1.769.066c1.665.168 2.422 1.375 3.334 2.597l.792 3.552c.052.658.157 1.446-.008 2.09-.364 1.423-2.102 3.199-2.884 4.532-.04.068-.346.589-.345.594.023.152 1.403 1.364 1.633 1.597.041.807-.011 1.123-.435 1.813-.665.35-1.056.453-1.807.473-.153.564-.134.644-.093 1.186.098 1.306-.373 2.702-1.235 3.693-1.456 1.674-3.572 1.723-5.621 1.903m274.34 220.563c1.792 1.42 3.565 2.681 5.573 3.779l1.602-4.931c-5.731-2.878-10.557-6.663-14.105-12.081-2.599-3.971-4.503-9.034-5.987-13.526-2.094-6.331-3.279-12.786-2.517-19.463.197-1.719.426-3.665 1.176-5.236.378-.79.613-1.113 1.362-1.569.584.304.743.354.995 1.004.356.918.2 2.327.215 3.324.026 1.89.107 3.741.333 5.619.553 4.584 1.54 9.142 3.464 13.36 3.363 7.369 10.402 14.636 17.331 18.754 3.262 1.938 7.566 4.233 11.346 4.841 1.042.168 2.803.102 3.302 1.081-1.236 2.024-6.038 4.145-8.368 4.771-1.513.405-4.079-.071-5.658-.298-.347 2-.542 4.034-1.948 5.603l.321 1.42c.13.53.088.79-.039 1.304-1.015.349-2.094.25-3.071-.193-1.64-.743-3.113-2.109-4.426-3.307-.349-.318-1.015-.789-1.238-1.194-1.31-1.393-2.565-2.598-2.884-4.566l.401-.379c1.05.476 1.91 1.188 2.82 1.883m-135.83-.525.788-6.023c.061-.397.063-1.317.235-1.638.441-.825 1.912-2.028 2.63-2.645 2.222 5.377 1.313 11.609 1.212 17.301-.423 23.633-3.958 47.357-1.435 71.005.545 5.106 1.329 10.846 3.12 15.697.603 2.326 1.314 4.666 2.228 6.89.653 1.593 2.939 4.995 2.862 6.554l-.502.098c-1.376.03-2.734-1.246-3.68-2.122-5.044-4.669-6.811-11.853-7.905-18.404-1.511-9.045-1.457-18.477-1.317-27.622l1.1-34.857c.354-8.128.956-16.082.664-24.234m57.192 30.642.095-26.227c.084-4.414-.068-9.141.85-13.463.275-1.292.629-2.446 1.628-3.369.728-.673 1.343-.738 2.301-.754.539.894.362 2.528.385 3.597l-.09 10.92-.303 36.347c.191 12.982 1.018 26.014.485 38.995-.293 7.129-1.039 14.561-2.743 21.492-.732 2.976-1.622 5.91-3.086 8.616-.425.786-.981 1.856-1.729 2.386-.724.513-1.162.5-2.002.381-.553-.411-.971-.71-.994-1.469-.071-2.364 1.537-5.834 2.115-8.205.819-3.359 1.025-6.898 1.98-10.19.079-1.646-.266-3.226-.279-4.866l.146-5.864c-.04-5.049-.252-9.955.285-14.994z"/><path fill="#DADADA" d="m293.339 409.493.859 33.845-1.815-.512z"/><path fill="#DADADA" d="m292.384 442.826 1.815.511c.061 5.457.01 10.76-.425 16.207-.209 2.61-.324 5.475-1.252 7.93l-.29 1.076c.079-1.646-.266-3.226-.28-4.866l.147-5.864c-.041-5.05-.253-9.955.285-14.994m-28.358-101.719.473.008c.732 1.183.793 3.387 1.019 4.788 1.393 1.571 2.767 3.129 4.78 3.908 6.661 2.576 16.163.168 21.853-3.835 1.775-1.249 3.296-3.285 5.245-4.197l.486.281c.072.566.127 1.014.004 1.581-1.013 4.668-7.437 8.954-10.854 11.898-3.623 3.119-6.978 6.213-10.998 8.845-2.503 1.601-5.579 3.046-8.454 3.811l-.402.101c-1.552.403-4.147.032-5.378.759l-.02 1.056c-.468.698-.919.716-1.695.998l-.455-.244-.053-1.844c-.829-.975-3.523-1.338-4.831-1.94a13.7 13.7 0 0 1-3.847-2.655c-1.193-1.157-2.302-2.426-3.145-3.865-.906-1.547-1.451-4.399-2.784-5.451-.78-.094-1.487-.083-2.081-.659-.001-2 .57-3.807 1.944-5.312.655-.718.954-.815 1.907-.87.974.38 1.279 1.178 1.843 1.985.442.632.465.738 1.264.842 3.299.434 6.789-1.078 9.45-2.914.591-.408 1.543-1.052 1.91-1.685.46-.791.493-2.055.811-2.94.396-1.105 1.107-1.741 2.008-2.45m207.736-159.592c.782.092.767.108 1.313.681.25 2.225-.994 4.794-1.619 6.918-1.358 4.609-2.649 9.181-4.385 13.668 6.288 3.58 13.717 5.567 20.816 6.707.73-2.341.535-5.579 2.383-7.344.299-.103.58-.29.896-.308.93-.05 8.178 5.155 10.063 5.887-2.702-3.786-9.278-5.317-10.945-9.593-.369-.947-.327-1.687.065-2.602 1.424-.045 3.116 1.322 4.34 2.064 4.365 2.643 8.584 5.396 12.494 8.693 1.427 1.202 2.829 3.575 4.545 4.17l.468-.278c.062-1.137-.485-2.03-1.132-2.949-1.178-1.678-2.941-3.128-4.409-4.552l-6.899-6.947c-2.484-2.571-4.734-4.865-6.236-8.155 6.586 4.134 11.938 9.219 17.582 14.496 1.892 1.807 3.766 3.681 5.165 5.905.16 1.21.382 3.512-.395 4.518-1.768 2.289-6.41 2.838-9.099 3.247-20.853 3.173-41.812-6.628-58.252-18.781-1.698-1.255-5.167-3.651-5.492-5.777.274-.751.878-1.354 1.523-1.814 1.197-.852 2.796-1.056 4.215-1.209 4.507-.484 10.039.026 14.482.999 1.063.234 2.377.52 3 1.479-.134.712-.221 1.155-.633 1.771-2.762.382-6.031-.817-8.859-1.063-2.854-.248-5.737-.129-8.598-.051l16.318 6.841 2.224-6.119 2.135-4.81c.784-1.905 1.449-4.218 2.926-5.692m-28.662 51.2.491.178c.233.476.339.812.366 1.351.168 3.418-.666 7.144-1.451 10.452-4.109 17.309-15.228 33.922-29.465 44.59-3.036 2.275-6.282 4.375-9.753 5.925-1.02.455-2.802.687-3.66 1.247-.223.143-.721 1.086-.883 1.345-1.153 1.849-1.999 3.869-3.163 5.721-1.14 1.812-2.522 3.607-3.95 5.2-.432.481-.851 1.157-1.504 1.19-.21-.343-.473-.74-.589-1.126-.836-2.768 3.016-6.825 4.563-8.961l2.413-3.696c-6.45 1.196-12.942 2.828-18.914 5.601-11.51 5.346-21.209 14.972-29.213 24.669-6.253 7.574-11.82 13.952-20.612 18.758l-14.645 6.537c.095-.9.042-3.116.404-3.834.26-.514 2.337-1.321 2.884-1.584 5.021-2.407 10.313-4.798 14.76-8.176 13.446-10.21 21.048-26.54 35.347-35.845 7.192-4.68 14.978-7.315 23.27-9.287 6.785-1.613 13.702-2.55 19.694-6.391 3.889-2.492 7.187-6.089 10.239-9.532 5.222-5.89 9.743-12.561 13.236-19.625 2.426-4.904 4.362-10.083 6.155-15.251.872-2.515 1.552-5.253 2.682-7.652.353-.75.699-1.236 1.298-1.804m70.664-12.63c.26-1.189.44-2.313 1.095-3.36.584-.154 1.387.012 1.907.326.661.398.883.896.982 1.639.822 6.133-2.525 13.224-5.599 18.31-1.254 2.077-2.779 3.978-3.685 6.242l-8.182 23.596c-3.055 8.283-6.78 16.472-10.68 24.391-5.55 11.268-11.645 22.025-19.8 31.63-6.222 7.33-13.441 13.766-20.554 20.202l-23.591 19.923c-6.796 5.349-13.745 10.688-21.392 14.777-5.301 2.835-11.121 4.865-17.021 5.993 5.02-4.405 11.221-7.255 16.839-10.8 5.37-3.389 10.317-7.276 15.346-11.133l30.937-26.064c5.36-4.87 10.993-9.849 15.599-15.452 12.51-15.213 21.363-33.668 28.634-51.849l7.691-22.03c1.138-3.001 3.056-5.649 4.183-8.648l.056-.009 1.292-2.226c2.638-4.894 5.043-9.913 5.943-15.458m-395.866-12.404.154-.226c.461-.663.747-1.005 1.505-1.357.974.127 1.531.463 2.122 1.267 2.29 3.115 1.162 25.823-.029 29.885-1.17 3.995-5.327 6.433-8.81 8.188-6.617 3.335-13.477 5.078-20.758 6.158-10.507 1.557-21.328 1.602-31.493-1.823-3.703-1.247-8.958-2.825-11.513-5.798l-.356-.4c-4.515-5.209-6.69-15.181-6.099-21.868.133-1.504.412-2.948.283-4.463-.033-.388.012-.742.072-1.125 2.082-1.718 3.953-3.715 6.078-5.359 6.203-4.799 13.838-6.436 21.503-6.88l3.383-.167c.105-.004 1.23 0 1.279-.028.001 0 .26-1.125.277-1.192.909-3.877 1.937-7.391 4.259-10.687.726-1.03 1.151-1.407 2.432-1.364.419.727.127 1.232-.085 2.027-.756 2.844-1.843 5.616-2.721 8.426-1.052 3.363-1.941 6.756-3.228 10.042l-3.188 7.184c6.592-.161 13.483-1.787 19.804-3.564.362-1.957.29-4.106.439-6.105l.813-8.839c.14-2.09-.074-5.528 1.038-7.319l.668-.263c.864.448 1.408.849 1.7 1.82.663 2.197.666 4.777.665 7.056 2.338.298 8.962.662 10.412 2.532l-1.065 1.334c-3.127-.093-6.514-.297-9.576-.936l-.301 4.971.389-.079c2.727-.528 5.668-.145 8.435-.057 1.037.033 2.533.24 3.503-.206.243-.112.826-.707.986-.926.234-.319.299-.496.454-.833-.601-1.063-2.326-1.894-3.299-2.695 2.213-.608 6.172-1.868 8.297-.608.411.244.652.59.925.971-.618 2.202-2.227 3.776-3.88 5.279-.851.657-1.776 1.289-2.546 2.038-3.971 2.65-8.353 4.975-12.866 6.559-3.2 1.123-6.568 1.686-9.908 2.21-7.818 1.225-16.146 1.579-23.944.043-3.077-.606-7.877-1.42-10.125-3.747-.078-.624-.218-.654.184-1.194.689-.923 1.807-1.355 2.829-1.809 3.507-1.559 7.246-2.543 10.953-3.498 1.966-.506 4.472-.739 5.758-2.46l-.312-.36c-6.82.458-12.488 1.05-18.693 4.181-1.915.966-3.951 2.123-5.464 3.669-.274.279-.314.36-.507.645-1.293 2.224.028 12.473.687 15.002.87 3.337 2.28 6.605 4.045 9.564.406.725.768 1.478 1.306 2.114.01.995-.425 2.032-.718 2.976 3.096.461 6.112 1.312 9.19 1.86 5.267.939 10.647 1.318 15.993 1.291 10.204-.051 20.286-2.05 29.63-6.155 2.448-1.076 5.298-2.338 7.157-4.325a7.7 7.7 0 0 0 1.857-3.487c.505-2.175.472-4.718.535-6.952.191-6.725-.381-13.419-.515-20.138m-.703-106.381c-.023 1.947.224 3.624.858 5.481-1.508 1.366-4.517 3.506-5.08 5.424.108.971.06 1.138.729 1.902l1.281.255-.08.148c1.893.893 3.114 2.267 3.806 4.266.73 2.11 1.043 4.378 1.568 6.545 1.357 5.595 3.776 11.316.924 16.891a7.2 7.2 0 0 1-1.083 1.584c.045.562.207.874.453 1.365 1.687 3.372.915 7.477-.258 10.898l-1.535 4.375c-.559 1.671-.86 3.527-2.353 4.607-.816.017-.939.027-1.634-.387-.456-1.53.668-4.202 1.037-5.791.496-2.136 2.862-12.561 2.08-14.066-.484-.934-2.219-2.522-3.117-2.975-.786-.398-1.963-.729-2.826-.69l-1.454-.604c1.076-.349 2.861.119 3.916.498l.507.226.555-.316c.849-1.481 2.554-4.033 2.249-5.772-.143-.814-.355-.867-.984-1.334-2.718-.101-5.331.35-8.089.102l-4.969-.629c-.859-.13-1.941-.443-2.803-.323-.589.082-.421 1.045-1.011 1.315-.86.393-2.597.398-3.473-.01-.766-.358-.99-.929-1.299-1.655.106-.577.175-.921.542-1.396.32-.415.773-.83.927-1.343.276-.918-.106-2.06-.602-2.819-2-.971-4.912-1.104-7.124-1.661-3.494-.878-7.012-2.436-10.549-3.008-1.056-.172-2.007-.035-3.035.229-1.584.409-6.06 1.766-6.877 3.176-6.137 10.594-6.514 23.577-3.22 35.202 1.86 6.56 5.442 12.354 11.45 15.771 1.997 1.135 4.309 1.938 6.221 3.167.749.482 1.124.709 1.307 1.568-1.513.641-4.328-.377-5.903-.872-6.083-1.909-10.714-5.988-13.59-11.656-5.772-11.377-6.433-26.886-2.39-38.925 2.113-6.291 5.2-13.888 9.413-19.11 1.125-1.395 2.532-2.855 4.167-3.624 2.19-1.028 4.826-1.462 7.132-.582.885.338 3.154-.825 4.233-1.057 3.584-.772 6.954-1.329 10.632-1.479 1.653 0 3.474-.148 5.101.084.446.064.763.021 1.208-.014 2.626-.211 5.508.163 7.988 1.024l.327.404c.462-.314.301-.238.728-.426.969-.426 1.714-.765 2.424-1.588l.433-.474.509-.203c.579-.352.525-1.106.633-1.718"/><path fill="#141414" d="M99.813 125.334c3.208.137 6.265.676 9.418 1.23l.249-.132.392-.202c1.981-1.068 4.433-.908 6.636-.967l.274 4.235-.567.565c-4.824 1.395-11.488-.254-16.418-1.01zm-23.136-15.172c.32-.094.607-.176.94-.2 4.297-.317 10.964 2.83 14.099 5.644l-1.649 4.96c-3.213-1.666-5.669-3.137-9.339-3.556-.478.087-.754.131-1.149.441-.444.349-.304 1.645-.402 2.242-3.683.191-7.047.96-9.794 3.539l-.27.258c1.296-3.98 3.872-11.08 7.564-13.328m40.518-8.862c-.023 1.947.224 3.624.858 5.481-1.508 1.366-4.517 3.506-5.08 5.424.108.971.06 1.138.729 1.902l1.281.255-.08.148-1.065.13-.317.425c.36 2.208 1.55 4.392 2.431 6.441l-11.903.148c-1.186.034-4.145.552-5.053.035.168-.651.314-1.163.273-1.842-1.367-.339-2.882-.206-4.284-.204-.054-.467-.067-.241.066-.752.445-1.694.566-3.269.644-5.015-2.254-2.171-4.97-3.427-7.707-4.87l8.512-1.022c1.376-.134 4.368.051 5.497-.613l.312-.198c2.602.598 6.503 1 8.775 2.331l-.087.533c.321.766.372 1.476.443 2.291.583-2.228.879-4.322 1.028-6.619.462-.314.301-.238.728-.426.968-.426 1.714-.765 2.424-1.588l.433-.474.509-.203c.579-.352.525-1.106.633-1.718"/><path fill="#141414" d="M110.997 110.037c.321.766.372 1.475.443 2.291-.382 2.162-.014 4.506.158 6.685l-.346.367c-.991-.031-1.649.006-2.452-.618-.164-.459-.254-.802-.255-1.296-.002-3.211.149-5.053 2.452-7.429M48.731 215.93c.193-.284.233-.365.507-.645 1.513-1.545 3.55-2.703 5.464-3.669 6.205-3.13 11.873-3.722 18.693-4.18l.312.36c-1.286 1.721-3.792 1.953-5.758 2.46-3.707.955-7.446 1.938-10.953 3.498-1.022.454-2.14.886-2.828 1.809-.403.539-.263.57-.184 1.194 2.247 2.327 7.047 3.141 10.124 3.747 7.799 1.536 16.126 1.182 23.944-.043 3.34-.524 6.707-1.087 9.908-2.21 4.513-1.584 8.896-3.909 12.866-6.559.77-.75 1.695-1.381 2.546-2.038l.286.479c.817-.018 1.244 0 1.978.378l.652.327c.601.175.729.152 1.227-.18-.013-.843-.058-1.675.21-2.485l.173-.492c.134 6.718.706 13.413.515 20.138-.063 2.234-.03 4.776-.535 6.952a7.7 7.7 0 0 1-1.857 3.487c-1.859 1.987-4.709 3.249-7.157 4.325-9.344 4.104-19.426 6.104-29.63 6.154-5.346.027-10.726-.351-15.993-1.29-3.078-.548-6.094-1.4-9.19-1.86.293-.945.729-1.981.718-2.976-.538-.636-.9-1.389-1.306-2.114-1.765-2.959-3.176-6.227-4.045-9.564-.659-2.53-1.98-12.778-.687-15.003"/><path fill="#141414" d="M53.463 240.497c-1.765-2.959-3.176-6.227-4.045-9.564-.659-2.529-1.98-12.778-.687-15.003.688.265.776.201 1.092.853l-.098.51c-.428 2.6.363 5.995.765 8.594.394 2.546.641 5.204 1.244 7.708.547 2.271 2.084 4.595 1.73 6.902"/><path fill="#DADADA" d="m113.372 209.654.286.479c.817-.018 1.244.001 1.978.378l.652.327c.601.175.729.152 1.227-.18-.013-.842-.058-1.675.21-2.485l.173-.492c.135 6.719.706 13.413.515 20.138-.063 2.234-.03 4.777-.535 6.952a7.7 7.7 0 0 1-1.856 3.487c-1.86 1.987-4.709 3.249-7.157 4.325-9.344 4.105-19.427 6.104-29.63 6.155-5.347.027-10.727-.352-15.994-1.291-3.078-.548-6.094-1.399-9.19-1.86.293-.945.729-1.981.718-2.976l.523.071c.936-.012 2.008-.249 2.99-.287.118-.095.309-.14.355-.284.092-.291-.3-1.822-.363-2.231a45.4 45.4 0 0 1-.56-6.981c-.002-.784-.126-1.803.164-2.523.141-.349.359-.347.675-.489 1.549 1.154 1.356 6.125 1.7 8.134.29 1.682.692 3.055 1.548 4.554 2.02 1.009 4.349 1.378 6.55 1.797.095-5.007-1.004-10.338.304-15.238.849 1.947 1.034 4.214 1.308 6.305l1.217 9.045c1.955.387 3.988.331 5.975.363.24-4.016-.456-9.044 1.143-12.776l.544-.015c.605.897.629 2.45.656 3.519l.027 9.238 6.342-.487c.555-4.517-.651-9.18-.01-13.806.528 1.422 1.03 2.795 1.315 4.288l1.836 9.012c2.048-.388 4.873-.732 6.412-2.261.468-.466.862-1.05.984-1.708.307-1.659.069-3.833-.051-5.518l-.264-6.678c.76 1.047 1.49 2.211 1.905 3.442.47 1.39.778 2.765 1.047 4.207.181.977.207 2.276.908 3.022 1.361-.04 2.718-.257 3.803-1.165.206-.172.638-.599.752-.817.519-.992.29-2.762.271-3.88-.054-3.203-.245-6.362-.086-9.568.566.928 1.131 1.853 1.44 2.903.704 2.39 1.03 4.912 1.708 7.325.221.785.378 1.684.963 2.284.501.082.943.145 1.45.081 1.179-.148 2.146-.644 2.861-1.606 3.298-4.44-.913-16.714-1.716-21.856l-.569-.335c.771-.749 1.695-1.381 2.546-2.038m-60.714 41.852c.195.056.43.036.584.168.374.318.673 1.352.805 1.803.867 2.959 1.206 6.208 1.69 9.25 2.113 13.285 6.43 26.359 14.088 37.529 2.547 3.713 5.665 7.064 8.695 10.381 6.415 7.024 13.151 13.43 20.366 19.628 20.891 17.947 43.218 35.141 66.675 49.601 5.139 3.168 10.218 6.611 15.83 8.9 5.593 2.282 12.793 3.672 18.821 3.095 4.235-.405 6.852-2.975 9.41-6.09 5.624-6.852 16.911-24.589 15.656-33.771-.444-3.255-2.664-5.983-4.69-8.431-4.877-5.894-10.54-10.641-16.572-15.301-.289 2.663-.276 5.385-.744 8.025-.15.84-.254 1.761-.787 2.45l-.545-.154c-1.837-2.45-.812-8.968-.681-11.958-22.735-9.502-44.982-21.684-62.053-39.798-6.983-7.411-12.496-16.101-15.429-25.884-.586-1.952-1.332-4.344-1.237-6.387.046-.988-.03-1.128.694-1.799l.817.232c1.549 1.688 2.459 4.486 3.417 6.575 2.674 6.093 5.87 12.258 9.845 17.599 5.872 7.888 13.417 14.421 21.187 20.363 7.582 5.799 15.368 10.945 23.844 15.357l19.29 9.158c8.9 4.422 16.977 11.04 23.133 18.837 1.877 2.377 3.849 4.999 4.742 7.94 1.739 5.727-1.629 11.849-3.94 16.927-.678 1.488-1.587 3.135-1.875 4.75-.268 1.506.167 3.249.232 4.784.194 4.525-.889 9.672-2.827 13.754-1.657 3.489-4.043 6.475-6.533 9.395-1.21 1.421-2.621 2.799-3.669 4.336-1.072 1.573-1.702 3.692-2.616 5.407-.396-2.014-.233-6.062-1.334-7.564-1.458-1.991-4.716-1.785-6.913-1.985-2.001-.181-4.019-.424-5.984-.848-10.241-2.209-19.273-7.422-28.196-12.685-15.783-9.311-30.317-19.929-44.818-31.085l-24.645-19.951C90 328.662 83.559 323.17 77.703 317.19c-4.694-4.794-9.182-10.105-12.802-15.758-7.563-11.808-11.926-25.93-13.358-39.814-.257-2.483-.783-6.198-.154-8.614.239-.914.464-1.013 1.269-1.498m426.398-82.675.009 1.109c-.435.698-.624 1.098-1.494 1.226-2.584.379-6.572-2.425-8.434-4.117-2.71-2.465-4.525-5.536-6.207-8.758-4.782-9.157-7.662-20.153-8.224-30.463l-4.421 4.57c-1.593 1.928-1.649 3.415-1.426 5.838.884 9.576 3.292 21.765 9.625 29.285 2.302 2.733 5.004 4.663 7.722 6.913-.252.644-.469.661-1.02 1.043-1.395.205-2.607-.504-3.781-1.181-7.721-4.449-11.191-13.373-13.376-21.566-1.603-6.006-4.464-15.746-.604-21.315 1.516-2.186 3.772-3.891 5.174-6.159.726-1.172 1.206-2.492 1.947-3.656.934-1.469 2.214-2.666 3.094-4.184 2.037-3.511 3.495-7.38 5.555-10.931a6.1 6.1 0 0 1-.067-1.74c.309-.4.66-1.055 1.139-1.234 1.295-.484 3.44-.265 4.88-.412l18.447-1.687c2.639-.204 5.671.156 8.21-.529l.4-.118 1.118-.346c7.385-2.819 12.124-10.503 15.161-17.393 3.639-8.256 5.376-18.075 4.245-27.08-.766-6.097-2.97-12.439-5.205-18.157l-1.812 1.564c-.996.879-2.046 1.105-3.216 1.66-2.531 1.204-4.826 2.48-7.554 3.198-4.756 1.25-9.918.255-13.931-2.544-3.437-2.398-6.233-5.138-10.4-6.277-4.158-1.136-9.718 1.395-13.278 3.457-7.932 4.595-15.696 12.417-17.978 21.508-2.944 11.73 2.476 22.312 9.761 31.204 2.05 2.502 4.721 4.91 6.321 7.71l-.27.389c-.851.091-1.383.008-2.172-.34-7.094-3.137-13.032-12.574-15.682-19.531-3.214-8.436-3.497-17.316.267-25.612 2.589-5.704 7.15-9.902 11.96-13.769 3.379-2.716 6.829-5.209 10.94-6.718 4.134-1.518 10.004-2.988 13.991-.427 3.304 2.121 5.995 4.825 9.654 6.45 5.521 2.455 11.487.975 16.608-1.715 1.328-.697 2.908-1.494 4.035-2.483 1.192-1.046 1.368-3.017 2.961-3.633 1.29.447 2.173 1.293 2.865 2.463 1.6 2.703 2.701 5.79 3.65 8.771 3.552 11.156 3.443 23.324.508 34.629-1.876 7.23-5.378 13.695-9.81 19.664-1.719 2.315-3.648 4.818-6.179 6.283-4.435 2.568-8.359 2.341-13.126 1.044 1.151 1.408 3.393 3.556 3.637 5.391.152 1.147-.028 2.485-.085 3.644-.027.529-.251 1.787-.122 2.25.075.27 2.893 1.946 3.356 2.585 1.2 1.656-.031 5.558-.313 7.519l1.048.848c.558.435 1.164.843 1.634 1.378 2.204 2.501 3.6 8.219 3.396 11.435-.167 2.651-1.48 7.497-3.475 9.282l-.465-.07c-.573-1.454-.7-4.598-.283-6.119.317-1.155.925-2.357.995-3.556.152-2.579-2.056-6.202-3.681-8.144-2.593-.335-6.129-.773-8.708-.435-1.972.259-4.049 1.53-6.11 1.932-4.195.818-9.701.859-13.532 2.715-.863.418-1.168.584-1.512 1.462.11.857.094 1.559.803 2.179 1.24 1.083 13.694 2.829 15.98 2.864 3.468.052 6.858-.355 10.305-.636 1.219-.099 2.012-.205 2.971.607.138.753.242.86-.113 1.523-1.783.626-3.923.567-5.804.754-3.148.314-6.183.967-9.372.951-2.648-.013-5.006-.535-7.535-1.233l-1.886 1.923c1.143.889 2.438 1.77 3.473 2.778.548.536.993 1.215 1.607 1.679.763.576 1.897.828 2.814 1.078 3.755 1.026 7.786 1.22 11.648.83 1.817-.184 4.26-.868 6.034-.479l.062.539c-.396.44-.802.871-1.289 1.212-5.198 3.641-11.166 2.71-17.011 1.751l-.396.62.858 2.667c-.259.816-.225.947-1.034 1.352-.563.283-1.209.344-1.826.426l.025 6.387c1.173.638 2.354 1.279 3.326 2.208"/><path fill="#141414" d="M486.683 120.206c2.149-.108 5.169-.668 6.999.576.746 1.244.67 2.584.441 3.981l-.066.377c-.206 1.221-.827 2.096-1.486 3.117-2.977.009-6.267-.315-9.195.168l-14.805 2.676-4.775.742c-1.264.037-1.588-.462-2.464-1.256l.087-.545c3.596-2.824 7.742-5.257 12.159-6.512 1.916-.546 3.975-.833 5.805-1.618 2.41-1.033 4.717-1.389 7.3-1.706"/><path fill="#141414" d="M475.73 166.623c-5.633-3.18-9.936-10.37-12.29-16.225-3.006-7.479-5.35-15.942-5.282-24.035.015-1.867-.061-3.661.695-5.41.862-1.995 2.293-3.594 3.439-5.416 1.653-2.626 2.972-5.435 4.192-8.281 1.734-.016 4.891.527 6.458.055l.293-.105c2.851-.851 9.82-1.855 12.474-.364 1.421.799 2.328 2.083 2.803 3.616l.114.384c.54 1.791.523 3.567.561 5.422-5.299.067-10.397 1.465-15.469 2.868l-.448-6.194c-.048-.778.044-1.865-.487-2.467l-1.498.648c-.865 2.358-.486 5.962-.489 8.504-4.193 1.696-7.637 3.861-11.186 6.657l.448 3.082-.892 1.361c-.061.986-.087 1.931.306 2.86.567 1.337 1.637 1.74 2.912 2.213l.322.117.055.264c-.701.533-1.004.783-1.35 1.627.093 1.398.589 2.854 1.498 3.944 1.25 1.499 3.622 1.492 5.426 1.715l-2.346 4.639c1.985 3.764 4.948 7.536 8.115 10.355l.002-.341c-.11-1.401-.551-2.784.105-4.108.846-.253 1.067.037 1.84.414l.08.572c.61.472.797.695 1.576.797l.858 2.667c-.259.816-.226.947-1.034 1.352-.564.283-1.209.343-1.827.426z"/><path fill="#141414" d="M476.132 154.994c.609.471.797.695 1.575.797l.859 2.667c-.26.816-.226.947-1.034 1.352-.564.283-1.21.343-1.827.426-.537-1.604-.241-3.713.427-5.242"/><path fill="#DADADA" d="m82.103 102.107.622 1.11c-.246.692-.742 1.068-1.431 1.379-.925.416-1.702.025-2.563-.404-2.76-1.376-5.161-3.554-7.506-5.531-3.16-2.664-6.398-5.286-9.07-8.463-3.19-3.79-5.47-8.294-6.956-13.006-2.856-9.055-2.264-19.336.222-28.42.578-2.11 1.186-4.488 2.16-6.45.332-.67.642-1.253 1.38-1.516.944-.336 2.354-.132 3.343-.053 3.784.303 7.643.997 11.346 1.827 1.352.304 3.612 1.141 4.92.967 1.895-.253 4.972-5.417 6.278-6.973 7.23-8.61 17.298-15.408 28.264-8.46 2.794 1.77 5.037 4.114 6.4 7.154.324.721.726 2.443 1.273 2.892l.261-.162c3.093-1.878 6.793-2.103 10.258-1.246 4.688 1.16 8.938 7.112 11.231 11.125 5.218 9.13 4.94 20.177 2.101 30.084-3.134 10.939-11.288 19.835-19.062 27.814-2.714 2.787-5.558 5.967-9.025 7.833l-1.566.754-1.281-.256c-.669-.763-.621-.93-.729-1.902.562-1.917 3.572-4.057 5.08-5.423-.634-1.857-.881-3.534-.858-5.481-.108.612-.054 1.365-.633 1.718l-.509.203-.433.474c-.71.823-1.456 1.161-2.424 1.588-.427.188-.266.112-.728.426l-.327-.404c-2.48-.861-5.362-1.235-7.988-1.025-.445.036-.762.079-1.208.015-1.627-.233-3.448-.084-5.1-.084l.236-.263 8.132-.046c.581-.389.956-.274 1.634-.274.242.241 2.226.542 2.685.587l.311.025c.404.301.599.204 1.089.205l.406.27c.5.211 1.045.139 1.5-.136l.341-.271.341-.002c.397-.376.915-.819 1.089-1.361.184-.578-.233-.844-.544-1.294l-.682-.068-.408-.272c-.346.198-.595.38-.895.65-.794.712-1.388.396-2.127 1.134-.714.714-2.938-.009-3.907.18l-.289.076-1.082-.726c-4.452-.709-9.624-.227-14.122.125-1.877.147-4.21.621-6.064.342-.97-.145-1.06-.624-1.564-1.373l-.316.136-.273.409-.272-.27z"/><path fill="#141414" d="M102.071 28.672c2.225-.15 4.096.056 6.174.904 3.438 1.404 6.876 4.286 8.26 7.765.178.448.86 1.889.832 2.304-.023.34-1.948 2.41-2.238 2.78a22.2 22.2 0 0 0-3.082 5.293l-.163.398c-1.458-2.128-3.257-3.87-5.191-5.56a33.8 33.8 0 0 0-6.99-3.928c-4.728-1.955-7.58-1.506-12.173.399 4.03-5.135 8.186-8.624 14.571-10.355"/><path fill="#141414" d="M66.053 87.747c-2.315-2.827-4.345-6.266-5.869-9.585-2.278-4.963-2.984-10.082-2.371-15.524.256-2.28.867-4.512 1.141-6.771.173-1.422-.4-2.947.117-4.348l.127-.319 1.253-5.589c.675-.318 1.83-.02 2.596.073 2.197.265 16.283 3.918 17.144 2.77 2.18-2.91 6.89-7.279 10.498-7.816 4.825-.719 10.784 1.931 14.496 4.865 2.007 1.586 3.834 3.494 4.992 5.783l.451.86c-3.169-.388-6.521-1.004-9.714-.577-2.76.369-5.558 1.273-7.943 2.728-.98.598-2.068 1.48-3.14 1.873-.88.323-2.132.227-3.06.191-4.451-.168-8.722-1.134-12.654-3.25-1.827-.982-3.835-2.388-5.896-2.744l-.346.425c.695 2.503 2.786 4.151 4.973 5.374 4.12 2.302 12.034 4.18 16.688 2.956l.745-.24.365-.116c2.139-.725 3.955-2.237 6.013-3.162 4.746-2.132 11.298-1.044 15.88 1.097 5.757 2.69 11.061 7.363 13.191 13.494 1.762 5.07 1.609 11.96.411 17.157-.869 3.775-2.198 7.369-2.895 11.195 5.005-4.733 6.769-10.725 6.948-17.503.073-2.781-.11-5.31-.581-8.042-1.117-6.481-5.129-12.534-10.482-16.3l-5.322-3.07c.825-1.807 1.791-3.769 3.379-5.02-.583-.04-.53.032-1.034-.361 1.671-3.686 5.07-6.227 8.784-7.634 2.13-.807 4.445-1.332 6.599-.315.918.434 1.68 1 2.281 1.829.889 1.228 1.273 2.897 1.983 4.253 1.974 3.766 4.518 6.924 5.866 11.049.504 1.544.87 3.048 1.072 4.66 1.559 12.439-3.863 21.27-11.194 30.79-3.888 5.05-8.32 10.148-13.492 13.898-.634-1.857-.881-3.534-.858-5.481l.457-1.533c4.15-6 6.36-14.935 5.551-22.21-.22-1.984-.521-3.899-1.18-5.795-2.207-6.35-7.633-11.955-13.67-14.794-5.869-2.76-10.451 1.892-15.637 3.68l-.391.124c-.82.279-1.64.432-2.453.688-2.252.707-6.679.524-9.024-.064-2.715-.68-5.27-1.531-7.91-2.446-.965-.334-2.365-1.111-3.355-1.202-.275-.025-.948.132-1.225.24-7.692 3.01-3.008 19.569-2.347 25.523.16 1.443.649 2.906.042 4.236"/><path fill="#141414" d="M120.555 47.117c1.706-.113 3.674-.092 5.295.518l.34.133c1.585.572 3.205 1.289 4.552 2.314l3.674 3.025c4.446 4.269 4.685 9.553 4.943 15.252.116 2.56-.278 5.782-1.215 8.186-.545 1.401-1.361 2.71-2.007 4.066-.753 1.58-1.263 2.964-2.435 4.318l-.391-.312c1.22-2.327 2.158-4.972 2.723-7.538 1.603-7.279 1.628-16.483-2.298-23.02-1.122-1.867-2.724-2.97-4.51-4.141-.965-.633-1.709-.916-2.723-1.384-.51-.235-.643-.468-1.242-.51l-.393-.012c-1.637-.317-4.107-.512-5.729.046l-.943.28-.406-.27.407-.396.68-.146c.63-.214.994-.324 1.678-.41M66.053 87.747c.607-1.33.118-2.793-.042-4.236C65.35 77.557 60.666 61 68.357 57.99c.278-.11.95-.266 1.226-.24.99.09 2.39.867 3.354 1.201 2.641.915 5.196 1.765 7.911 2.446 2.345.588 6.772.771 9.024.064.814-.256 1.634-.41 2.453-.688l.391-.124c5.186-1.788 9.767-6.44 15.637-3.68 6.036 2.839 11.463 8.444 13.67 14.794.659 1.896.96 3.811 1.18 5.795.809 7.275-1.401 16.21-5.551 22.21l-.457 1.533c-.108.612-.055 1.365-.633 1.718l-.509.203-.433.474c-.71.823-1.456 1.161-2.425 1.587-.426.188-.265.113-.727.427l-.327-.404c-2.48-.861-5.362-1.235-7.988-1.025-.445.036-.763.079-1.208.015-1.627-.233-3.449-.085-5.1-.085l.236-.262 8.132-.046c.581-.39.955-.274 1.634-.274.242.24 2.226.542 2.685.587l.31.024c.405.302.6.205 1.09.206l.406.27c.5.211 1.045.139 1.5-.136l.341-.271.34-.002c.398-.376.916-.819 1.09-1.361.184-.579-.233-.844-.544-1.294l-.682-.068-.408-.272c-.346.198-.595.38-.895.65-.794.712-1.388.395-2.127 1.134-.714.714-2.939-.01-3.907.18l-.289.076-1.082-.727c-4.452-.708-9.625-.226-14.122.126-1.877.147-4.211.621-6.064.342-.97-.145-1.06-.624-1.564-1.373l-.317.136-.272.408-.272-.269-.961.113-.204-.019-6.942-6.421c-2.932-2.462-6.627-4.854-8.904-7.92"/><path fill="#DADADA" d="M83.925 101.719c.194-.433.375-.837.682-1.204 1.785-2.135 6.249-2.559 8.9-2.798l.053-.334c-.063-.802-.472-1.828-.706-2.608C91.28 89.508 87.86 83.77 84.3 79.612c-4.324-5.051-8.894-7.498-15.533-7.995-.228-.545-.255-.73-.064-1.331.283-.893 1.173-1.532 1.996-1.894 2.14-.941 4.66-.174 6.727.63 8.926 3.472 14.907 12.248 18.584 20.731l.215.507c.257-.905.506-1.877.94-2.714 2.123-4.084 7.315-8.902 11.841-10.065 1.254-.322 2.756-.242 3.881.413l.127.677c-1.193 1.34-2.99 1.473-4.471 2.38-1.322.811-2.409 1.955-3.494 3.05 3.04 2.174 4.957 4.593 6.092 8.187l.128.39 1.497 6.766c.142.67.601 1.359 1.21 1.709.376.217.938.453 1.365.196.489-.295.345-.34.679-.754l.984-.857.649.129-.457 1.533c-.108.612-.054 1.365-.633 1.718l-.509.203-.433.474c-.71.823-1.455 1.161-2.424 1.588-.427.188-.266.112-.728.426l-.327-.404c-2.48-.861-5.362-1.235-7.988-1.024-.445.035-.762.078-1.208.014-1.627-.232-3.448-.084-5.1-.084l.236-.262 8.132-.047c.581-.389.956-.274 1.634-.274.242.241 2.226.542 2.685.587l.311.025c.404.301.599.204 1.089.205l.406.271c.5.21 1.045.138 1.5-.137l.341-.271.341-.001c.397-.377.915-.82 1.089-1.362.184-.578-.232-.844-.544-1.293l-.682-.069-.408-.272c-.346.198-.595.38-.895.65-.794.712-1.388.396-2.127 1.134-.714.714-2.938-.009-3.906.18l-.289.076-1.083-.726c-4.452-.708-9.624-.227-14.122.125-1.877.147-4.21.621-6.064.342-.969-.145-1.059-.623-1.564-1.373"/><path fill="#141414" d="m105.675 102.625 4.623.029c.814-.469.946-.795 1.312-1.616l-.434-.612c-3.914-2.096-9.378-2.324-13.71-2.424 1.345-5.586 3.735-9.803 7.582-14.001 3.04 2.174 4.957 4.593 6.093 8.187l.127.389 1.497 6.767c.142.67.601 1.359 1.21 1.709.376.216.938.453 1.365.196.489-.295.345-.341.679-.754l.984-.857.649.129-.457 1.533c-.108.612-.054 1.365-.633 1.718l-.509.203-.433.474c-.71.823-1.455 1.161-2.424 1.588-.426.188-.266.112-.728.426l-.327-.404c-2.48-.861-5.362-1.235-7.988-1.025-.445.036-.762.079-1.208.015-1.627-.232-3.448-.084-5.1-.084l.236-.262 8.132-.047c.581-.389.956-.274 1.634-.274.243.241 2.226.542 2.685.587l.311.025c.404.301.599.204 1.089.205l.406.27c.5.211 1.045.139 1.501-.136l.34-.271.341-.001c.397-.377.916-.82 1.089-1.362.184-.578-.232-.844-.544-1.294l-.682-.068-.408-.272c-.346.198-.595.38-.895.65-.793.712-1.388.396-2.127 1.134-.714.714-2.938-.009-3.906.18l-.289.076z"/><path fill="#DADADA" d="M270.55 157.532a84.8 84.8 0 0 1 19.683 1.97c7.693 1.704 15.254 4.729 19.565 11.702.647 1.046 1.235 2.351.841 3.6-.162.515-.204.151-.035.661 2.099-.145 4.114-.637 6.196-.892 2.234-.272 4.489-.31 6.737-.33 10.887-.098 21.237 4.774 28.89 12.385 10.21 10.155 15.027 25.287 14.913 39.493-.087 10.741-2.381 22.48-9.87 30.637-.636.692-4.8 4.11-4.897 4.351-.241.606-.101 2.091-.221 2.849-.778 4.916-2.493 9.323-6.141 12.824-3.885 3.728-10.059 5.513-15.338 5.362-1.778-.051-3.847-.162-5.113-1.497l.201-.692c1.646-1.342 5.36-.599 7.46-.9 2.26-.324 4.679-1.054 6.685-2.153 4.163-2.283 7.09-6.662 8.404-11.138 1.115-3.803 1.541-8.688-.494-12.247-.818-1.431-2.135-2.841-3.789-3.23-1.797-.423-4.234-.246-5.807.792-3.611 2.382-3.414 6.021-4.318 9.687-.436 1.768-1.456 3.505-3.108 4.354-1.392.714-3.361.613-4.801.072-6.316-2.372-10.016-11.07-12.254-16.813-.437-1.12-1.09-3.572-1.839-4.4-.646-.713-2.314-1.349-3.18-1.829-4.271-2.367-7.195-5.824-9.259-10.252-1.014-2.175-1.478-4.942-1.631-7.326-.202-3.132-.016-6.509.745-9.564.857-3.446 2.412-6.616 3.788-9.871.934-2.21 1.683-4.506 2.464-6.773-1.764-2.21-3.933-4.447-5.408-6.837-.435-.707-.627-.974-.453-1.774.296-.101.317-.125.681-.149 2.551-.166 4.863 2.25 6.464 3.931.625-2.035.443-4.622.78-6.762.373-2.37 1.041-4.728 1.516-7.086-4.968.806-9.717 2.884-14.04 5.415-6.464 3.786-11.486 8.38-16.009 14.336-4.684 6.168-8.572 12.993-13.919 18.637-4.062 4.287-8.897 6.872-13.712 10.141.157.27 5.699 3.663 6.57 4.181l.818-.847c.988-.171 1.506-.183 2.45.169.639.57.8.805 1.001 1.677-.202.903-.735 1.386-1.344 2.037l-.367.107-.138.444c.506.43 1.16.913 1.422 1.542.555 1.335.334 2.385.033 3.752-1.192 5.421-4.74 9.805-6.982 14.772 5.972 5.86 12.076.581 14.939 2.401l.008.954c-.626 1.177-1.58 1.922-2.763 2.521-3.51 1.783-8.699 1.675-12.382.515-1.653-.52-3.061-1.418-3.812-3.038-.558-1.206-.469-2.687-.149-3.947.763-3.01 2.723-6.003 3.998-8.849 1.358-3.028 2.428-6.177 3.572-9.291-1.467-1.014-8.198-5.765-9.847-5.573-.77.089-6.873 5.626-8.26 6.458-4.889 2.935-10.214 4.522-15.806 5.384l-.217 10.988c-.034 8.624.398 17.211 1.368 25.783.661 5.839 1.386 11.77 2.94 17.448 3.01 10.997 9.577 21.281 18.074 28.903 2.289 2.053 4.828 3.973 7.488 5.523 2.808 1.636 6.891 3.009 9.132 5.268l-.061.613c-1.122.724-1.955.809-3.292.615-3.009-.437-5.618-1.643-8.262-3.085-6.702-3.656-12.932-9.3-17.384-15.503-4.221-5.879-7.166-12.54-9.183-19.475-3.14-10.801-4.163-22.698-4.559-33.9-.266-7.517-.336-15.236.909-22.674-8.429.055-16.478-1.627-23.101-7.156-5.397-4.506-8.695-9.91-9.21-16.98-.611-8.39 2.524-17.552 8.069-23.874a35 35 0 0 1 9.18-7.475c3.834-2.159 7.969-3.704 11.633-6.19 4.622-3.137 8.124-7.604 12.276-11.287 11.202-9.933 26.404-12.732 40.862-13.595"/><path fill="#141414" d="M312.817 178.792c5.991-.142 12.075-.259 17.964 1.056 9.185 2.053 18.321 8.434 23.321 16.4 4.399 7.009 6.41 14.676 7.123 22.85.354 4.06.397 8.273-.514 12.255l-.48.913-.259-.096c-.149-3.336-.573-6.278-1.875-9.377-4.397-10.471-14.44-18.887-22.448-26.646-4.463-4.324-8.865-8.876-13.913-12.529-2.807-2.03-5.719-3.526-8.919-4.826m-45.193-16.365c10.724-.919 23.473 1.144 32.806 6.621 3.179 1.864 6.123 4.892 9.463 6.282l.28.109-.437.215c-.711.263-3.374.926-4.087.865-.73-.061-2.293-.987-2.995-1.331-3.083-1.51-6-3.248-9.182-4.566-17.054-7.07-36.925-4.703-52.138 5.742-5.166 3.545-9.691 7.907-14.956 11.341-3.002 1.958-6.221 3.39-9.523 4.758l-6.345 2.89c-7.019 3.762-11.614 10.612-14.322 17.95-1.092 2.958-1.792 6.061-2.71 9.077l-.102-.726c-.679-8.431 2.56-17.23 7.924-23.659 4.992-5.982 11.605-7.957 17.857-12.037 4.61-3.008 8.581-6.931 12.807-10.434 10.283-8.524 22.573-11.991 35.66-13.097"/></g><defs><clipPath id="a"><path fill="#fff" d="M0 0h557.753v492.871H0z"/></clipPath></defs></svg>