<svg xmlns="http://www.w3.org/2000/svg" width="636" height="636" fill="none"><path fill="#fff" d="M636 0H0v636h636z"/><path fill="#141414" d="M333.185 225.613c-1.316-.474-5.129.617-6.8.808l-.297.589.715 1.087c.423.334.776.609 1.321.725 1.125.241 2.613-.212 3.54-.858 1.067-.742 1.227-1.165 1.521-2.351M481.127 64.384c-4.38.675-8.387 2.142-12.588 3.485-2.817.901-6.032 1.606-8.316 3.557-.293.889-.207.893.164 1.769.736.46.859.618 1.745.507 2.665-.337 5.628-1.615 8.147-2.546 2.601-.962 5.634-1.854 7.912-3.484 1.157-.827 2.074-2.165 2.936-3.288M287.904 31.21l-.811-.163-.613.413c-.303.719-.441.92-.34 1.681.661 4.95 3.275 9.581 5.122 14.166 1.128 2.802 2.47 8.484 4.844 10.28l1.087.221c.318-.207.593-.245.645-.66.216-1.763-8.511-23.6-9.934-25.938m-34.449 49.688-.339-.031c-.914.023-1.411.529-2.038 1.102-.209.623-.206 1.061.018 1.69.759 2.13 3.19 4.05 4.761 5.61l6.387 6.133c1.787 1.664 3.317 3.272 5.554 4.323.875.014 1.392.16 2.137-.323.152-.658.058-1.224-.199-1.843-2.011-4.85-6.479-8.942-10.323-12.346-1.875-1.662-3.604-3.349-5.958-4.315m127.427-59.285c-1.933 1.927-3.41 4.167-4.946 6.412-3.523 5.154-6.264 10.29-9.216 15.762-1.121 2.08-2.799 4.366-3.247 6.717-.158.83.08.847.523 1.513l.897.481c.484-.065.86-.152 1.258-.457 1.949-1.495 3.402-4.513 4.628-6.605 2.951-5.034 5.93-10.09 8.01-15.562 1.021-2.685 1.655-5.43 2.093-8.261m26.323 230.085-.782.07c-1.881 2.267.269 4.691-.074 7.177-.077.562-.641 1.106-1 1.512-2.651 2.998-6.768 4.983-10.033 7.273-2.255 1.582-6.159 4.335-6.506 7.243-.119.993.45 2.191 1.081 2.92l.933-.333 7.87-4.251c4.071-2.045 9.376-3.853 11.11-8.465 1.267-3.365-1.039-9.982-2.599-13.146m-252.631 62.601c-.907-.04-2.432-.252-3.266.115-1.101.484-2.099 1.385-2.577 2.499-1.149 2.679-.563 6.561.491 9.194 1.246 3.121 2.852 4.99 5.955 6.317.912.1 1.841.077 2.737-.145 1.246-.308 2.577-1.216 3.143-2.392 1.178-2.446.33-7.664-.661-10.03-1.211-2.888-3.064-4.353-5.822-5.558"/><path fill="#fff" d="m154.209 318.777-.803-.12c-.622.444-.896.987-1.091 1.712-.536 1.983 1.25 6.04 2.182 7.847l.621.013c.849-1.723 1.833-4.885 1.295-6.764-.366-1.276-1.108-2.013-2.204-2.688"/><path fill="#141414" d="M349.614 294.73c-8.599 3.988-14.861 13.077-21.27 19.813-4.984 5.24-10.187 10.146-16.009 14.448-6.03 4.457-13.117 8.743-20.229 11.213l-6.522 1.928c-1.694.422-3.59.671-5.068 1.633l.684.473c2.024.535 4.092.939 6.192.674 4.096-.518 8.122-2.2 11.85-3.908 11.874-5.44 20.991-13.225 30.022-22.49 7.345-7.534 13.96-15.434 20.35-23.784m56.45-47.379c-1.431.024-2.995 1.056-4.218 1.735l-6.52 3.701c-7.518 4.241-14.649 7.626-23.155 9.481-2.563.559-5.268.872-7.885 1.055-2.39.166-7.535-.634-9.451.562-.548.342-.662 1.023-.749 1.632-.766 5.376 1.12 12.845 4.515 17.066 3.451 4.289 7.354 5.846 12.689 6.471l2.298-.242c.775-.214 1.194-.537 1.518-1.246-.968-1.112-4.019-1.388-5.4-1.842a17.6 17.6 0 0 1-3.955-1.901c-6.451-4.126-5.583-9.922-7.05-16.485 7.778.107 14.529-.923 21.991-3.167 6.914-2.079 13.561-5.472 19.75-9.162 2.35-1.4 4.993-2.692 6.328-5.174-.001-1.278.182-1.506-.706-2.484m95.07 341.905-63.381.16-25.657-.221c-1.223.032-2.08.088-3.028.867l.001.872c1.602 1.433 5.827 1.393 7.918 1.559l66.626.917c3.546-.011 22.165.443 24.37-1.352.796-.649 1.277-1.171 1.309-2.175-1.753-1.022-6.048-.58-8.158-.627m113.143-373.364c-3.5 2.674-5.015 6.451-6.573 10.44l-4.467 13.321-12.568 47.792-11.9 58.566c-2.453 9.861-4.83 20.244-10.358 28.921-2.571 4.035-6.102 8.505-10.452 10.728-1.546.791-3.368 1.169-4.72 2.272l.177.717 1.025.368c2.767.681 6.599-.642 8.847-2.139 2.028-1.35 3.76-3.35 5.253-5.257 4.511-5.766 7.757-12.85 10.138-19.74 4.893-14.161 7.061-29.18 9.58-43.89l7.871-39.194 10.576-39.004c2.453-7.854 6.111-15.832 7.571-23.901M372.013 589.214l-25.84-.077-48.766-.035-72.866.221-32.653.306c-2.696.137-6.804.038-9.083 1.582l.082.535c1.09.718 2.221.854 3.478 1.071l6.979.737 30.404.499 54.891-.05 57.78.066c10.752-.005 21.74.46 32.455-.264 2.088-.141 4.535-.233 6.167-1.673.13-.933.113-1.071-.255-1.937-.824-.732-1.73-.799-2.773-.981m199.958-14.237-277.278.69c-1.337.101-1.828.292-2.704 1.329.018 1.17.233 1.619 1.102 2.411 1.875 1.711 24.127.924 28.17.921l276.412-.355c1.584-.098 2.617-.163 3.735-1.424l-.297-.503c-3.785-1.443-7.691-1.765-11.698-2.142zM94.46 513.859c-8.702 2.611-17.08 3.476-26.125 3.569-4.95.051-9.928-.033-14.825-.826l-5.996-1.116c-1.507-.358-4.363-1.562-5.8-1.38-.708.089-1.37.777-1.725 1.367-.765 1.268-.574 3.396-.357 4.796l.083.518c.786 5.187 2.952 9.498 5.785 13.864 8.52 13.126 24.392 18.91 39.028 21.921 2.629.541 8.52 2.036 10.768.549.043-.803-.04-.932-.424-1.65-.584-.348-1.028-.634-1.48-1.145 1.686-3.74.758-8.72.576-12.788-.367-4.873-1.178-10.428-2.762-15.056-.756-2.209-1.876-4.367-2.86-6.486l4.224-1.526c-.244 1.175-.462 2.36-.278 3.559.43 2.79 1.682 5.753 2.433 8.495 1.134 4.142 1.763 8.332 3.391 12.328.482-1.453 1.044-2.99 1.21-4.52.628-5.75-1.765-12.043-3.117-17.615 2.106 1.888 3.96 4.301 5.811 6.444 1.95 2.259 4.123 4.501 5.706 7.036.268.43.734 1.052.902 1.518.189.523.053 1.824.083 2.42.177 3.447.442 6.571-.331 9.98l.467.39.739-.405c1.671-2.709 1.96-6.082 1.97-9.193.005-1.548.179-3.38-.397-4.833-1.208-3.05-4.554-6.101-6.68-8.615-3.284-3.879-6.44-7.991-10.019-11.6"/><path fill="#fff" d="m84.706 520.717-3.647.494c1.22 3.884 2.005 7.884 2.701 11.89l2.34 13.118c.508 2.434.774 5.204 2.56 7.059l2.996 1.262c-.704-6.279-1.266-12.657-2.565-18.847-1.083-5.155-2.644-10.018-4.385-14.976m-7.282.933-5.686.34c.56 2.953.531 5.978.77 8.964l1.167 14.522-.386.368c-.776-.142-1.665-.272-2.227-.881-1.298-1.405-1.638-4.187-1.927-6.043-.872-5.603-1.14-10.966-1.123-16.631l-5.877.025c.285 1.733.248 3.621.327 5.383.236 4.831.675 9.443 3.074 13.741 2.792 5.005 8.953 7.948 14.246 9.449.195-9.604-1.396-19.676-2.358-29.237"/><path fill="#141414" d="m137.951 522.495-.326.034c-.167.065-.358.13-.461.276-.633.91-.946 10.689-1.152 12.422a45 45 0 0 1-1.079 5.778c-.397.234-1.557.737-1.801 1.054-.787 1.023-1.346 3.422-1.876 4.682a27 27 0 0 1-3.683 6.204c-3.029 3.83-7.352 7.08-11.322 9.86-2.34 1.639-4.934 3.172-7.63 4.139-7.157 2.565-15.042 3.059-21.933 6.425-3.038 1.484-7.321 4.091-8.414 7.509-.465 1.454-.33 3.13.405 4.479 2.032 3.728 7.142 4.99 10.894 6.146l-10.154.341c-1.51.052-3.448-.088-4.63.99l.143.465c1.731.861 4.446.707 6.355.742l13.426.025c9.895-.292 19.633-.682 29.35-2.782 3.432-.741 7.05-1.579 10.227-3.091l.408-.197 2.637.894c1.363.356 3.569.531 4.8-.168l.004-1.323c-1.021-1.213-2.197-1.044-3.722-1.276 5.227-2.103 9.636-4.418 13.751-8.342l-1.238 4.946c1.41.122 2.637.025 4.033-.193.549-.429.669-.425.938-1.123.646-1.677.342-4.105.346-5.911.015-6.668.332-14.981-2.393-21.2-2.268-5.177-10.957-10.002-15.95-12.057 1.296-4.581 1.552-9.808 1.432-14.548-.05-1.987.146-3.753-1.385-5.2"/><path fill="#fff" d="M134.969 546.764c-1.272 1.903-2.116 4.109-3.319 6.071-2.636 4.302-6.25 7.698-9.854 11.167l.041.416.812-.084c1.686-.085 3.219 1.035 4.563 1.935 3.262 2.183 6.63 4.518 9.557 7.135-1.375 1.026-2.657 1.685-4.223 2.35-2.751-1.2-4.985-3.326-7.322-5.169l-5.81-4.327-5.852 3.166c2.207.602 4.168 1.513 6.078 2.759 2.234 1.456 8.636 5.41 9.198 8.074l-1.032.931c-3.547.683-8.565-4.47-11.575-6.291-1.49-.901-4.278-2.62-6.013-2.776-1.445-.13-4.358.966-5.834 1.327 4.761.808 7.767 1.97 11.953 4.345 1.6.85 2.918 1.713 4.118 3.085.031.96.147 1.104-.428 1.851-2.244.639-4.871.47-7.19.485l-17.673-.651c-2.145-.053-5.617-.518-7.189.985l.065.668c1.103.923 2.516 1.263 3.883 1.631 4.645 1.248 9.745 1.462 14.539 1.563 10.141.217 21.463-1.191 30.689-5.557 5.526-2.615 10.717-6.553 15.13-10.762.628-4.352.03-10.271-.761-14.601-.239-1.306-10.65-6.165-12.474-7.151-1.418-.767-2.749-1.664-4.077-2.575"/><path fill="#141414" d="M131.173 558.419c-.867-.125-1.585-.102-2.451-.036-.718.628-.96.879-1.206 1.843.963 1.717 13.526 6.694 15.827 7.468.773.21 1.212.171 1.993.009.663-.511.951-.796 1.267-1.576-1.23-2.255-12.929-6.852-15.43-7.708m334.823-64.805c-9.596-.85-19.583-.12-29.211.046l-46.818.547-51.767-.453c-9.265-.159-18.602-.715-27.866-.348-2.567.102-6.435.361-8.445 2.105-1.102.956-1.664 2.606-1.705 4.03-.055 1.888.662 3.338 2.024 4.631 2.506 2.383 7.123 3.063 10.461 3.514 3.716.501 7.497.508 11.24.635l18.56.367 41.622-.021.051 12.852c.009.615.282 3.267.06 3.704s-2.248 1.554-2.718 1.901c-1.691 1.243-3.254 2.665-4.784 4.101l-22.897 23.339-9.838 9.612c-2.466 2.337-5.787 4.837-7.58 7.707.985.392 3.441.904 4.45.58l.498-.244c3.079-1.421 5.663-3.876 8.208-6.091 6.758-5.883 12.976-12.436 19.296-18.783 4.806-4.908 9.685-10.838 15.166-14.931l.022 25.673c-.023 2.879-.582 6.831.021 9.567.175.795.374.811 1.032 1.194 1.237.059 2.409.252 3.523-.392.557-1.639.253-4.121.254-5.87l.044-11.969.534-20.108 17.849 16.056c4.215 3.834 24.678 23.864 27.802 24.549.898.197 2.419.097 3.223-.391.48-.292.367-.365.467-.87-1.42-3.034-4.788-5.68-7.194-8.028l-15.149-14.393c-6.286-6.032-12.319-12.579-19.087-18.064-2.392-1.94-4.958-3.399-7.785-4.604l.133-16.151 48.651.391c9.952.015 20.457.573 30.34-.639 3.56-.436 7.453-1.106 10.408-3.289 1.647-1.217 2.838-2.78 3.097-4.837.167-1.324.053-2.705-.883-3.735-2.619-2.88-11.423-2.658-15.309-2.89m-74.44-381.404-2.907-.117-.117.481c1.825 1.674 4.373 2.576 6.444 3.956 4.983 3.319 8.785 8.013 9.937 13.985l.099.536c.965 4.942.133 10.913-1.931 15.482-.387-1.418-.336-3.005-.446-4.47-.267-3.523-1.167-6.679-2.757-9.835-2.767-5.494-7.759-8.962-13.516-10.793-8.367-2.66-18.171-.912-25.83 3.064-.636-.742-1.289-1.501-2.037-2.131-1.722-1.448-3.879-2.506-5.869-3.526-9.404-4.827-21.016-6.923-31.545-6.059-7.877.647-15.151 4.473-20.213 10.527-4.311 5.157-6.549 12.439-5.964 19.124 1.176 13.45 9.911 24.223 21.505 30.604 3.711 2.044 8.216 3.44 11.456 6.164-1.733 4.807-3.058 11.13-6.436 15l-8.611-1.743c-1.172-.118-2.8-5.44-4.943-6.311-.181.243-.26.311-.344.646-.844 3.369 2.388 15.423 4.544 18.232.47.611 1.004.503 1.733.613l.254.408c-.343.449-.645.875-.896 1.385-.425.864-.511 1.975-.596 2.92-.028.316-.194 1.227-.112 1.52.375 1.345 2.819 2.992 4.001 3.642.556.305 1.297.498 1.528 1.092l-.764.494c-1.789 6.343.763 16.112 3.917 21.753 3.295 5.895 9.16 10.071 15.607 11.884 11.002 3.094 22.671.836 32.508-4.703 6.976-3.928 13.466-9.747 17.673-16.596.9-1.466 2.027-3.241 2.391-4.936.268-1.244.041-1.625-.589-2.616l-.702-.052-5.952 8.045c-8.254 9.935-19.412 16.934-32.459 18.109-8.221.74-15.327-.832-21.752-6.2-6.922-7.079-7.216-15.657-7.956-25.015 2.842.539 5.872.905 8.761.51 3.801-.521 6.63-2.286 8.867-5.382 2.487-3.439 1.96-7.815 1.365-11.751 3.137.947 6.236 1.674 9.543 1.607 7.208-.145 11.945-4.955 15.23-10.91 1.015-1.841 1.732-3.887 3.226-5.399.36-.365.756-.702 1.033-1.139.205-.324.382-.54.244-.931-.443-1.26-2.069-2.512-3.044-3.39-3.897-3.505-8.479-7.266-13.4-9.224-1.442-.574-4.751-.788-5.754-1.511-.848-.611-1.22-1.986-1.337-2.956.795-.74 1.984-.833 3.014-1.071 2.2-.509 4.403-1.064 6.536-1.81 2.981-1.042 5.766-2.796 8.757-3.701 4.309 1.247 8.184 3.205 11.229 6.578 11.706 12.973-6.756 23.544-7.082 36.604-.047 1.925.479 3.994 1.927 5.347 1.623 1.516 3.833 1.89 5.961 1.695 8.584-.789 11.594-10.056 16.11-15.699 1.437.337 2.749.788 4.019 1.56 1.32.802 3.194 2.329 3.467 3.953.523 3.116-1.492 7.295-3.403 9.726-1.847 2.35-4.03 4.248-6.938 5.142-3.119.959-7.157.653-10.445 1.016 2.288 1.388 4.356 2.36 6.988 2.903 4.573.941 7.556-.6 11.299-3.053l.644.737c2.395 2.324 6.184 3.642 9.47 3.634 5.989-.016 11.489-3.189 15.572-7.39 4.92-5.064 9.687-13.166 9.51-20.422-.119-4.872-2.029-7.249-5.438-10.444 6.189.184 12.548-1.533 17.434-5.437 4.908-3.921 8.034-9.506 8.651-15.77.621-6.307-1.552-12.926-5.628-17.756-4.357-5.163-10.532-8.366-17.277-8.916-7.841-.64-14.388.938-20.449 6.064.915-5.77.73-10.508-2.005-15.789-3.182-6.144-8.558-9.77-15.01-11.788"/><path fill="#fff" d="m312.674 195.489-.35.349.668 7.132 3.049-2.512 2.85-3.054c-2.141-.252-4.079-.5-5.915-1.708zm26.798-25.154c-2.168-.458-4.631-.088-6.841-.002l-9.766.194c1.723 1.189 3.151 2.511 4.625 3.992l2.024 2.683c2.124-2.334 4.239-3.903 7.275-4.84 1.234-.381 2.513-.529 3.726-.987l.037-.419zm-19.669-52.92c-3.198.729-5.919 1.59-8.664 3.436-5.056 3.398-8.791 9.006-9.898 15.025-1.582 8.618 1.031 16.137 5.813 23.203.483.617.773 1.057 1.503 1.393-3.994-8.269-6.523-15.369-4.025-24.559 2.386-8.779 7.586-14.043 15.271-18.498m108.035 20.897c-5.329-.978-11.933 1.211-16.347 4.046 5.024-1.495 8.93-2.557 14.269-2.019 1.769.178 3.475.643 5.123 1.312 4.731 1.92 8.293 6.211 10.167 10.857 2.173 5.388.948 11.003-1.254 16.144-1.805 3.318-3.884 5.577-6.568 8.199 2.362-.85 4.577-1.757 6.599-3.29 4.139-3.14 7.288-8.068 7.9-13.267.589-5.015-1.253-10.233-4.323-14.162-4.121-5.274-9.111-7.042-15.566-7.82m-79.22 36.002-1.956-.129c-1.411-.01-2.851.674-4.167 1.141-2.416.858-5.138 1.47-7.008 3.328-4.381 4.351-6.423 10.958-9.778 16.097-2.384 3.652-5.648 6.906-7.677 10.76-.824 1.564-1.542 3.414-1.544 5.195.277.337.54.674.898.931 2.746 1.973 6.951 2.011 10.173 1.586 1.829-.242 4.489-1.003 5.587-2.627 2.245-3.319-.332-11.478-1.111-15.25-.657-4.598.313-9.083 2.341-13.246.661-1.359 1.605-3.164 3.165-3.6.631-.177.615-.051 1.154.219.436 2.457-1.489 6.245-2.07 8.763-.452 1.961-.634 3.845-.713 5.851.956 1.529 2.886 2.491 4.52 3.136 3.588 1.415 8.446 2.2 12.049.533 5.176-2.396 8.134-9.199 10.028-14.189l-.181-.361c-2.89-3.849-9.253-6.722-13.71-8.138"/><path fill="#141414" d="M612.423 208.17c-4.995.169-9.312 1.601-13.366 4.533a38.4 38.4 0 0 0-9.874 10.55c-3.495 5.568-5.772 11.864-7.929 18.042-4.53 12.97-8.134 26.919-10.396 40.478l-20.877-1.736 12.754-36.568c1.979-5.35 4.327-10.597 5.927-16.078.374-1.281.971-3.261.495-4.556-.463-1.258-2.132-2.474-3.351-2.892-5.032-1.721-12.942 1.013-17.363 3.484-15.936 8.908-25.423 27.135-32.181 43.372-3.601 8.652-6.75 17.418-9.286 26.445-6.625 23.578-11.243 48.203-13.162 72.624-.864 11.002-1.363 21.886-.796 32.923.376 7.349.939 16.984 4.755 23.472 1.706 2.899 3.942 3.668 7.028 4.429 1.016.113 2.037.186 3.023.465l-.045.362c-.734 5.402-2.595 11.796-6.041 16.14-8.951 11.28-28.244 12.282-41.536 12.696-1.903.059-6.277-.312-7.673.77l.152.686c1.331 1.465 3.297 1.918 5.221 2.106 12.431 1.215 33.526-1.278 43.369-9.557 6.814-5.731 9.356-15.159 9.963-23.754l.026-.422c4.792-.28 9.889-1.946 14.259-3.864 8.515-3.738 15.396-11.64 19.486-19.851 2.988-6.003 4.507-12.656 6.171-19.119l4.895-18.585 7.861-29.417 11.8-49.024c3.879-15.35 8.031-30.79 13.745-45.58 3.097-8.018 6.229-15.08 12.464-21.17 2-1.953 4.176-3.849 6.723-5.06 2.641-1.254 5.575-1.551 8.237-2.727.751-.903.773-.847.725-2.013-1.544-1.203-3.327-1.384-5.203-1.604"/><path fill="#fff" d="m565.505 226.398-1.329.902c-4.972 3.503-8.048 10.065-10.614 15.388-4.483 9.295-7.561 18.959-10.403 28.844l-4.792 17.558-7.145 38.759-3.04 21.39-.111.592.252-.014c5.709-30.218 13.849-59.519 23.982-88.547l8.172-21.942c1.696-4.31 3.655-8.501 5.028-12.93m-13.834 57.881-2.622-.143c-2.199 8.915-5.634 17.602-8.081 26.476l-7.572 33.324-5.659 26.044c-3.515 16.263-6.866 31.575-4.56 48.297 3.698-1.825 6.758-4.195 9.861-6.885 4.263-3.876 7.428-8.783 9.615-14.091 2.894-7.025 4.56-14.45 6.299-21.823l5.23-22.45 5.471-23.111 9.667-44.154z"/><path fill="#141414" d="M247.709 347.526c-.199-1.106-.412-2.176-.908-3.193-.327-.672-.792-1.267-1.25-1.853-1.584-.375-3.139-.714-4.767-.828l-13.105-.398c-.799-.007-3.658.238-4.277-.178-.399-.268-1.283-1.937-1.57-2.424l-.711-1.367-35.821-.204c-1.551-7.506-4.136-14.887-6.325-22.229-1.996-6.695-3.619-14.117-6.589-20.436l22.173.155 11.904.05c2.51-.011 5.455.207 7.751-.932.842-1 .971-1.497.843-2.801-.345-3.538-1.705-7.049-2.645-10.464l-4.945-18.872-9.918-41.98-4.648-17.717c-.817-3.216-3.362-16.689-5.461-18.389-1.927-1.562-6.454-1.501-8.83-1.544l-38.125.862-45.732.283-24.826-.172-6.208-.063c-.987-.009-2.392-.162-3.317.147-.812.27-1.563 1.069-1.916 1.849-.49 1.086-.443 2.366-.33 3.522.745 7.519 2.977 15.168 4.567 22.567l11.26 47.623 4.995 19.069c1.1 3.948 2.124 8.141 3.849 11.86.786 1.693 1.802 2.905 3.599 3.567 2.83 1.043 6.857.821 9.878.937l19.38.494 4.968 16.336 5.078 18.287c.96 3.018 2.029 6.667 4.234 9.003.924.203 1.01.272 1.864-.103.424-2.039-1.74-6.485-2.323-8.595l-9.714-33.525c-1.511-4.683-2.658-9.367-4.985-13.739l51.113 3.921 11.533 36.4c1.771 5.591 3.065 11.425 5.172 16.9.463 1.203 1.076 2.21 1.869 3.217l-86.67-.752-.51-.526c.214-1.681.3-2.625 1.691-3.675 3.644-2.746 8.549-5.079 9.366-10.142.392-2.427-.083-4.837-1.562-6.819-2.845-3.816-8.043-4.714-12.494-5.254-5.06-.613-12.575-.312-16.699 3.014-3.967 3.199-6.305 8.394-6.787 13.405-.17 1.77-.26 4.101 1.06 5.482l.315.3c.893-.872 1.054-2.714 1.386-3.95 1.372-5.106 3.757-11.102 9.018-13.264 2.495-1.023 4.957-1.139 7.603-1.106l2.487.048c-2.21.779-4.74 1.561-6.69 2.892-2.599 1.774-4.543 4.765-5.88 7.569-1.806 3.788-2.114 7.382-1.855 11.511-8.683.019-62.247-.716-65.435 2.007-.245.21-.3.361-.435.621.215.839.364.85 1.119 1.285 1.624.939 3.683 1.218 5.533 1.291l21.572.169 38.342.28 168.01 2.596c.062-1.061.102-1.168.731-2.025"/><path fill="#fff" d="m184.724 187.001-122.164.578c-1.737 3.839 16.888 76.469 19.427 85.896l4.646 15.743 26.863.631-2.977-7.435.007-1.233c.032-.9.17-1.511.86-2.133.599-.54 1.214-.725 1.999-.792 4.2-.359 9.027.53 13.248.935l12.01.809-3.089-6.12c-1.239-2.842-2.758-6.691-1.553-9.72l.621-.248c4.558.589 10.285.379 13.453 4.186 3.004 3.61 3.104 8.344 2.665 12.76 5.563.228 12.7-.048 17.846 2.076 1.369 1.358 2.091 4.622 2.676 6.433 2.86.625 6.652.227 9.623.3l29.677.399z"/><path fill="#141414" d="M85.164 237.741c-2.308-.13-4.769-.429-7.062-.15-.394.271-.629.271-.696.785-.227 1.735.363 3.749 1.317 5.188 1.849.878 6.477.296 8.653.289l23.431-.094c1.874-.01 6.38.524 7.796-.446.076-2.004-.179-3.497-.78-5.409zm81.338-.628-7.245-.134c-1.738-.022-3.549-.217-5.225.299-.499.604-.537.654-.583 1.445-.072 1.25.12 2.53 1.027 3.467.669.691 1.596 1.219 2.538 1.416 2.247.471 4.983.244 7.311.28l16.491.132 11.737.028c.514-2.18.774-3.921.231-6.122-1.387-.935-22.655-.749-26.282-.811m-30.543-15.34c-2.48-.116-4.55-.095-6.504 1.711-1.322 1.223-1.957 3.294-1.919 5.058.077 3.692 1.9 5.815 4.428 8.196-1.291 1.518-2.693 2.171-3.169 4.265-1.094 4.809 1.406 9.965 4.045 13.848 2.233 3.288 4.765 5.147 8.69 5.955 1.26.08 2.727-.07 3.905-.53 1.91-.744 3.286-2.508 4.015-4.371 1.399-3.574.885-7.61-.716-11.02-2.133-4.544-5.15-6.603-9.676-8.281.971-.939 1.967-1.843 2.494-3.116.797-1.929.544-5.029-.257-6.915-1.025-2.407-3.02-3.803-5.336-4.8m111.019 127.778c.075.522-.931 2.192-1.203 2.748l-76.051-2.701c4.807 1.904 9.812 2.044 14.868 2.777l20.24 2.77c.139 1.378.521 4.5 1.362 5.555 1.099 1.378 5.602.864 7.373.841l26.348.069c1.455.025 4.565-.308 5.875.145.775.268 2.444 2.329 3.26 2.983 1.407 1.126 3.127 2.046 4.809 2.698 4.187 1.622 8.68 2.515 13.068 3.408 8.869 1.804 17.69 2.972 26.705 3.721l4.288 18.458c.412 2.869.354 5.698-1.633 8.048-.694.82-1.137 1.325-2.199 1.396l-.135-.368 1.688-3.067c-1.847-1.017-3.87-1.603-5.839-2.337l-9.617-3.51c-22.024-7.915-43.836-13.782-67.261-15.405-6.901-.478-14.036-.719-20.911.25-5.573.785-10.997 2.255-15.938 5.012-18.678 10.421-27.182 33.16-37.14 50.888l-20.57 32.846c-2.14 3.174-3.983 6.6-6.286 9.652l-.036-16.485-.566-64.858.11-33.112c-.033-.837-.142-1.437-.463-2.204-.872-.449-.943-.444-1.917-.312-.705.761-.786 1.071-.922 2.106-.766 5.83-.64 12.131-.692 18.01l-.059 26.231.498 42.315.298 30.964c-.717.673-2.115 2.054-2.365 2.983-.41 1.526-.05 6.324.484 7.821.349.98 1.289 2.37 1.192 3.354-4.114 3.941-8.116 7.777-13.075 10.645-1.675-6.931-1.388-14.806-1.452-21.905l-.172-23.503-.568-63.027-.07-16.316c-.016-3.427.306-7.36-.527-10.692l-.156-.6c-.294-1.163-.515-2.065-1.237-3.035l-.283.084-.415 1.553c-1.395 6.421-.92 13.545-.914 20.087l.544 37.29.445 42.571.4 25.359c.242 3.775.19 9.642 2.45 12.867 1.226 1.749 3.939 3.12 5.685 4.339 4.68 3.268 9.312 6.629 14.259 9.489 3.665 2.119 7.469 3.821 11.323 5.555 2.006.902 4.33 2.191 6.499 2.508.795.117.998.022 1.625-.493 1.391-1.139 1.717-3.397 1.844-5.075-.554-1.238-1.029-1.445-2.11-2.223 1.446-2.777 2.385-5.591 3.322-8.573 4.528 6.118 17.514 12.026 24.824 14.355 1.602.51 3.263.998 4.797.073 1.251-.755 2.494-2.412 3.402-3.559 4.155-5.254 7.311-11.414 10.795-17.126 7.486-12.273 15.394-24.458 21.615-37.434 4.194-8.75 7.802-17.703 10.603-27l17.577 13.108c10.646 6.848 22.063 12.481 33.619 17.608 16.563 7.348 34.331 13.488 52.129 16.962 28.656 5.593 59.038 5.186 88.135 4.699l29.649-.779c3.877-.176 8.224-.016 11.98-.926 1.332-.322 2.464-.972 3.717-1.482 3.632-1.477 7.079-2.162 9.3-5.782 2.351-3.833 2.014-7.554 1.026-11.735l24.088-1.823c1.958-.299 3.855-.621 5.089-2.282.151-.879.329-1.171-.09-1.979-1.042-.501-1.93-.469-3.068-.485l-18.658.58-25.998-.215c.724-3.981 2.013-8.136 2.263-12.147.057-.916.089-1.895-.416-2.7l-.304-.44c.389-.864 3.275-.837 4.244-.907 8.96-.655 18.246-1.549 26.105-6.362 4.63-2.837 7.373-7.244 8.612-12.44 1.687-7.077 1.76-14.632 1.395-21.87-.585-11.636-2.465-23.592-5.426-34.865l-5.901-18.903c-5.526-16.932-11.98-33.963-21.484-49.112-7.459-11.889-19.495-26.226-33.789-29.369-6.632-1.459-12.931-.704-18.874 2.564-14.263 7.843-19.445 23.535-24.958 37.764-3.175 8.195-6.793 16.702-12.018 23.815-2.228 3.033-4.925 5.972-7.959 8.213-1.66 1.226-3.588 2.208-5.34 3.312-16.683-.095-33.238.025-49.89-1.3-4.638-.369-9.514-.323-13.962-1.837-4.863-1.655-8.777-5.056-13.212-7.535-4.088-2.286-8.378-3.487-13.008-2.051-2.546.79-5.094 2.397-6.279 4.866-.537 1.121-.767 2.355-1.397 3.438l-.282.468c-.629.857-.669.964-.731 2.025"/><path fill="#fff" d="m451.079 472.808-.567.31c1.023 3.958 1.191 6.237.135 10.248l.267.437.952-.748c1.067-1.091 1.848-2.339 2.267-3.816.369-1.301.46-3.889-.282-5.04-.7-1.088-1.614-1.165-2.772-1.391"/><path fill="#141414" d="M345.699 411.088c-.28-.2-.526-.461-.84-.6-.787-.345-3.834.004-4.808.007l-12.44.166c-2.417.035-5.011-.118-7.393.298l-.262.049c.387.547 1.314.487 1.962.698 7.908.231 15.917.37 23.781-.618"/><path fill="#fff" d="m260.225 354.072-.763.003c-3.369.199-6.615 4.878-8.776 7.236a20 20 0 0 0 3.186 2.052l.681.156c.866-.7 1.406-1.729 1.995-2.664 1.358-2.15 4.665-3.968 6.64-5.695-.507-.774-2.039-.873-2.963-1.088"/><path fill="#fff" d="M261.593 342.275c-1.744-.122-3.554-.268-5.139.62-3.225 1.807-4.812 5.643-6.358 8.816-1.355 2.783-2.6 5.266-3.416 8.273 3.781-2.938 5.497-8.55 10.892-9.223 2.936-.366 7.091.388 9.343 2.423.677.613.873 1.04.935 1.926-1.141 1.614-2.832 2.846-4.326 4.131-2.012 1.729-3.855 3.457-5.606 5.453 1.877.221 3.7.747 5.529 1.209l28.918 5.035c-1.474-5.791-2.687-10.69-2.83-16.738-10.833-.733-17.989-9.163-27.942-11.925m60.325 69.43-4.297.024c3.285 4.052 8.889 5.791 13.575 7.804 11.278 4.843 22.789 8.319 34.528 11.806 16.38 4.864 33.367 9.647 50.376 11.642 9.584 1.124 19.376 1.444 29.005.784 9.476-.647 19.554-1.948 27.26-8.025 1.361-2.345 1.763-5.553 2.171-8.218 1.745-11.43 1.204-23.724-.429-35.158-2.743-19.229-7.909-38.095-15.016-56.165-5.629-14.312-12.139-27.849-22.336-39.542-3.188-3.654-6.629-7.233-10.533-10.13-4.654-3.454-10.345-6.351-16.196-6.945-3.213-.325-6.37.052-9.541.535 2.588 1.099 6.99 2.021 8.783 4.188l-.314.621c-2.05.822-5.154-.878-7.387-.972-3.347-.141-6.132 1.656-8.57 3.741-8.994 7.694-12.794 19.051-17.338 29.594l-6.953 15.029c-3.297 6.502-7.081 12.813-12.626 17.64 1.354.927 3.409 1.105 4.916 1.871 2.064 1.05 4.012 2.769 5.866 4.166 1.401 1.055 2.984 2 4.16 3.307l-.385.605c-3.488.107-7.324-1.463-10.46-2.864-1.624-.725-3.46-1.746-5.222-2.082-1.006-.192-1.537-.168-2.329.427-.747 4.114 2.508 5.336 3.212 8.728l-.572.442c-.56-.018-1.131-.008-1.648-.255-2.622-1.256-3.62-5.902-4.34-8.414l-.379-.155c-.403.98-.685 1.878-.722 2.947-.051 1.421.485 3.339-.317 4.503-.981.118-1.275.264-2.169-.206-1.229-1.667-1.294-4.761-1.579-6.804-6.526 1.504-14.141.904-20.809.637l-30.33-1.95 5.294 22.541c1.528 5.649 3.698 11.42 4.162 17.275.221 2.796-.239 5.221-1.021 7.888l18.162 3.526c14.948 1.61 31.099 1.068 45.272-4.382 14.015-5.389 26.215-16.287 34.381-28.785l7.28-12.246c1.911-3.205 3.643-6.338 6.596-8.704-1.009 5.883-3.335 10.484-6.176 15.712-3.971 7.308-8.419 14.027-14.07 20.163-10.204 11.078-22.669 18.517-37.446 21.777-2.893.638-6.128 1.38-9.08 1.453l-.628.009c-7.864.988-15.873.849-23.781.617"/><path fill="#141414" d="m440.712 420.946-.539-.158c-1.454-.289-7.208-.211-8.247.619l.464.781c2.086.48 5.293.663 7.334-.086.777-.286.66-.455.988-1.156m-54.913-112.418-.502.033c-.851.457-1.357 1.308-1.802 2.141-2.207 4.128-3.094 9.631-4.398 14.138l-2.96 9.348c-1.468 4.212-3.454 8.244-5.105 12.391l1.98-1.827c2.033-2.223 3.276-5.404 4.388-8.162 2.702-6.697 4.466-13.525 6.413-20.453.622-2.215 2.042-5.338 1.986-7.609"/></svg>