<svg xmlns="http://www.w3.org/2000/svg" width="512" height="512" fill="none"><g clip-path="url(#a)"><path fill="#141414" d="m387.619 363.375.881.08c.688.542.635.548.788 1.42l-.413.576-.5.013c-.692-.029-1.003-.212-1.441-.714l.074-.875z"/><path fill="#C792F1" d="M204.279 469.209c.166-.478.166-.846.596-1.136 1.022.262 1.154.558 1.844 1.324-.638.834-.672 1.056-1.719 1.341l-.439-.265z"/><path fill="#C792F1" d="m204.147 462.204 3.208 4.545c-.517.805-.532 1.721-.636 2.648-.69-.766-.822-1.061-1.844-1.323-.43.289-.43.658-.596 1.135z"/><path fill="#141414" d="M224.003 309.218c1.898 1.934 4.104 4.168 6.538 5.408 1.028.522 2.187.752 3.11 1.476.45.354.706.444.764 1.024l-.97.412c-1.081.145-2.395.428-3.473.252-1.183-.192-2.001-.876-2.714-1.79.146-.738.64-.334 1.189-.874-1.998-1.914-3.302-3.362-4.444-5.908M103.783 66.001a6 6 0 0 1 1.312-.054c1.698.102 3.232.708 4.336 2.004.174.8.188.97-.041 1.752-1.033.577-1.982.386-3.147.376-1.419.027-3.61.36-4.812-.445-.48-.84-.516-.804-.318-1.742.852-.886 1.536-1.41 2.67-1.89"/><path fill="#C792F1" d="M121.283 347.625c4.43 2.824 9.38 4.989 14.518 6.181 1.788.415 3.616.689 5.449.8.843.051 2.605-.171 3.181.394l-.519.625c-1.481.728-3.656.433-5.249.209-4.188-.589-14.654-3.423-17.143-7.094-.319-.47-.328-.545-.237-1.115"/><path fill="#141414" d="M108.568 50.751c1.318-.214 2.306-.101 3.464.598 2.559 1.545 4.557 4.766 5.205 7.652l-.557.583a9 9 0 0 1-1.559.007c-1.864-.156-3.687-1.57-4.858-2.949-1.218-1.433-2.527-3.536-2.388-5.474zm54.36 281.624.559.047.012.34c.038 1.495-.03 2.635-1.126 3.745-4.642 4.704-10.748 8.133-17.498 8.13l-.477-.214-.198-.548c.563-1.396 3.674-1.752 5.094-2.247 5.511-1.92 9.561-5.211 13.634-9.253M145.355 26.001c.53-.014.909.09 1.325.425.787.631 1.218 1.827 1.592 2.739 1.081 2.635 1.657 5.042 2.099 7.836.219 1.384-.11 3.015-.768 4.25l-.657.078c-.553-.428-.919-.83-1.265-1.443-1.79-3.174-2.949-6.64-3.323-10.26-.089-.858-.253-2.026.014-2.848.142-.438.609-.558.983-.777m170.814 5.771.25.018c.612.169.962.418 1.325.935 1.57 2.24.713 11.956.287 14.632-.17 1.068-.31 1.63-1.22 2.294l-.476-.005c-.544-.089-.974-.53-1.235-.987-.559-.98-.665-2.336-.768-3.448-.309-3.34-.651-7.995.233-11.205.304-1.104.652-1.649 1.604-2.235"/><path fill="#C792F1" d="m163.072 336.875.317-.003.188.662c.34 1.817-.596 3.873-1.592 5.341-2.368 3.488-6.618 5.064-10.589 5.849-1.732.343-3.563.354-5.325.403-7.258.201-14.572-1.325-20.666-5.412-.242-.244-.406-.552-.591-.84l.283-.75c1.435-.242 4.733 1.944 6.365 2.55 2.311.858 4.751 1.506 7.163 2.001 6.345 1.302 14.454 1.281 19.978-2.636 2.442-1.731 3.91-4.26 4.469-7.165"/><path fill="#141414" d="m344.509 31.022.802-.022.39.521c-.004 1.818-1.136 4.676-2.083 6.25-2.25 3.74-5.562 9.018-10.058 10.124-.553.011-.775-.086-1.243-.373-.563-3.21 4.625-5.596 5.267-8.668.073-.348.126-.711.263-1.041.986-2.37 4.347-5.788 6.662-6.792m-231.112 3.98c.729-.12 1.356-.085 1.996.302 1.143.692 1.716 2.046 2.248 3.214l3.159 7.484c.627 1.4 1.786 2.794 2.025 4.32.183 1.164.072 1.98-.619 2.93l-.654.153c-.518-.13-.921-.265-1.317-.64-.828-.782-1.286-2.041-1.865-3.013-2.428-4.073-5.521-7.864-5.637-12.875-.023-.956.026-1.175.664-1.875m248.115 406.374c2.004-.464 3.544 1.202 5.238 2.072.615.316 1.29.397 1.878.785.84.554 1.665 1.378 2.599 1.749 1.417.563 3.213.633 4.719.441 1.498-.192 3.428-.546 4.429-1.762.427-.518.775-1.258 1.251-1.711.391-.375 1.268-.222 1.728-.065.603.205 1.187.778 1.447 1.366.352.796.013 1.52-.253 2.286-.702.899-1.502 1.758-2.466 2.377-2.588 1.658-6.363 2.418-9.371 1.642-2.547-.657-9.965-5.651-11.223-7.997-.317-.59-.166-.59.024-1.183m2-50.25.622-.21c.903.488 1.558 2.444 2.012 3.376.45.08 2.828.434 3.094.69.345.331.702 3.342.896 3.996.542 1.815 1.985 3.692 3.49 4.823 1.326.997 2.872 1.75 4.53 1.476.762-.125 1.428-.437 2.161-.651.832-.242 1.837-.242 2.579-.754.659-.454 1.218-1.392 1.689-2.037.647-.113 1.089-.189 1.659.223.394.284.673.678.745 1.152.193 1.26-.613 2.252-1.286 3.228-1.464 1.53-3.993 3.554-6.02 4.191-2.636.828-5.975-.013-8.317-1.325-2.443-1.37-3.505-3.191-4.979-5.428-.405-.616-.975-1.12-1.373-1.75-.819-1.296-1.314-3.152-1.694-4.625-.526-2.049-.945-4.485.192-6.375m88.11 31.001c.398-.174.578-.143 1.004-.12.888.45 1.359 1.348 1.846 2.18 1.842 3.143 3.066 6.603 4.361 9.994 4.975 13.025 7.391 25.837 7.695 39.774.078 3.586.289 7.42-.605 10.921-.131.263-.347.533-.513.777-.148-.092-.33-.146-.446-.277-.599-.674-.626-3.111-.722-4.051l-1.209-13.428c-1.025-9.472-2.498-18.5-5.389-27.611l-4.178-12.447c-.6-1.81-1.327-3.578-1.779-5.433zM148.511 263.755c.675-.014.84-.03 1.427.284.443 1.16.494 2.395.608 3.622.255 2.753.374 5.532-.025 8.278-.416 2.862-1.324 5.942-3.811 7.678-1.281.896-2.728 1.352-4.28 1.054-5.257-1.008-8.749-5.376-12.451-8.796-.784-.725-2.298-1.246-2.766-2.23-.41-.866-.086-2.079.26-2.903 1.292-.831 5.404-.279 7.057-.226 1.341-.005 2.584-.11 3.891-.42 1.569-.372 4.416-1.678 5.954-1.117.322.756.276 1.805-.032 2.56l-.147.336.03.875c-.055.539-.487 1.195-.901 1.526-2.422 1.935-6.652 1.607-9.498 1.282 2.103 1.708 5.147 4.786 7.786 5.425l.262.056c.978.214 1.583.153 2.542-.132 1.164-.977 1.71-1.868 2.215-3.298 1.026-2.903 1.433-7.733.067-10.564-.358-.741-.576-1.331-.622-2.17.616-.639 1.606-.847 2.434-1.12m289.248 136.37c.457-.074.582-.032 1.011.098 1.206 1.72 1.685 4.522 2.3 6.527l3.353 10.695 12.187 33.461c1.447 4.397 2.777 8.87 3.674 13.414 1.096 5.545 1.399 11.583 1.456 17.234.02 1.997.34 4.357-.801 6.071-.287.041-.473-.002-.755-.054-1.161-1.936-1.265-4.185-1.456-6.386l-.789-9.882a87 87 0 0 0-1.988-10.566c-2.366-9.378-6.202-18.308-9.592-27.338l-4.349-12.96-3.242-10.263c-.648-2.252-1.373-4.555-1.65-6.887-.149-1.252-.152-2.173.641-3.164m-89.952-44.75.58-.114c.691.386.731.398 1.057 1.114-.524 2.809-1.808 5.564-2.703 8.285-2.58 7.845-5.303 15.705-6.209 23.965-1.134 10.34-1.186 20.77-1.66 31.15l-2.326 48.528-.14 8.115c.003 1.16.242 3.092-.301 4.08-.187.34-.636.383-.979.506l-.255-.117c-.302-.204-.433-.561-.543-.888-1.242-3.708-1.13-8.742-1.266-12.64-.405-11.632.489-23.56.992-35.19l1.292-26.646c.46-7.438.792-14.682 2.243-22.027 1.021-5.173 2.678-10.337 4.288-15.353 1.307-4.072 2.967-9.573 5.93-12.768m-199.79 17.251c.323-.086.649-.065.982-.072l.165.161c1.095 1.104 1.547 2.462 1.987 3.917 1.328 4.388 1.187 8.796 1.342 13.319l.29 10.365-.415 16.615-.623 18.709c-.214 5.308-.366 10.708-1.042 15.982-.62 4.844-1.691 9.605-2.767 14.363-.693 3.064-1.201 7.079-3.503 9.39-.762.033-.73-.07-1.308-.587-.548-2.482.995-6.828 1.55-9.358.939-4.269 1.974-8.583 2.542-12.92.486-3.717.47-7.487.629-11.229l.347-22.127c-1.618 3.594-3.326 7.887-6.577 10.284l-.809.368c-1.4.537-3.149.005-4.432-.626-2.378-1.167-4.372-3.244-6.19-5.124-2.487-2.57-5.484-5.62-6.702-9.056l.267-.422c.437.058.947.079 1.311.362 1.036.808 2.008 2.3 2.9 3.316 2.353 2.678 5.195 5.284 8.211 7.196 1.021.648 2.347 1.521 3.578 1.236 1.731-1.196 2.324-2.73 3.216-4.568l-3.288-1.968c-6.423-4.45-10.521-11.461-11.947-19.088 1.669 1.775 2.586 3.942 3.682 6.082 2.859 5.585 6.88 9.912 12.306 13.051 1.158-2.604 1.952-5.393 3.156-7.955.618-1.314 2.092-2.882 2.326-4.259.542-3.207.141-6.905.004-10.134l-.93-16.886c-.162-2.44-.962-6.045-.258-8.337"/><path fill="#141414" d="m117.502 365.126.75-.1c.593.444.797.865.947 1.6.444 2.184.346 4.919.42 7.173l-.054 24.765c-.068 7.518.39 15.064-.146 22.569l-.753 7.877-1.459 9.513c-.242 1.493-.976 3.892-.529 5.324l.098.279c1.728 5.14 6.428 10.944 11.005 13.824 1.835-1.327 3.44-3.256 4.953-4.94l8.091-9.235c.73-.819.921-1.199 2.05-1.263l.552.614c-.252 1.68-1.214 3.215-2.136 4.624-2.452 3.75-5.61 7.592-8.813 10.711-1.111 1.082-2.487 2.271-4.069 2.525-2.088.334-4.162-1.179-5.786-2.298a47 47 0 0 1-6.783-6.237c-2.643 7.097-4.903 14.256-9.35 20.483-1.535 2.15-3.253 4.073-5.99 4.537l-.375-.269c-.052-2.151 1.152-4.307 2-6.241l3.96-9.127 3.044-8.287c1.682-5.153 2.756-10.317 3.599-15.66 2.509-15.909 2.902-31.837 2.922-47.908l-.098-13.582c-.018-2.525-.19-5.183.1-7.687.189-1.624.538-2.556 1.85-3.584"/><path fill="#141414" d="M164.89 351.625c.705-.073.758-.165 1.317.25-.903 6.278-7.852 11.916-12.234 16 .46.083.754.171 1.152.418 1.238 2.314 1.542 5.24 2 7.789 2.084 11.597 2.752 23.661 3.352 35.418.117 2.282-.052 4.723.136 6.959.23 2.738.123 5.584.144 8.333.008 1.049.21 2.539-.079 3.538-.093.321-.135.541-.103.884.205 2.158-.014 4.425-.134 6.595-.202 3.658-.486 7.367-1.023 10.993-.509 3.438-4.357 25.552-5.591 27.073-.151.186-.384.286-.577.43-.33-.121-.411-.131-.733-.35-1.862-1.261-.944-5.697-.691-7.637 1.51-11.55 3.751-22.892 4.357-34.568.534-10.325-.452-20.541-1.264-30.817-.43-5.434-.448-11.563-1.929-16.808-.733-2.595.115-4.399.255-6.896.136-2.451-.078-5.025-.575-7.428l-.075-.358-.405-2.382a2.7 2.7 0 0 0-.818.17c-1.962.7-3.7.968-5.769 1.084l.376 10.435c.13 2.784 1.144 12.835-.354 14.753-.773.337-1.413.396-2.25.233-2.523-.489-5.83-4.226-7.852-5.88-3.376-2.763-6.929-5.136-10.064-8.205-1.02-.998-2.264-2.091-2.998-3.328-.524-.883-.71-1.488-.418-2.448.548-.438.966-.716 1.67-.836.718-.123 1.421-.016 1.992.473 1.495 1.278 2.746 3.156 4.155 4.573 2.86 2.875 6.203 5.428 9.525 7.749.43-1.935.706-3.939.906-5.909.056-.558.265-1.456.189-1.996-.059-.415-.609-1.179-.84-1.524-.721-1.075-1.605-2.146-2.089-3.354-.267-.664-.42-1.234-.15-1.904 1.647-.434 4.455.968 6.029 1.535l.105-4.407c-7.678-.171-15.352-3.176-21.831-7.154-2.917-1.79-7.728-5.369-8.575-8.87l.246-.306c.568-.004.926.198 1.378.517 1.466 1.035 2.742 2.367 4.176 3.453 3.81 2.89 8.405 4.867 12.946 6.284 1.286.401 3.052 1.143 4.4 1.068.683-.038.8.178 1.35.544l1.25-.338.672.695.578-.428c.516-.069.792-.055 1.254.174l.41.211c1.608-.196 3.211-.049 4.82-.332 6.463-1.137 11.066-5.64 15.026-10.568.957-1.191 1.881-2.902 3.255-3.6m64.151-302.25c.532-.038.615.02 1.075.25.113.208.329.388.339.625.047 1.114-1.755 3.73-2.33 4.856-2.372 4.643-5.289 10.071-5.158 15.411.153 6.212 4.174 15.053 9.446 18.563 1.695 1.129 4.133 1.665 5.567 3.046l-.355.384c-1.83.041-3.359-.208-5.13-.658.053 6.284-1.504 11.565-4.385 17.141 3.906 3.306 7.639 6.971 11.673 10.102 3.042 2.363 6.214 4.302 9.604 6.12.9.482 2.122 1.41 3.135 1.41l-.026-.5c-.63-.625-1.152-.766-2.005-.993l-.318-.082c-.329-1.005-.365-2.132-.524-3.175-1.016-6.66-.02-14.456 2.897-20.598.254-.534.301-.946.869-1.152 1.087 1.969.59 3.876.341 5.969l-1.189 8.381c1.18.661 2.278 1.454 3.175 2.474 2.529 2.878 4.043 8.076 3.721 11.852-.219 2.562-1.306 4.418-3.333 6.024-1.041.825-1.993 1.258-3.334 1.063-5.349-.779-10.191-4.555-14.603-7.437-6.573-4.294-14.423-9.038-19.244-15.282-.84 3.946-2.77 7.86-4.639 11.406-5.437 10.314-12.847 20.815-20.825 29.306-5.317 5.66-11.104 10.631-17.11 15.533-4.806 3.612-9.906 7.697-15.311 10.366-.717.354-1.478.724-2.279.456-.051-.296-.11-.554-.093-.861.057-1.081 1.373-2.321 2.135-2.991 2.876-2.533 6.362-4.583 9.423-6.917 6.619-5.045 12.825-10.51 18.554-16.554 4.869-5.137 9.113-10.777 13.211-16.535 3.235-4.545 6.493-9.195 9.132-14.115 1.3-2.425 2.452-4.987 3.127-7.664.49-1.941.631-4.908 1.553-6.636.407-.765 1.194-1.463 1.801-2.076 1.215 1.801 2.168 3.793 3.455 5.54 3.206 4.352 8.212 8.036 12.516 11.235 3.92 2.914 15.493 11.478 20.151 10.378.544-.128 1-.297 1.258-.79-.725-.423-1.731-.481-2.55-.675-1.177-.28-2.345-.721-3.448-1.212-6.038-2.69-12.029-6.798-17.176-10.946-4.209-3.392-11.608-8.524-12.163-14.225-.043-.449.052-.411.323-.737 1.59-.675 2.523-.82 4.234-.62.902.61 1.286 1.915 1.717 2.887l2.559-6.659c.635-2.224 1.001-5.68.243-7.883-1.054-3.056-3.87-6.055-5.47-8.933-3.646-6.559-4.203-14.018-2.051-21.138 1.146-3.791 4.225-10.762 7.815-12.734"/><path fill="#141414" d="M249.769 27.11c3.758-.205 7.846.469 11.411 1.67 2.951.994 6.125 2.704 7.448 5.712.618 1.404 1.069 4.885.422 6.274-.555 1.19-.533 2.393-.949 3.606-.372 1.087-1.51 2.089-2.601 2.428l-.375.086c2.083.857 4.465.607 6.24 2.25 1.132 1.049 1.582 2.466 1.585 3.989.005 3.342-1.909 6.113-4.081 8.446 2.149 2.26 3.058 6.834 2.976 9.89-.219 8.191-6.776 15.4-11.397 21.684-1.597 2.172-3.117 4.838-5.073 6.679-.872.177-1.215-.16-2-.54-.508-2.644 10.211-15.613 12.165-18.915 1.473-2.49 2.741-5.322 2.926-8.244.216-3.409-.212-6.353-2.509-9-.648.12-1.27.341-1.891.56-1.169.414-2.926 1.15-3.641 2.222-.864 1.297-.768 4.03-.472 5.499.218 1.085.573 2.566.029 3.594-.386.729-.857.95-1.607 1.206-.388-.056-.681-.117-1.016-.331-.619-.394-.85-.584-.963-1.336-.917-6.129.353-10.512 6.055-13.586 2.23-1.202 4.352-2.268 5.928-4.337.718-.942 1.543-2.005 1.389-3.241-1.046-.156-2.258.363-3.268.63-2.675.71-5.162 1.493-7.674 2.67L257 57.725c-1.879 1.201-3.925 3.013-4.812 5.097-1.319 3.101-.495 8.005-.08 11.303.141 1.116.443 2.684.061 3.75-.535 1.497-2.905 2.666-4.325 3.195-2.53.942-5.995 1.849-8.547.577-1.233-.615-1.542-1.593-2.388-2.566-1.676-1.927-3.467-3.12-4.216-5.706-.744-2.57.098-4.052 1.29-6.269-1.228.082-3.126.253-4.198-.426-.73-.461-1.113-1.22-1.225-2.055-1.035-7.727 4.729-13.676 11.039-16.924 1.151-.592 3.87-1.37 4.544-2.326-1.066-.688-2.993-.505-4.268-.722-.516-.53-.612-.961-.773-1.653l.374-.559c1.313-.368 2.675-.312 4.024-.447 1.494-.148 3.003-.44 4.47-.755 4.655-1.001 8.977-3.337 13.573-4.264 1.56-.315 2.953.213 4.397-.001l.037-.599c-.772-1.54-1.905-2.473-3.477-3.166-.465-.205-1.42-.632-1.911-.663-.324-.02-1.122.323-1.472.44l-4.565 1.76c-5.253 2.007-10.68 3.73-15.802 6.051-3.929 1.782-7.667 4.053-11.679 5.66-.856.343-1.176.334-2.026-.01-.267-.549-.369-.71-.09-1.322.34-.748 1.113-1.348 1.748-1.838 2.866-2.213 6.874-3.692 10.281-4.81-.424-.761-1.172-1.248-1.285-2.17a6.02 6.02 0 0 1 1.27-4.514c2.699-3.381 8.792-4.34 12.8-4.684"/><path fill="#C792F1" d="m236.471 69.626.366-.045c.676.395 1.076 1.058 1.534 1.677l-.863 4.399c-.807-1.069-1.709-2.094-1.888-3.469-.135-1.034.234-1.772.851-2.562m12.476 4.749.682-.185c.515.217.382.042.55.435.447 1.036.774 1.9.345 3-.755.747-1.653.848-2.649 1.06-.562.039-.83.025-1.335-.232-.553-.762-.528-1.41-.567-2.328.66-.962 1.918-1.272 2.974-1.75m-.447-8.75.407.25c.095 1.262.267 2.593.184 3.856-.05.744.032 1.234-.644 1.69-.818.55-1.882.636-2.822.49l-.538-.71c-.072-.499-.134-.911.003-1.406.504-1.827 1.806-3.246 3.41-4.17m-7.175 8 .316-.06c.446.188.612.27.862.72.519.935 1.633 5.004 1.362 5.84l-1.24.16c-.709-.123-1.302-.264-1.803-.818-.668-.739-1.156-2.136-1.056-3.135.118-1.181.705-1.94 1.559-2.707m8.065-43.29c2.602-.249 5.208-.058 7.778.368l-12.106 3.8-4.936 1.51-.495-.395c-.231-.804-.341-1.034-.14-1.868 1.985-2.491 6.952-2.98 9.899-3.415m13.435 10.173.925.01c.195.164.321.247.464.482.785 1.295.182 4.334.011 5.79l-6.304.847c-.896.139-2.199.505-3.062.345-.41-.076-.799-.978-1.023-1.339-1.117-1.166-2.535-1.413-4.012-1.96zm-14.283 7.56c1.261-.179 2.645-.035 3.922-.01-2.296 1.28-4.737 2.283-7 3.628-5.182 3.08-8.128 7.034-10.953 12.225l-.503.619-.517.03c-.775-.573-1.199-1.11-1.404-2.079-.455-2.144.397-4.461 1.643-6.184 3.244-4.486 9.48-7.405 14.812-8.23m14.098 1.781c2.101-.101 4.503-.414 6.235.976-.083.135-.122.313-.25.406-.386.281-5.73.694-6.875.981-4.125 1.036-8.568 3.265-11.502 6.414-.892.957-1.645 2.46-2.605 3.25-.893.734-2.077 1.143-3.015 1.829-.739.54-1.247 1.34-1.751 2.087l-1.982 3.458c-.683-.745-1.508-1.501-1.656-2.549-.341-2.426 1.386-5.74 2.864-7.632 4.992-6.396 12.88-8.299 20.537-9.22"/><path fill="#141414" d="m93.351 328.375.431-.054c.783.032.906.273 1.329.846.346 2.315-.504 4.402-1.216 6.566l.226.392.674.057c1.475.161 2.293.639 3.297 1.728 4.493 4.871-.058 14.223 2.283 17.056.963-.298 2.053-.641 3.064-.395 4.296 1.051 3.825 5.23 3.238 8.603-.01.052-.172.941-.17.944.566.791 1.945.92 2.618 2.053 1.191 2.006.944 6.254.35 8.454-1.473 5.452-6.31 10.435-11.032 13.229 1.942.366 3.834.753 5.487 1.909 1.155.806 2.411 2.273 2.528 3.737.125 1.566-1.594 3.016-2.591 4.054.76 1.025 1.776 1.524 2.413 2.696.032.556-.079.862-.373 1.32-1.019 1.589-2.515 2.771-3.976 3.933-8.992 7.152-20.512 9.212-31.356 11.845.602 2.19 1.078 4.403 1.865 6.538.288.781.519 1.658 1.138 2.24.438-.332.498-.495 1.065-.514l.057.295.104.468c.363 1.681.98 2.649 2.303 3.751l.438-.056c1.832-2.544 2.539-5.868 3.349-8.852-1.231.452-1.859 1.412-3.269 1.728l-.25-.466.313-.686c.685-1.219 2.891-3.317 4.312-3.599.696-.139 1.031.031 1.57.431.286 1.484.025 3.206-.086 4.714-.528 7.177-2.143 13.332-5.183 19.854-.68 1.46-1.692 3.104-3.093 3.968-1.541.95-2.595 1.072-4.332.611-.27-.071-.865-.336-1.103-.314-.446.04-1.462.843-1.848 1.098l-5.243 3.305c-3.178 1.816-6.357 3.437-9.803 4.68-.073 4.35-.783 8.782-1.193 13.122-.143 1.518-.082 4.378-.784 5.634-.49.877-1.084 1.398-2.027 1.66l-.625-.583c-.42-1.295-.261-2.771-.217-4.123.119-3.626.538-7.274.944-10.877.17-1.513.598-2.877 1.053-4.323-.76.161-1.49.474-2.217.743-6.991 2.326-14.186 4.393-21.635 4.086-.618-.025-4.648-.59-4.808-.487-.067.042-.473 1.66-.544 1.91l-3.746 13.793c-.436 1.675-.807 5.167-1.839 6.529-.122.161-.327.238-.491.358l-.5-.484c-.478-1.334-.552-2.367-.574-3.75-.034-2.163.469-4.273.854-6.392.863-4.743 1.904-9.275 3.846-13.701-3.015-1.527-6.032-2.949-8.677-5.086-5.434-4.389-8.61-10.621-9.181-17.559-.398-4.83.437-9.983 1.9-14.581 3.474-10.907 9.967-21.027 16.424-30.383 11.22-16.259 24.046-31.789 38.801-44.969l8.8-7.228 7.752-5.632c1.338-.946 3.404-2.048 4.362-3.344.616-.834 1.082-1.274 2.028-1.75 1.972-.992 4.113-.584 6.126.058 2.278.728 3.724 1.52 4.844 3.681l.176.343c.088-1.018.122-2.123.369-3.114.256-1.023.36-1.174 1.251-1.718"/><path fill="#C792F1" d="m93.678 339.626.947-.134.5.549c.056.278.254.564.168.834-.072.225-1.644 1.456-1.91 1.726-2.766 2.798-4.53 6.089-6.152 9.637l-.42.707c-.152-1.274.226-2.668.54-3.901.952-3.75 2.924-7.404 6.327-9.418m2.357 4.749.335.152c.307.48.67 1.021.667 1.612-.01 2.492-2.999 6.012-4.31 7.986-1.498 2.254-2.755 4.614-4.602 6.616l-.41.24-.398-.106c-.099-.966-.192-1.897.088-2.842.952-3.226 5.885-12.183 8.63-13.658m.51 9.5c.4-.101.162-.073.72 0l.61 1.234c.35 1.154-1.13 3.09-1.629 4.214-.637 1.434-1.478 3.454-.871 5.014l.57.078c1.912-1.124 3.011-3.598 4.73-5.04.572-.48.86-.502 1.575-.402.481.449.694.576.753 1.277.07.837-.45 2.061-.74 2.863-1.154 3.196-4.26 8.212-3.574 11.671 1.196.296 4.59-7.697 7.186-8.287.694.5.77.589 1.099 1.378-.301 1.355-2.389 3.147-3.271 4.334-1.885 2.535-3.583 5.333-5.266 8.01 1.324-.81 2.704-1.606 3.832-2.684 1.646-1.575 2.957-3.529 4.466-5.241l-1.246 3.294c-1.906 3.861-7.618 9.585-11.954 10.126-2.018.251-4.864-.509-6.718.225-.512.202-.567.342-.763.811 1.075 1.042 4.301 1.165 5.843 1.41-1.701 1.149-3.718 2.896-4.596 4.792-.313.675-.206.764.048 1.423l.526.09 2.549-1.966c.87-.601 2.58-1.594 3.645-1.354l3.369.718c2.024.485 3.193 1.038 4.745 2.434-1.534.804-3.192 1.164-4.699 1.945-.92.477-1.289 1.235-1.575 2.201-.2.677-.202.887.118 1.513 2.031 1.086 4.496.669 6.696.477-2.302 2.242-4.808 3.714-7.611 5.251-8.304 4.551-16.579 6.424-25.82 7.961-1.639-4.038-2.707-8.318-3.422-12.612-.45-2.698-1.533-7.34-.492-9.954 1.068-2.682 3.635-4.922 5.645-6.926l6.94-7.002c4.274-4.496 8.982-8.931 12.666-13.91 2.186-2.956 3.758-6.366 5.916-9.366"/><path fill="#C792F1" d="M82.988 333.125c.565-.036 1.144-.067 1.7.066 2.434.583 3.923 2.401 5.139 4.432-1.6 2.539-3.208 5.232-4.124 8.102-1.66 5.194-2.634 12.37-.079 17.34-2.689 3.442-5.35 7.025-8.347 10.203l-11.214 11.166c-1.643 1.785-3.148 3.652-4.629 5.572-.671.872-1.238 1.899-1.994 2.694-.88.925-1.905 1.714-2.815 2.61-1.242 1.223-2.314 2.684-3.39 4.056-3.347 4.276-6.616 9.16-8.58 14.246-.568 1.473-.74 2.738-.829 4.304-.02.359-.02 2.155-.11 2.262-.217.257-1.547.752-1.916.94-1.61.822-2.96 1.708-4.113 3.138-.942 1.168-2.055 3.042-1.77 4.619.11.608.32.863.833 1.155 1.156-.661 2.054-1.972 2.894-2.992 1.12-1.362 2.17-2.447 3.593-3.489.819 3.473 2.27 7.355 4.288 10.326.956 1.408 2.09 3.039 3.85 3.38.733-.127 1.014-.259 1.562-.765-.008-1.489-2.457-4.461-3.225-5.902-1.84-3.447-2.889-7.258-2.813-11.162.021-1.099-.002-2.304.358-3.353 2.833-8.263 9.274-14.133 14.192-21.09.11 8.523 3.496 16.201 6.124 24.152 1.533 4.633 2.744 9.109 4.692 13.617l-1.271 3.044c-1.001-1.083-1.819-2.415-2.535-3.7-3.612-6.477-5.453-13.924-8.26-20.788-1.021-2.612-1.748-5.438-3.01-7.933l-.417-.059c-.584.668-.802.903-.764 1.81.072 1.73.716 3.67 1.196 5.326l3.14 9.826c1.98 5.972 3.617 12.61 6.59 18.146.689 1.28 1.657 2.174 2.72 3.128l-.37.318c-1.917 1.494-4.37 2.824-6.471 4.074-10.915 6.496-25.087 12.853-38.063 11.065-2.794-.385-5.516-1.529-7.958-2.916-5.213-2.961-9.487-7.21-11.046-13.129-2.175-8.252.88-16.712 4.214-24.214a135 135 0 0 1 6.778-13.273c4.468-7.65 9.628-14.823 15.01-21.853 10.516-13.736 22.362-27.085 36.069-37.733 2.947-2.29 6.048-4.167 9.162-6.202 1.075-.702 2.15-1.439 3.094-2.314 1.032-.956 1.526-1.884 2.915-2.25"/><path fill="#141414" d="m250.518 139.125.243.383c-1.407 2.591-3.087 5.011-4.682 7.489-2.274 3.535-4.534 7.149-7.074 10.503-3.255 4.298-6.942 8.35-10.571 12.335 2.403-.334 4.76-1.108 7.202-1.414 7.135-.894 15.192.642 22.117 2.281 8.014 1.896 17.706 5.479 22.254 12.798 1.912-.36 4.099-.164 5.938.426 5.457 1.75 9.91 7.6 12.37 12.557 5.077 10.227 2.844 20.131.329 30.645-.889 3.716-1.636 7.629-2.884 11.228l-.097.274 2.898.284c2.22.45 4.646 1.948 5.797 3.933 1.996 3.444 1.998 7.495.937 11.225-1.463 5.139-4.466 9.264-9.218 11.828-1.641.886-3.951 2.034-5.822 1.448-.454-.143-.614-.206-1.112-.222-.834 2.558-.95 5.712-1.418 8.374-1.434 8.162-3.973 17.49-9.187 24.086s-11.913 10.149-20.253 11.08c-10.082 1.124-20.614-2.832-28.435-9.067-12.287-9.797-22.935-23.601-24.675-39.627-4.348 1.798-8.523 2.289-13.079.926-5.287-1.582-10.017-6.31-12.596-11.056-3.869-7.12-2.954-16.296.372-23.445 1.537-3.304 3.678-6.605 4.717-10.091-1.034.625-1.97 1.632-2.845 2.462l-6.454 6.594c-1.819 1.86-3.379 3.566-5.99 4.268-4.331 1.164-11.79 1.706-16.05.319-1.981-.645-3.835-1.81-5.638-2.841 2.213 3.92 2.627 9.745 3.025 14.208.635-1.306 1.202-2.714 2.238-3.758.854-.042.914-.02 1.642.43.234.37.45.722.516 1.164.318 2.091-2.132 4.599-2.278 6.84-.125 1.921 1.203 5.428.205 6.883-.741.211-.957.347-1.71.117-1.155-1.206-1.165-3.534-1.392-5.125-.462.809-1.067 1.65-1.813 2.217-1.445 1.096-3.226 1.27-4.972.996-5.801-.914-10.795-8.18-13.956-12.623l.975 3.918c.823 3.721.771 8.509-1.109 11.929-1.871 3.404-4.769 5.432-8.432 6.535-8.245 2.482-17.64.109-25.035-3.817-3.471-1.956-6.589-4.513-10.369-5.818.552 3.975 1.743 7.832 2.228 11.806.353 2.892-.187 6.142.486 8.942.112.467.165.666-.032 1.134-.3.114-.352.15-.704.202-2.527.371-6.002-5.69-7.788-7.352-1.601-1.49-3.495-2.383-5.712-2.226-1.936.138-3.865 1.311-5.079 2.782-1.2 1.452-1.741 3.134-1.55 5.007.22 2.158 2.161 4.019 3.777 5.307 1.763 1.405 3.984 2.425 6.056 3.282 4.97 2.058 10.173 3.379 15.568 2.745l.373-.045c-.857.656-1.727 1.357-2.692 1.846-3.211 1.628-9.334.066-12.625-.932-5.902-1.791-11.777-4.929-14.762-10.573l-.14-.273-.542.022c-10.165.968-21.364-.45-30.234-5.779-9.15-5.498-14.875-15.648-17.411-25.776-2.915-11.643-.711-23.499 5.454-33.719 6.196-10.271 15.228-16.67 26.808-19.484 6.32-1.536 13.474-1.249 19.762.357 2.16.552 4.255 1.147 6.16 2.336l.314.199-.167-1.012c-1.125-6.87 1.676-14.27 5.484-19.896 3.75-5.538 9.774-11.147 16.594-12.369 6.168-1.106 13.097.303 18.238 3.908 6.127 4.298 9.758 11.157 11.03 18.415l.442-1.183.538-1.375c1.197-2.446 3.536-4.311 6.104-5.16 5.63-1.862 12.063-.546 17.266 1.936 12.488 5.957 20.243 19.094 24.722 31.661l3.344 10.953c6.666-2.822 10.759-8.982 15.143-14.445 4.632-5.773 9.015-11.837 13.987-17.323 6.047-6.672 13.366-12.28 19.702-18.706 7.106-7.207 12.898-15.517 18.868-23.648 1.08-1.471 2.666-4.215 4.212-5.165.542-.332 1.521-.382 2.149-.478"/><path fill="#C792F1" d="M99.42 163.363c3.836-.088 7.971 1.069 11.175 3.184.744.492 2.438 1.61 2.603 2.446-.417-.128-.252-.038-.607-.309l-1.384-.991c-4.162-2.406-9.822-3.176-14.474-1.85-7.042 2.006-12.018 7.935-15.514 14.068-2.195 4.54-3.48 8.91-4.34 13.867l-.602-3.915c-.471-6.98 3.192-13.85 7.731-18.917 4.317-4.817 8.959-7.213 15.412-7.583m-44.494 28.992 1.627.02-.178.281c-2.748.415-5.297 1.339-7.875 2.351-6.805 2.673-12.666 6.596-17.53 12.08-5.899 6.652-10.621 14.844-12.335 23.63-.828 4.243-.886 8.611-.635 12.908l-.1.791c-.557-.813-.682-2.479-.823-3.457-1.747-12.06 1.544-23.814 8.937-33.497 6.796-8.901 18.076-13.613 28.912-15.107m241.487 49.77a4.6 4.6 0 0 1 1.587.094c1.514.331 2.733 1.214 3.561 2.52 1.404 2.217 1.814 4.88 1.216 7.428-1.152 4.898-3.794 8.296-8.049 10.893-1.679.873-3.435 1.408-5.251 1.915l1.082-18.316c1.774-1.668 3.551-3.636 5.854-4.534m-159.741-22 .271-.052c3.431-.25 7.004 6.683 9.367 8.715l.34.289c-.217.229-.241.237-.439.548-1.446 2.271-.17 5.008.339 7.419.704 3.337 2.121 8.652-.013 11.655-.55.774-1.58 1.44-2.537 1.522-1.463.127-3.117-1.332-4.206-2.143l-2.599-2.523c-3.336-3.418-11.173-12.556-10.94-17.36.104-2.155 1.72-3.571 3.238-4.868.543.389 1.272 1.006 1.934 1.147.292.062.641.099.904-.066.604-.378 1.01-1.223 1.47-1.783.866-1.055 1.728-1.774 2.871-2.5"/><path fill="#141414" d="M140.487 228.375c.687-.145 1.371-.201 2.05.042.757.272 1.103.886 1.416 1.583.768 1.707.872 4.628.081 6.369-.403.887-1.033 1.216-1.909 1.526l-.254-.022c-1.238-.226-2.584-1.676-3.198-2.706-.69-1.154-.948-2.419-.566-3.711.443-1.503 1.02-2.327 2.38-3.081"/><path fill="#C792F1" d="m124.055 207.375.301.05c1.247 4.23 5.657 8.444 9.171 10.878l-2.152 1.658-.781-.184c-1.551-.212-3.589.84-4.719 1.836-5.593 4.93-2.698 11.656-1.001 17.555 1.105 3.841 2.231 7.849 1.888 11.884-.227 2.659-1.582 4.978-3.637 6.64-3.38 2.733-8.412 3.093-12.576 2.617-5.748-.655-11.075-3.088-16.004-6.003-2.677-1.583-5.384-3.295-7.319-5.781-1.992-2.561-3.035-6.466-2.589-9.671l.46-2.329c.737-2.454 1.806-4.868 3.528-6.798 1.387-1.557 3.125-2.71 5.254-2.77 2.593-.072 4.986.972 6.868 2.72l-4.326 4.346c-1.17 1.402-2.537 2.92-2.36 4.852.51.71.473.746 1.314.946 2.68-2.184 3.838-5.627 6.938-7.575 2.312-1.453 5.41-2.12 7.692-.313.816.646 1.594 1.542 2.62 1.806.634-.323.725-.514 1.127-1.114.065-.529.065-.929-.164-1.414-.635-1.341-2.309-2.391-3.655-2.896-2.016-.758-4.079-1.01-6.071-.058l-.269.136c-1.681-1.974-2.914-2.938-5.372-3.89 3.957-.777 7.882-2.111 11.635-3.582 6.707-2.626 11.315-6.934 14.199-13.546"/><path fill="#141414" d="M112.103 238.875c.396-.15.752-.178 1.172-.174 1.262.014 2.498.669 3.36 1.577.598.631 1.09 1.39 1.038 2.291-.142 2.48-2.466 4.962-4.183 6.564-.616.303-1.159.53-1.865.392-1.184-.232-2.282-1.318-2.844-2.344-.67-1.225-.759-2.747-.328-4.066.637-1.944 1.888-3.274 3.65-4.24"/><path fill="#C792F1" d="M238.431 171.605c3.588-.466 7.895.076 11.444.615 8.51 1.292 17.295 3.475 24.194 8.896 1.463 1.149 2.253 2.132 3.096 3.803.059.116.608 1.306.651 1.326.525.236 2.837-.448 3.559-.417.816.035 1.72.395 2.483.673 5.359 1.947 9.469 8.064 11.749 13.032 4.924 10.731.872 21.568-2.204 32.166-1.019 3.508-1.696 7.14-2.967 10.561-.571-2.838-1.042-5.836-2.039-8.557-1.118-3.049-2.782-5.912-4.462-8.682-2.699-4.452-5.766-9.35-10.675-11.593-2.429-1.109-5.093-1.607-7.642-.593-1.421.565-2.72 1.496-3.356 2.915.079.1.123.244.238.299.58.278 3.918-.358 4.75-.391 1.518-.06 2.971.157 4.384.732 4.581 1.863 6.773 5.311 9.165 9.412 1.371 2.349 2.706 4.723 3.766 7.232 2.09 4.949 3.192 10.369 3.371 15.732.172 5.113-.821 10.329-1.605 15.36-1.376 8.83-2.516 17.371-5.92 25.715-2.813 6.895-7.318 12.875-14.336 15.803-7.833 3.268-16.49 2.432-24.203-.744-12.591-5.185-24.74-18.807-29.825-31.285-1.26-3.09-2.309-6.431-2.792-9.738-.811-5.564-.519-11.425-.388-17.024.108-4.612-.184-10.872 1.691-15.103 1.67-3.766 5.905-7.109 8.797-10.041l10.476-10.29c3.909-3.85 7.732-7.679 12.026-11.113 3.73-2.983 7.892-5.891 12.249-7.873 3.705-1.687 7.63-2.404 11.642-2.879 1.87-.221 4.037-.219 5.777-.929l.054-.415c-1.492-1.14-4.36-1.027-6.172-1.021-14.797.054-27.647 11.724-37.504 21.635l-9.808 10.403c-3.79 3.89-8.24 7.816-11.197 12.383-.918 1.418-1.868 2.916-2.337 4.55-.857 2.984.111 6.173.676 9.09.146.752.38 1.503-.048 2.156-1.028-.456-1.947-1.422-2.61-2.326-1.809-2.469-1.977-5.602-1.473-8.525.783-4.54 3.203-9.114 5.367-13.129 6.764-12.552 15.894-25.484 28.604-32.564 2.724-1.518 5.551-2.712 8.496-3.735 2.384-.829 5.826-1.235 7.856-2.687l-.054-.507c-1.066-.818-3.256-.444-4.536-.289-12.457 1.504-23.644 10.811-31.194 20.369-3.38 4.28-6.238 8.889-8.999 13.583-3.825 6.504-9.765 16.141-8.595 24.005.666 4.481 3.463 7.332 6.977 9.886l-.357 7.358c-2.156 1.369-4.895 1.951-7.442 2.011-4.182.097-8.012-2.124-10.896-4.981-4.02-3.983-5.952-8.453-5.949-14.123.004-8.508 4.133-16.023 8.211-23.243 4.721-8.359 10.068-16.373 16.923-23.155 8.601-8.51 20.308-14.143 32.346-15.449 6.929-.752 14.259-.082 21.088 1.146 2.377.427 4.754.978 7.073 1.647 2.008.579 4.261 1.575 6.35 1.576l.355-.399-.105-.258c-.562-.983-1.932-1.54-2.933-1.978-3.042-1.332-6.136-2.485-9.383-3.21-11.222-2.508-24.347-2.524-35.309 1.107-5.475 1.814-10.347 4.458-15.187 7.551l.574-.757c1.708-2.012 3.799-3.68 5.853-5.319 6.847-5.461 13.331-8.728 22.191-9.406"/><path fill="#C792F1" d="M227.143 234.8c.734.172 1.065.762 1.503 1.325.94.038 1.939.007 2.867.137-1.958.564-4.723.248-6.763.192l-.268-.328.208-.257c.739-.807 1.379-1.033 2.453-1.069"/><path fill="#141414" d="M258.55 225.625c3.439-.082 13.699-.381 16.336 1.692.441.347.321.532.375 1.058l-.636.327-5.927-.695c-2.953-.272-6.026-.221-8.948-.698-.566-.092-1.333-.147-1.792-.519-.271-.22-.147-.597-.144-.915zm-1.854 7.25c2.195-.264 4.791.388 7.019.516 1.546.088 4.32-.327 5.682.219.332.133.308.334.424.64-.199.952-.231 1.121-.917 1.875a5.2 5.2 0 0 1-1.782.594c-2.442.316-8.515-.94-10.432-2.422-.231-.685-.209-.727.006-1.422m20.809-31.5.87-.042c.583.683.831 1.461 1.145 2.292-.388 1.052-.076 1.922.168 2.98.486 2.102 1.176 4.065 1.919 6.084.506 1.374 1.324 2.988.965 4.436l-.593-.077c-1.971-1.796-3.445-4.578-4.055-7.149-.5-2.107-1.574-6.686-.419-8.524m1.818-8.25.802-.105c.554.217.921.426 1.38.813 4.964 4.196 7.672 10.669 9.472 16.731.426 1.435 1.03 2.801 1.148 4.309l-.487.068c-1.716-1.8-2.401-4.419-3.278-6.697-.848-2.204-1.83-4.395-3.047-6.422-1.018-1.699-2.189-3.37-3.386-4.947-.86-1.133-2.236-2.377-2.604-3.75m-52.18 41.674c-.652-.734-.786-.754-.836-1.778.684-.45 1.517-.259 2.327-.24 2.583.06 6.872.363 7.563-2.906-.302-1.188-1.219-2.242-2.286-2.839-2.076-1.161-5.835-1.209-8.244-1.611-.439-.073-1.789-.252-2.093-.511-.16-.137-.218-.359-.327-.539l.238-.5c1.954-.429 10.494 1.119 12.265 2.075 1.536.829 3.008 1.226 3.704 3.027.43 1.111.106 2.268-.384 3.312-.798 1.698-1.939 2.609-3.695 3.207-1.135.387-2.682.817-3.862.766-.928-.131-1.927-.099-2.867-.137-.438-.563-.769-1.153-1.503-1.326"/><path fill="#141414" d="M268.045 229.375c1.749.228 3.296 1.051 4.955 1.601 1.066.354 2.658.443 3.397 1.274-.122.22-.227.437-.402.625-.354.379-.752.494-1.238.566-.366.055-.515.061-.846.272-.354.226-.483 2.521-.623 3.102-.613 2.538-2.344 4.51-4.563 5.807-3.75 2.191-6.981 1.835-11.018.773-1.366-.52-2.603-1.207-3.49-2.395-.196-.807-.218-1.097.071-1.875 1.044-.224 2.317.692 3.307 1.118 2.51 1.08 5.613 1.819 8.28.887 1.658-.579 3.554-2.102 4.278-3.72.54-1.209.532-2.287.016-3.496l-.128-.289c-.598-1.413-2.041-1.841-2.736-3.079-.234-.418-.107-.482.008-.921zm-39.329 27.5c.619-.088.848-.151 1.409.23.751.511 1.538 1.759 2.121 2.476 3.022 3.718 6.043 7.568 10.73 9.222 3.989 1.408 7.75 1.606 11.554-.426 1.064-.568 2.23-1.32 2.938-2.318.578-.814 1.003-2.96 1.946-3.29.792-.277 1.904-.07 2.609.375.686.433 1.078.926 1.227 1.731-.383 1.803-1.582 3.309-2.658 4.766l-2.381 2.859c-2.35 2.56-6.664 6.292-10.317 6.299-5.738.012-11.802-6.632-14.734-11.012-1.551-2.319-2.483-4.876-4.451-6.923l-1.198-1.239c-.03-.396-.087-.858-.016-1.25.145-.812.58-1.074 1.221-1.5m33.837-61.103.947-.049.209.402c-.69 1.312-2.13 1.946-3.367 2.66l-6.958 3.914c-2.117 1.232-4.233 2.563-6.215 4.001a65 65 0 0 0-5.91 4.831c-1.634 1.507-3.204 3.33-5.114 4.48l-.238.135c2.594 1.433 4.659 2.909 6.834 4.925.4-.258.418-.413.634-.823l.478.127c1.191 1.446 1.744 3.009 2.43 4.727l6.378-8.248c3.995-5.052 8.812-8.772 13.564-13.01 1.586-1.415 4.482-4.851 6.525-5.091.651.422.889.73 1.284 1.372.321 4.683-12.629 12.831-15.99 15.929-2.627 2.421-4.691 5.047-6.743 7.946l-2.167 2.867c1.842 3.695 2.083 7.017 1.831 11.103-.208 3.378-.746 8.961-3.505 11.236-1.087.897-2.464 1.048-3.816.882-3.001-.369-8.455-1.067-10.299-3.725-.457-.659-.704-1.374-.55-2.181.49-2.568 3.232-5.339 4.856-7.308 2.069-2.509 4.811-6.411 5.451-9.624-1.558-3.921-5.082-.346-7.477-1.791l-.092-.456c1.06-.746 2.517-.534 3.717-.932.629-.208.906-.346 1.18-.946-1.924-2.529-4.557-3.688-7.429-4.821-1.182-.466-2.432-.822-3.393-1.679-.079-.806.017-1.068.384-1.75 1.511-.736 3.85.761 5.467 1.037-.069-.963.068-1.637.526-2.472 1.176-2.147 2.867-3.798 4.64-5.453 6.026-5.621 14.011-9.992 21.928-12.215"/><path fill="#C792F1" d="m245.798 228.875.497.137c.665 1.641.97 3.202 1.022 4.973.109 3.609-.368 9.712-2.942 12.44-2.008.219-3.664-.262-5.541-.872l-2.581-1.402c1.81-3.383 4.251-6.243 6.372-9.416 1.242-1.858 2.208-3.85 3.173-5.86"/><path fill="#141414" d="M204.147 462.204c-.532-1.732-.763-3.606-.903-5.406-.333-4.272-.011-8.572-.239-12.856l-.972-16.068.175-21.186c.07-11.294.287-22.477 1.849-33.684.946-6.791 2.563-13.354 4.029-20.038.659-3.005 1.269-6.028 1.521-9.098.027-.328.218-1.356.119-1.637-.171-.488-.915-1.335-1.295-1.695-2.304-2.186-6.594-2.594-9.515-3.627-1.723-.609-3.399-1.451-4.981-2.363-3.723-2.144-6.895-4.907-10.07-7.772l-9.719-9.521c-2.341-2.524-4.546-5.167-7.013-7.573-2.083-2.03-5.356-3.772-7.016-6.054l.008-.633c.528-.507 1.016-.719 1.75-.714 3.064.022 7.174 4.675 8.992 6.761l.452.522c.714-2.041 1.442-3.794 2.722-5.544 3.323-4.545 7.774-8.206 11.435-12.479 2.373-2.769 4.057-6.106 6.476-8.809.886-.99 1.971-2.037 3.175-2.61l3.622-1.286c-3.023-4.628-9.59-9.379-15.068-10.407-2.062-.387-4.764.276-6.42 1.52-2.088 1.569-3.907 3.685-5.716 5.57-7.33 7.637-13.848 16.038-20.274 24.44-2.158 2.822-4.508 5.575-6.49 8.523-.661 7.449-2.856 14.884 1.231 21.837 5.042-3.576 9.376-12.657 16.483-11.476 5.587.929 11.173 4.294 14.358 8.977 2.894 4.254 4.059 8.772 4.744 13.817.624 4.588.704 9.263.848 13.885l.618 21.63.545 8.379 1.535 33.095c.399 7.058 1.24 13.972 1.049 21.064-.035 1.294.077 2.95-.245 4.187-.083.32-.16.403-.322.647l-.5.078c-4.158-4.778-5.63-64.759-5.888-74.866l-.362-16.91c-.125-5.546-.04-11.564-1.708-16.906-1.831-5.867-6.207-12.093-12.896-12.586-1.142-.084-2.58.144-3.473.907-1.639 1.403-2.637 3.915-3.694 5.784-3.603 6.373-9.623 9.671-16.979 9.446-5.966-.183-12.388-1.999-17.769-4.48-5.897-2.719-33.741-22.005-38.98-17.823-.242.192-.386.452-.543.709.191.992.512 1.83.922 2.751l-.116.763c-.664.342-.688.321-1.428.186-1.264-1.133-2.419-2.615-2.482-4.387-.034-.974.375-1.677 1.043-2.357 1.467-1.492 3.379-2.317 5.478-2.235 3.613.141 7.077 1.617 10.333 3.058 10.514 4.654 20.182 12.238 31.246 15.432 5.006 1.445 9.91 1.642 15.052 1.027-1.008-2.448-1.882-4.967-2.266-7.598-.713-4.894.06-10.713 1.203-15.517-2.381 1.052-4.771 2.205-7.318 2.796-7.36 1.71-15.535.127-22.441-2.576-7.35-2.877-13.996-7.798-20.21-12.588-1.712-1.318-3.8-2.646-5.097-4.38l-.127-.668c.562-.379.94-.476 1.625-.312 3.075.738 6.296 3.739 8.919 5.523 12.689 8.631 27.954 17.218 43.267 9.288 1.301-.674 2.435-1.424 3.478-2.462 2.426-2.415 4.425-5.385 6.577-8.046l17.534-21.629c2.112-2.395 4.468-5.357 7.214-7.008 2.292-1.378 5.125-1.927 7.761-1.521l.481.071c3.929.596 8.047 2.49 11.19 4.897 7.342 5.622 12.846 14.023 19.18 20.742l13.811 14.116c1.518 1.595 3.371 3.252 4.653 5.017l.16.242-.35.475c-.286-.012-1.019.048-1.25-.054-1.842-.813-4.377-3.653-5.779-5.175l-1.729-1.988c-.679 7.794-3.996 16.1 1.753 22.951 1.8 2.145 3.947 3.468 6.762 3.683 3.807.292 8.499-2.006 11.299-4.465l.721-.697c1.334 2.044 2.764 4.484 5.403 4.932 3.771.64 6.892-.865 10.264-2.137l.186.339c1.666 3.006 4.712 6.153 8.12 7.079 1.868.508 4.086.38 5.756-.655 1.646-1.02 2.705-2.798 3.101-4.662.509-2.397.353-5.382.264-7.835-.046-1.269-.626-3.477-.121-4.555l.5-.209c.714.353 1.75 1.141 2.033 1.928.268.743.239 1.798.269 2.581l-.042 6.634c3.162-2.115 5.635-5.376 6.479-9.144.759-3.386.555-7.068 1.069-10.526.489-3.296 1.6-6.551 2.037-9.81-2.251 2.856-4.459 5.762-6.444 8.81-.807 1.24-1.379 2.617-2.241 3.812-1.139 1.58-2.697 2.977-4.122 4.3-1.785 1.656-3.642 3.34-5.79 4.52-3.242 1.78-7.485 2.433-11.098 2.96-.963.14-1.705-.451-2.656-.551-5.084-.533-12.118-.347-16.448-3.469-.654-.472-.781-1-.85-1.77-.045-.499-.054-.795.219-1.232.863.092 1.675.756 2.46 1.124 1.132.53 2.401.94 3.604 1.278 8.482 2.387 19.905 1.82 26.93-3.963 1.531-1.26 2.918-2.799 4.107-4.383 2.654-3.534 8.516-13.523 12.734-14.418l.625.261.302-.275c1.949-1.754 3.339-2.833 6.077-2.666 3.366.205 6.638 1.446 9.717 2.737 5.013 2.102 9.692 4.689 14.474 7.249 8.988 4.814 20.002 10.369 30.324 10.824-5.657-11.434-8.081-23.939-8.19-36.662l.722-17.945c.265-6.069.4-12.198 1.135-18.231.77-6.324 2.293-12.528 4.337-18.555 1.644-4.851 3.693-9.81 6.602-14.046 1.054-1.536 2.152-2.974 3.876-3.81 1.934-.94 4.38-.572 6.19-1.527-5.903-1.517-12.008-2.457-17.673-4.79-6.443-2.654-11.873-8.108-15.359-14.047-3.191-5.436-4.016-11.613-2.444-17.718 1.896-7.363 7.217-13.715 13.786-17.428 10.437-5.898 25.19-6.067 36.454-2.798 10.454 3.034 19.014 9.352 26.494 17.085l5.092 5.779c-.29-1.133-1.158-2.042-1.822-2.986-5.114-7.26-12.366-13.723-19.992-18.222-10.711-6.32-23.88-8.774-35.991-5.562a54 54 0 0 0-5.413 1.75c-1.04.398-6.126 2.77-6.822 2.692-.134-.015-.237-.128-.356-.192.641-2.432 2.762-4.1 4.856-5.316 9.317-5.413 23.03-4.805 33.064-2.057 15.696 4.299 27.96 14.094 36.015 28.217 1.386 2.43 2.377 5.086 3.309 7.716l.329.002c4.651.086 8.866 2.328 12.683 4.778 4.327-7.211 11.908-11.35 19.9-13.382 9.692-2.465 22.176-1.98 30.881 3.31 6.515 3.958 10.229 9.712 12.037 17.056 2.248 9.128.504 19.02-4.42 26.984-3.724 6.022-8.698 10.155-15.041 13.096 1.451 4.929 4.389 9.364 6.179 14.213 2.544 6.89 4.36 13.871 5.63 21.099 2.294 13.059 2.559 26.665-3.99 38.621-7.532 13.752-23.216 23.076-37.892 27.308-6.244 1.801-12.018 2.68-18.5 2.173l3.154 12.725c1.602-1.041 2.648-1.792 4.662-1.362 4.166.889 8.635 5.021 11.676 7.816 3.944 3.624 7.817 7.317 11.308 11.387 5.531 6.448 10.32 13.693 14.568 21.041 5.836 10.092 10.321 21.406 13.893 32.478 5.302 16.432 8.821 32.974 10.943 50.098l1.11 10.052c.072 1.046.28 2.429-.006 3.448-.229.81-.435.846-1.12 1.302l-.872.018c-1.227-1.66-1.404-5.323-1.792-7.414l-3.751-21.037c-6.354-33.018-17.667-66.653-40.552-92.041-4.677-5.188-9.549-9.333-15.315-13.289-1.262-.865-2.462-1.895-3.82-2.6l-.23.36c-3.33 5.123-8.328 8.572-10.535 14.566-1.197 3.251-.71 8.542-4.297 10.299-.347.17-.712.278-1.09.352-1.125.221-1.827-.026-2.769-.616-.338-.658-.609-.91-.305-1.651.455-1.105 2.233-1.484 3.276-1.763l.696-.18c.974-6.134 2.069-15.646 7.622-19.448.968-.663 3.003-1.068 3.671-1.889l-4.866-14.469c-.539-.26-.275-.255-.673-.147-.773.211-1.552.305-2.286-.104-.693-.386-1.254-1.149-1.713-1.778l-21.259 18.031c.257 3.111-.013 6.233.268 9.336.37 4.094.704 8.368 1.354 12.42l2.569 12.553c1.398 6.752 2.861 13.41 4.965 19.982l8.003 21.9 7.467 22.091c2.162 6.806 4.279 13.646 5.345 20.727.161 1.067.775 3.478.004 4.292-.418.441-.681.504-1.238.681-.899-.326-1.269-1.19-1.642-2.011-1.265-2.777-2.038-5.978-2.939-8.897l-5.026-15.992-11.011-30.942c-4.14-12.772-6.731-25.468-8.758-38.707-4.597 1.685-9.285 1.695-13.769-.409-1.832-.86-4.74-2.456-5.604-4.376-.308-.683-.219-1.088 0-1.769l.624-.426c1.22.574 2.066 1.651 3.209 2.367 4.163 2.607 9.818 3.328 14.459 1.605l.604-.245c-.435-1.974-.708-3.928-.958-5.933-.119-.961-.112-2.387-.537-3.245l-4.379 1.206c-3.17.668-7.998-.575-10.7-2.386-3.356-2.25-4.728-6.146-5.43-9.95l-.187-1.709c-2.656 5.539-4.776 11.214-6.917 16.962-2.63 7.063-5.225 14.428-6.931 21.773-1.896 8.164-2.897 16.373-3.492 24.721-.574 8.043-.961 16.266-.321 24.321.246 3.091.783 6.123 1.256 9.182.824 5.338 1.612 10.286 3.408 15.424 1.056 3.023 2.448 6.018 4.307 8.635.511.719 1.053 1.565 1.859 1.96l.257-.062c1.152-.261 2.139-.269 3.155.405 1.625 1.078 2.834 2.692 4.464 3.768 1.874 1.238 3.604 1.465 5.75 1.873 1.335.255 2.67.741 4 .935 2.237.328 4.776.043 7.043-.035 1.309-.045 3.165-.355 3.908.973-.824 1.444-2.967 1.931-4.469 2.343-7.05 1.931-14.516 1.01-20.848-2.631-2.994-1.721-5.828-3.968-7.88-6.773-3.124-4.273-5.03-10.11-6.374-15.179-8.351-31.474-3.956-64.748 7.843-94.742 4.137-10.518 8.661-20.678 11.967-31.513.278-.911 1.033-2.519 1.045-3.372.013-.909-1.168-1.451-1.069-2.477l.334-.437-.43.043c-.406.036-.712.001-1.11-.065-1.112-.185-2.166.208-3.206.565-1.83.63-3.692 1.614-5.63 1.83-2.096.234-4.196-.452-6.12-1.214-1.626-.644-3.072-1.376-4.124-2.824-.733-1.01-1.18-2.205-1.576-3.381-13.56-2.002-25.751-6.831-37.654-13.515l.145.286c1.909 3.882 1.039 8.723-.321 12.659-2.645 7.653-6.953 14.791-12.696 20.475l17.418 6.226c3.832 1.482 7.546 3.324 11.238 5.121 1.878.915 4.542 1.881 5.917 3.449l-.102.534c-1.309.719-2.244.467-3.623.061l-34.035-12.31c-3.036 9.852-3.216 20.851-3.645 31.09-.935 22.32-1.146 44.652 1.926 66.833l3.079 17.292 3.553 14.388c-6.936.716-13.21.737-20.13-.21-5.734-.786-11.3-2.242-17.143-2.001-5.025.208-9.898 1.529-14.533 3.434-5.363 2.203-10.526 5.127-16.449 5.371-4.766.197-9.634-1.136-14.119-2.617-3.706-1.224-8.286-2.508-11.346-4.994-1.101-.894-2.198-1.993-3.055-3.122z"/><path fill="#C792F1" d="M363.08 209.088c-1.416-.15-2.798-.328-4.222-.229-.408.028-.227.024-.733-.058.209-.499.765-.738 1.25-.958 1.219-.55 2.442-.634 3.75-.677.494.601.403.911.447 1.673zm-4.863-59.879c12.402-1.883 25.929-.543 36.301 7.089.419.309.844.597 1.185.992-11.836-6.05-23.743-9.351-37.138-7.528zm107.273 20.666.414-.006c3.998.272 7.323.598 11.076 2.153 5.422 2.246 10.059 6.974 12.296 12.379 3.182 7.688 2.813 16.206-.302 23.839l-.281.51-.098-.25a26 26 0 0 0 1.108-4.635c1.123-8.007-.571-18.37-5.585-24.933-3.666-4.799-9.173-7.684-15.136-8.416l-.607-.078c-.841-.208-1.901-.127-2.653-.437z"/><path fill="#C792F1" d="m358.566 149.762-.946.141c-7.068 1.301-14.813 5.273-18.951 11.278-5.92 8.59-3.404 19.69 2.354 27.694.695.966 3.171 3.249 3.352 4.229-5.237-4.293-9.756-10.14-11.1-16.906-1.035-5.207.84-10.495 3.802-14.739 4.705-6.744 13.19-10.945 21.14-12.25zm78.243 95.489c.641-.021 1.323.033 1.941.215 1.352.397 2.38 1.839 2.933 3.055 1.354 2.982 1.013 5.937-.107 8.934-1.454 3.89-4.051 6.885-7.841 8.615l-.227.063c-1.99.434-3.499.098-5.237-.902l2.672-11.952c1.118-3.35 2.579-6.406 5.866-8.028m-59.32 88.272c1.05 1.099 2.146 2.469 3.376 3.352 4.276 3.072 9.44 4.43 14.537 5.269l-1.127 1.204c-.876.881-1.436 1.027-2.696.993-3.486-.095-6.652-2.042-9.002-4.481-.72-.747-1.229-1.647-1.952-2.405-.674-.025-.681.019-1.232.42-.125.411-.203.707-.122 1.14.35 1.865 3.374 4.437 4.867 5.423 1.693 1.12 5.91 3.162 7.949 2.695.593-.136.24-.142.863-.007-.157 1.143.001 2.39-.296 3.5-1.267.258-2.409.516-3.156 1.624l.24.876.637.669c.574.168.868.219 1.458.087.407-.09.66-.147 1.081-.065l.079 3.669c-3.08 1.092-6.297 1.28-9.493.505-4.315-1.047-5.231-3.445-7.307-6.865l-2.885-4.394c.425-1.182.878-2.154 1.553-3.218 2.468 1.61 3.138 5.52 6.668 5.976.672.086.866.129 1.371-.296-.515-1.265-2.155-2.249-3.077-3.27-1.558-1.726-2.809-3.523-4.545-5.096.427-2.5 1.277-4.953 2.211-7.305m29.497-31.148c.772 1.756 1.018 3.999 1.519 5.875 1.468 5.489 3.687 11.453 7.437 15.812l.307.355c-5.214 3.352-9.778 7.976-14.702 11.758-1.22.936-2.744 2.33-4.175 2.906-2.337.94-6.739-.843-8.947-1.733-4.595-2.211-8.068-4.733-10.815-9.083 1.492-3.886 3.109-7.523 4.17-11.575.493-1.883.644-3.809 1.095-5.693l.5.238c.994.528 1.905.659 3.02.701 7.67.291 15.221-4.519 20.591-9.561"/><path fill="#C792F1" d="M363.572 208.839c1.006-.036 1.36-1.322 2.17-1.591.774-.257 2.804-.048 3.673.014 2.76.196 5.597 1.629 6.786 4.238.531 1.165.689 2.214 1.549 3.226l.876.027c.813-.4 1.143-.648 1.68-1.378.326-1.254.096-2.699-.416-3.883-1.232-2.853-4.25-4.211-6.939-5.331 4.743.09 9.241.508 13.924 1.312 3.349.574 6.616 1.533 9.987 1.992 4.503.614 9.366.374 13.764-.76 3.368-.87 6.458-2.457 9.702-3.67-.396 4.98-.56 9.843.231 14.805.631 3.953 1.937 7.746 3.049 11.579l3.084 12.68c.877 4.492 1.914 9.719 1.772 14.292-.118 3.788-1.336 7.925-2.544 11.506-2.516 7.466-5.722 14.458-10.152 20.987-4.644 6.843-9.903 11.701-17.084 15.779-2.564 1.456-5.426 2.911-8.352 3.438-6.347 1.143-12.146-.478-17.342-4.106-6.867-4.797-12.242-11.75-16.444-18.912-3.888-6.625-6.969-13.579-8.226-21.208-2.254-13.684-.433-27.932 3.922-40.996.959-2.877 2.073-6.516 3.946-8.937 2.48-3.206 8.864.455 11.615 1.93 1.183.635 2.728 1.819 4.072 1.689.254-.264.581-.569.751-.894.322-.618.169-1.335-.151-1.917-1.251-2.272-4.207-3.441-6.457-4.414-.882-.381-1.782-.913-2.696-1.188l-.242-.06z"/><path fill="#141414" d="M402.348 212.05c3.365-.441 7.139.153 10.2 1.649 1.613.788 3.283 1.924 3.891 3.676-.058.814-.142 1.746-.6 2.449-.458.705-.793 1.021-1.589 1.209-1.563-.825-2.594-2.682-4.207-3.68l-.287-.17c-1.989-.558-4.058-.624-6.096-.286l-.41.072c-2.265.376-6.176 2.365-8.295 1.962-.538-.103-.818-.35-1.048-.858-.241-.536-.121-1.062.155-1.552 1.601-2.844 5.339-3.809 8.286-4.471m-36.404 15.747-.355-.127c-1.479-.542-2.234-.922-3.065-2.295l.226-.367c4.066-.335 9.529 1.216 12.671 3.876.883.748 1.589 1.588 1.655 2.79.181 3.268-2.656 7.104-4.812 9.316-1.097 1.126-6.699 5.29-6.998 6.26-.061.2-.02.417-.03.625 2.393 2.539 6.137 2.676 9.409 2.774 2.682.081 5.399-.313 8.067-.077l.2.403c-.46.933-1.095 1.413-2.073 1.748-4.38 1.499-11.124 1.183-15.269-1.049-1.521-.82-2.84-1.91-3.346-3.606-.25-.84-.292-1.81.2-2.578 1.125-1.754 3.789-3.136 5.498-4.293-1.797-.249-3.43-.298-4.631-1.851-1.262-1.63-1.906-4.29-2.742-6.189.653-1.399 3.404-4.049 4.824-4.651l-.062-.483z"/><path fill="#C792F1" d="m370.134 229.626.431-.002c1.564.217 2.998 2.158 3.79 3.388l-3.544 4.796-2.24 2.31c.236-2.155.772-4.26 1.244-6.372.317-1.421.764-2.677.319-4.12m-4.761-1.12-.062-.483.633-.226c.925.306 2.203.56 2.931 1.211l-.51.546c-1.142 1.259-2.328 8.803-2.49 8.9-.145.088-.334.061-.5.091-.839-.799-1.583-1.833-1.621-3.045-.071-2.238 2.496-5.019 1.619-6.994"/><path fill="#141414" d="M365.986 267.875c.487-.18.732-.257 1.264-.186 1.193.158 2.577.933 3.766 1.264 2.343.652 4.778 1.019 7.195 1.252 2.069.2 4.353.336 6.415.026 1.192-.179 2.129-.702 3.374-.728.574.463.79.746.908 1.497.636 4.025-.728 8.343-2.942 11.651-.944 1.107-2.21 2.305-3.591 2.814-2.239.825-4.615.62-6.724-.459-4.885-2.498-8.406-9.574-9.864-14.631-.261-.905-.257-1.674.199-2.5"/><path fill="#C792F1" d="m385.508 274.125.4-.016c.062.25.104.354.085.641-.158 2.359-1.593 5.413-3.367 6.927-1.05.896-2.25 1.304-3.626 1.154-2.685-.292-4.457-2.391-6.062-4.336-.968-1.313-1.815-2.552-2.582-3.996 2.466 1.113 5.034 2.043 7.762 2.24 2.694.194 5.356-.914 7.39-2.614"/><path fill="#141414" d="m388.001 229.533 3.124-.041c5.292.216 11.07 2.621 15.748 4.984 1.206.608 3.059 1.46 3.82 2.578.368.542.341.848.138 1.454-1.169 3.49-5.479 7.048-8.594 8.743-1.258.488-2.526.921-3.862 1.139-4.036.659-9.252.435-12.649-2.03-1.635-1.187-3.737-3.305-4.027-5.426-.056-.403-.096-.708-.228-1.1-.444-1.318-.88-2.606-.415-3.99 1.028-3.056 4.195-5.006 6.945-6.311"/><path fill="#C792F1" d="M402.622 235.778a20.4 20.4 0 0 1 3.924 1.775c.393.232 1.076.51 1.184.946l-4.641 4.749c-1.193.89-2.356 1.39-3.729 1.931-.157-.4.477-1.784.628-2.235.82-2.445 1.618-4.791 2.634-7.166m-13.996-3.466a22.57 22.57 0 0 1 11.859 2.565l-.401.625-1.086 1.624c-1.508 2.626-2.46 5.138-1.601 8.144l.111.381-3.584.129c-1.744-.062-3.594-.532-5.174-1.269-1.234-.576-4.002-2.476-4.043-4.037-.025-.974.928-1.651.543-2.692-.609.096-.887.64-1.288 1.093l-.233-.249.343-1.254c.792-2.126 2.53-4.066 4.554-5.06"/><path stroke="#C792F1" stroke-linecap="round" stroke-width="3" d="M485.857 440.168c0 .721.702 1.311.74 2.035.022.416.168.837.185 1.275.035.894.092 1.87.324 2.75.322 1.223.509 2.47.509 3.747 0 1.02.092 2.027.092 3.053 0 .434.1.867.165 1.295.079.526-.089 1.105.026 1.62.167.753.087-1.542.087-2.313 0-.78-.248-1.455-.37-2.216-.232-1.45-.687-2.89-.74-4.379-.031-.845-.093-1.698-.093-2.539 0-.882-.185-1.752-.185-2.617v-.555c0-.321.093-.079.093.093 0 .442.413.827.462 1.249.037.309.278.591.278.925 0 .378.092.721.092 1.11 0 1.022.101 2.105.283 3.105.089.491.456.887.545 1.377.089.491.19.922.19 1.44 0 .53.093 1.037.093 1.572 0 .529.073 1.249.231 1.753.16.514.258.988.324 1.532.04.331.134.651.18.971.027.195-.048.424.051.602.198.356.057.902.144 1.295.128.577.087 1.184.087 1.784v1.501c0 .387.192-.636.206-.741.054-.42.164-.825.164-1.249 0-.227.093-.434.093-.647 0-.303-.093-.209-.093.046 0 .56.093 1.105.093 1.645v2.57c0-.403.06-.874.113-1.275.063-.478.164-.988.164-1.46 0-.414-.028-.069-.072.165-.067.364-.02.765-.02 1.136 0 .979.054 1.977 0 2.955-.058 1.052.463-2.072.463-3.125 0-.405-.022-.903-.186-1.269-.044-.101-.185-.573-.185-.227 0 .465-.056.964.006 1.424.081.612.179 1.232.179 1.856 0 .439.043.906.098 1.346.052.413.067 1.105.252 1.476.218.435.021-.974.021-1.46v-1.224c0-.322-.089-.669-.185-.976-.016-.05-.237-.621-.18-.365.302 1.358.16 2.987.714 4.302.106.252.079.505.134-.01a16 16 0 0 0 .072-1.727c0-.478-.063-.879-.257-1.316-.695-1.562-.329-3.522-.622-5.166-.165-.92-.314-1.796-.694-2.652-.199-.447-.563-.822-.781-1.259-.45-.899-.82-1.835-1.121-2.797-.626-1.999-.615-4.112-.761-6.188-.11-1.576-.298-6.308-.298-4.729 0 .948.321 2.053.504 2.992.157.805.236 1.679.236 2.498 0 .639.177 1.365.324 1.984.11.462.46.997.509 1.439.098.88.025-1.81-.278-2.642-.538-1.482-1.757-2.688-1.757-4.39"/></g><defs><clipPath id="a"><path fill="#fff" d="M0 0h512v512H0z"/></clipPath></defs></svg>