<svg xmlns="http://www.w3.org/2000/svg" width="184" height="80" fill="none"><path fill="#141414" d="M72.085 53.325q-2.663 0-4.926-.9a11.8 11.8 0 0 1-3.894-2.529q-1.631-1.664-2.563-3.927-.899-2.297-.899-5.06 0-3.66 1.565-6.39a11.03 11.03 0 0 1 4.327-4.293q2.796-1.532 6.357-1.532 3.628 0 6.39 1.532a11.03 11.03 0 0 1 4.327 4.293q1.598 2.763 1.598 6.424 0 2.73-.932 5.026a11.5 11.5 0 0 1-2.563 3.927q-1.63 1.63-3.894 2.53-2.23.898-4.893.898m-.033-4.061q2.097 0 3.694-1.065 1.599-1.065 2.497-2.93.932-1.896.932-4.393 0-2.463-.899-4.293-.9-1.83-2.496-2.83-1.598-.998-3.728-.998-2.097 0-3.695.999-1.597.997-2.496 2.829-.865 1.798-.865 4.293 0 2.53.898 4.427.9 1.864 2.497 2.93 1.597 1.03 3.66 1.03m14.308 3.73V36.017h4.893v3.994h.1v12.98zm4.993-8.854-.433-4.027q.6-2.163 1.964-3.295 1.365-1.132 3.395-1.132.632 0 .932.133v4.66a1.3 1.3 0 0 0-.466-.067 7 7 0 0 0-.733-.033q-2.395 0-3.528.865-1.131.832-1.131 2.896m17.621 9.187q-2.43 0-3.96-1.132-1.499-1.132-1.764-3.096l.266-.033v3.928h-4.893V29.027h4.993v10.75l-.3-.066q.366-1.863 1.931-2.929 1.597-1.098 3.994-1.098 2.296 0 3.96 1.098 1.698 1.065 2.597 3.03.932 1.962.932 4.626 0 2.695-.966 4.693-.965 1.997-2.696 3.095-1.73 1.099-4.094 1.099m-1.398-3.995q1.765 0 2.863-1.264 1.098-1.266 1.098-3.595t-1.131-3.561q-1.1-1.232-2.896-1.232-1.73 0-2.863 1.265-1.098 1.23-1.098 3.561t1.098 3.595q1.132 1.23 2.929 1.231m10.818 3.662V36.017h4.993v16.975zm-.166-19.238v-5.392h5.325v5.392zm15.934 19.604q-3.262 0-4.86-1.565-1.564-1.597-1.564-4.826V32.222l4.992-1.863v16.775q0 1.131.633 1.697.632.566 1.964.566.498 0 .932-.1.432-.1.865-.233v3.794q-.433.234-1.232.367-.765.133-1.73.133m-9.586-13.547v-3.794h12.548v3.794zm24.901 13.181a11 11 0 0 1-.3-1.565 25 25 0 0 1-.066-1.93h-.134v-8.022q0-1.031-.699-1.597-.665-.6-1.997-.6-1.265 0-2.03.433-.732.433-.965 1.265h-4.76q.333-2.296 2.363-3.794 2.031-1.498 5.559-1.498 3.661 0 5.592 1.63 1.93 1.632 1.93 4.694v7.489q0 .832.1 1.697.133.832.399 1.798zm-5.925.333q-2.53 0-4.027-1.265-1.498-1.298-1.498-3.428 0-2.363 1.764-3.795 1.797-1.464 4.993-1.897l4.959-.699v2.896l-4.127.632q-1.332.2-1.964.732t-.632 1.465q0 .831.599 1.265.599.432 1.597.432 1.565 0 2.663-.832 1.098-.865 1.098-1.997l.466 2.663q-.732 1.898-2.23 2.862-1.498.966-3.661.965m13.257-.332V29.027h4.992v23.965z"/><rect width="38.831" height="38.831" x="8.881" y="21.096" fill="#141414" rx="19.416"/><path fill="#fff" d="M32.913 51.608a7.86 7.86 0 0 1-7.86-7.86h7.86z"/><path fill="#fff" d="M25.058 43.749A7.86 7.86 0 0 1 17.2 35.89h7.858zm15.72.001a7.86 7.86 0 0 0-7.859-7.859v7.859zm-7.861-7.86a7.86 7.86 0 0 0-7.859-7.86v7.86z"/></svg>