<svg xmlns="http://www.w3.org/2000/svg" width="223" height="80" fill="none"><path fill="#141414" fill-rule="evenodd" d="M59.272 53.091h7.314A17.065 17.065 0 0 1 83.65 36.026v-7.314a24.38 24.38 0 0 0-20.896 11.821 24.38 24.38 0 0 0-20.896-11.82v7.313A17.065 17.065 0 0 1 58.925 53.09z" clip-rule="evenodd"/><path fill="#141414" d="M112.977 40.916V28.562h5.967v21.515h-5.729v-3.908h-.224a6.36 6.36 0 0 1-2.424 3.04q-1.68 1.148-4.104 1.148-2.157 0-3.796-.98t-2.563-2.788q-.91-1.806-.924-4.328V28.562h5.967v12.634q.014 1.905 1.022 3.012t2.704 1.107q1.078 0 2.017-.49a3.85 3.85 0 0 0 1.512-1.486q.588-.979.575-2.423m9.162 17.229V28.562h5.883v3.614h.266q.392-.869 1.134-1.765.757-.91 1.961-1.513 1.219-.616 3.026-.616 2.353 0 4.342 1.233 1.989 1.218 3.18 3.683 1.19 2.452 1.19 6.15 0 3.6-1.162 6.079-1.149 2.465-3.138 3.74-1.975 1.26-4.426 1.26-1.737 0-2.956-.574-1.204-.575-1.975-1.443-.77-.882-1.176-1.779h-.182v11.514zm5.841-18.826q0 1.92.532 3.348.532 1.43 1.541 2.227 1.008.785 2.451.785 1.457 0 2.465-.799 1.009-.812 1.527-2.24.532-1.445.532-3.32 0-1.863-.518-3.278t-1.527-2.213q-1.009-.8-2.479-.799-1.457 0-2.465.77-.995.771-1.527 2.186-.532 1.414-.532 3.334m17.542 18.825V28.562h5.882v3.614h.267q.392-.869 1.134-1.765.756-.91 1.961-1.513 1.219-.616 3.026-.616 2.353 0 4.342 1.233 1.99 1.218 3.179 3.683 1.191 2.452 1.191 6.15 0 3.6-1.162 6.079-1.149 2.465-3.138 3.74-1.975 1.26-4.426 1.26-1.737 0-2.956-.574-1.204-.575-1.975-1.443-.77-.882-1.176-1.779h-.182v11.514zm5.84-18.826q0 1.92.533 3.348.532 1.43 1.541 2.227 1.008.785 2.451.785 1.457 0 2.465-.799 1.008-.812 1.527-2.24.532-1.445.532-3.32 0-1.863-.518-3.278-.519-1.415-1.527-2.213-1.008-.8-2.479-.799-1.457 0-2.465.77-.995.771-1.527 2.186-.533 1.414-.533 3.334m27.347 11.177q-3.32 0-5.715-1.345-2.38-1.358-3.669-3.837-1.29-2.494-1.289-5.898 0-3.32 1.289-5.826 1.288-2.508 3.627-3.908 2.354-1.401 5.519-1.401 2.13 0 3.964.686A8.8 8.8 0 0 1 185.657 31q1.386 1.359 2.157 3.418.77 2.045.77 4.79v1.64h-18.167v-3.699h12.55q0-1.288-.56-2.283a4 4 0 0 0-1.555-1.555q-.98-.574-2.283-.574-1.359 0-2.409.63a4.4 4.4 0 0 0-1.625 1.667 4.7 4.7 0 0 0-.602 2.311v3.516q0 1.598.588 2.76a4.3 4.3 0 0 0 1.695 1.793q1.092.63 2.591.63.994 0 1.821-.28a3.8 3.8 0 0 0 1.415-.84 3.65 3.65 0 0 0 .896-1.373l5.519.364a7.53 7.53 0 0 1-1.723 3.474q-1.288 1.47-3.333 2.297-2.03.812-4.693.812m12.191-.421V28.562h5.785v3.754h.224q.59-2.003 1.975-3.026 1.387-1.036 3.194-1.036.448 0 .967.056a7 7 0 0 1 .91.154v5.295a8 8 0 0 0-1.163-.224 10 10 0 0 0-1.358-.098q-1.317-.001-2.353.574a4.2 4.2 0 0 0-1.625 1.569q-.588 1.008-.589 2.325v12.172z"/></svg>